{"glyphs":{"0":{"ha":846,"x_min":0,"x_max":0,"o":"m 92 445 b 423 -19 92 164 214 -19 b 754 445 633 -19 754 165 l 754 479 b 425 945 754 760 634 945 b 92 479 214 945 92 760 z m 216 479 b 423 837 216 701 296 837 b 630 479 551 837 630 701 l 630 446 b 423 89 630 224 551 89 b 216 446 296 89 216 224 z "},"1":{"ha":633,"x_min":0,"x_max":0,"o":"m 452 0 l 452 926 l 328 926 l 108 762 l 108 637 l 322 792 l 328 792 l 328 0 z "},"2":{"ha":779,"x_min":0,"x_max":0,"o":"m 220 668 b 220 673 220 669 220 672 b 390 838 220 761 282 838 b 556 682 485 838 556 778 b 450 475 556 597 501 533 l 102 79 l 102 0 l 700 0 l 700 109 l 279 109 l 279 116 l 525 398 b 682 691 612 497 682 575 b 393 945 682 836 568 945 b 98 673 200 945 98 813 l 98 668 z "},"3":{"ha":794,"x_min":0,"x_max":0,"o":"m 287 424 l 388 424 b 581 258 501 424 580 357 b 382 86 583 158 504 85 b 190 217 275 87 198 144 l 73 217 b 379 -20 80 85 195 -20 b 707 257 571 -20 711 95 b 505 480 705 407 583 471 l 505 487 b 676 708 575 499 680 577 b 383 945 673 842 559 946 b 96 711 197 944 100 829 l 214 711 b 382 840 220 779 285 840 b 551 688 481 840 551 778 b 382 530 551 597 479 530 l 287 530 z "},"4":{"ha":817,"x_min":0,"x_max":0,"o":"m 454 926 b 70 299 323 717 185 508 l 70 190 l 519 190 l 519 0 l 639 0 l 639 190 l 759 190 l 759 298 l 639 298 l 639 926 z m 193 298 l 193 304 b 513 819 290 475 405 657 l 519 819 l 519 298 z "},"5":{"ha":812,"x_min":0,"x_max":0,"o":"m 103 216 b 405 -19 112 80 234 -19 b 733 302 600 -19 733 111 b 437 601 733 490 599 601 b 252 522 335 601 271 551 l 245 522 l 270 818 l 687 818 l 687 926 l 164 926 l 123 394 l 229 394 b 410 496 254 439 315 496 b 608 299 515 496 608 421 b 412 87 608 161 507 87 b 222 216 328 87 241 123 z "},"6":{"ha":833,"x_min":0,"x_max":0,"o":"m 727 734 b 442 943 720 836 616 943 b 92 427 236 943 92 784 b 161 121 92 288 119 189 b 427 -19 226 16 328 -19 b 747 300 609 -19 747 97 b 456 596 747 494 600 596 b 221 457 321 596 247 522 l 214 457 b 438 837 214 715 310 837 b 602 734 543 837 592 777 z m 231 294 b 429 492 231 410 314 492 b 624 293 528 492 624 429 b 428 87 624 153 536 87 b 231 294 322 87 231 163 z "},"7":{"ha":745,"x_min":0,"x_max":0,"o":"m 79 926 l 79 817 l 545 817 l 545 810 l 162 0 l 293 0 l 672 813 l 672 926 z "},"8":{"ha":831,"x_min":0,"x_max":0,"o":"m 413 -19 b 745 254 606 -19 745 92 b 558 486 745 397 637 467 l 558 492 b 710 698 621 512 710 574 b 416 945 710 841 587 945 b 123 698 246 945 123 841 b 273 492 123 576 208 513 l 273 486 b 86 252 196 467 86 398 b 413 -19 86 91 221 -19 z m 416 533 b 243 688 317 533 243 597 b 416 841 243 780 317 841 b 589 688 517 841 589 780 b 416 533 589 597 517 533 z m 416 83 b 208 258 298 83 208 154 b 416 433 208 361 298 433 b 623 258 534 433 623 361 b 416 83 623 154 534 83 z "},"9":{"ha":831,"x_min":0,"x_max":0,"o":"m 111 178 b 389 -18 123 75 217 -18 b 739 484 627 -18 739 152 b 408 946 739 856 570 946 b 86 633 227 946 86 830 b 382 322 86 438 217 322 b 612 466 507 322 583 389 l 618 466 b 391 89 624 259 562 89 b 236 178 301 89 249 135 z m 597 628 b 404 428 597 492 503 428 b 210 631 300 428 210 494 b 401 840 210 764 297 840 b 597 628 512 840 597 764 z "}," ":{"ha":314,"x_min":0,"x_max":0,"o":""},"A":{"ha":854,"x_min":0,"x_max":0,"o":"m 164 0 l 255 274 l 596 274 l 687 0 l 819 0 l 492 926 l 362 926 l 35 0 z m 428 783 l 564 374 l 288 374 l 423 783 z "},"À":{"ha":854,"x_min":0,"x_max":0,"o":"m 475 1025 l 313 1244 l 193 1244 l 382 1025 z m 164 0 l 255 274 l 596 274 l 687 0 l 819 0 l 492 926 l 362 926 l 35 0 z m 428 783 l 564 374 l 288 374 l 423 783 z "},"Á":{"ha":854,"x_min":0,"x_max":0,"o":"m 379 1025 l 472 1025 l 661 1244 l 541 1244 z m 164 0 l 255 274 l 596 274 l 687 0 l 819 0 l 492 926 l 362 926 l 35 0 z m 428 783 l 564 374 l 288 374 l 423 783 z "},"Ä":{"ha":854,"x_min":0,"x_max":0,"o":"m 545 1000 b 617 1070 586 1000 617 1031 b 545 1141 617 1109 586 1141 b 473 1070 504 1141 473 1109 b 545 1000 473 1031 504 1000 z m 308 1000 b 380 1070 349 1000 380 1031 b 308 1141 380 1109 349 1141 b 236 1070 267 1141 236 1109 b 308 1000 236 1031 267 1000 z m 164 0 l 255 274 l 596 274 l 687 0 l 819 0 l 492 926 l 362 926 l 35 0 z m 428 783 l 564 374 l 288 374 l 423 783 z "},"Ǟ":{"ha":854,"x_min":0,"x_max":0,"o":"m 627 1210 l 627 1284 l 227 1284 l 227 1210 z m 545 1000 b 617 1070 587 1000 617 1031 b 545 1141 617 1109 587 1141 b 473 1070 505 1141 473 1109 b 545 1000 473 1031 505 1000 z m 309 1000 b 381 1070 350 1000 381 1031 b 309 1141 381 1109 350 1141 b 237 1070 268 1141 237 1109 b 309 1000 237 1031 268 1000 z m 164 0 l 255 274 l 596 274 l 687 0 l 819 0 l 492 926 l 362 926 l 35 0 z m 428 783 l 564 374 l 288 374 l 423 783 z "},"Å":{"ha":854,"x_min":0,"x_max":0,"o":"m 427 1006 b 557 1134 500 1006 557 1061 b 427 1261 557 1206 500 1261 b 296 1134 355 1261 296 1206 b 427 1006 296 1061 355 1006 z m 359 1133 b 427 1202 359 1172 389 1202 b 495 1133 466 1202 495 1172 b 427 1064 495 1095 466 1064 b 359 1133 389 1064 359 1095 z m 164 0 l 255 274 l 596 274 l 687 0 l 819 0 l 492 926 l 362 926 l 35 0 z m 428 783 l 564 374 l 288 374 l 423 783 z "},"Ǻ":{"ha":854,"x_min":0,"x_max":0,"o":"m 379 1229 l 478 1229 l 578 1319 l 450 1319 z m 427 968 b 545 1083 492 968 545 1017 b 427 1198 545 1148 492 1198 b 309 1083 361 1198 309 1148 b 427 968 309 1017 361 968 z m 368 1084 b 428 1143 368 1118 393 1143 b 487 1084 462 1143 487 1118 b 428 1022 487 1049 462 1022 b 368 1084 393 1022 368 1049 z m 164 0 l 255 274 l 596 274 l 687 0 l 819 0 l 492 926 l 362 926 l 35 0 z m 428 783 l 564 374 l 288 374 l 423 783 z "},"Ã":{"ha":854,"x_min":0,"x_max":0,"o":"m 509 991 b 637 1134 593 991 637 1065 l 560 1134 b 509 1063 559 1102 543 1063 b 342 1145 458 1063 429 1145 b 221 1002 260 1145 221 1074 l 298 1002 b 346 1073 299 1027 309 1073 b 509 991 397 1073 421 991 z m 164 0 l 255 274 l 596 274 l 687 0 l 819 0 l 492 926 l 362 926 l 35 0 z m 428 783 l 564 374 l 288 374 l 423 783 z "},"Ằ":{"ha":854,"x_min":0,"x_max":0,"o":"m 486 1181 l 382 1319 l 266 1319 l 400 1181 z m 644 1174 l 555 1174 b 427 1082 555 1122 498 1082 b 300 1174 357 1082 300 1122 l 210 1174 b 427 1006 210 1082 300 1006 b 644 1174 554 1006 644 1082 z m 164 0 l 255 274 l 596 274 l 687 0 l 819 0 l 492 926 l 362 926 l 35 0 z m 428 783 l 564 374 l 288 374 l 423 783 z "},"Ǡ":{"ha":854,"x_min":0,"x_max":0,"o":"m 627 1203 l 627 1278 l 227 1278 l 227 1203 z m 355 1069 b 427 998 355 1029 387 998 b 499 1069 467 998 499 1029 b 427 1140 499 1108 467 1140 b 355 1069 387 1140 355 1108 z m 164 0 l 255 274 l 596 274 l 687 0 l 819 0 l 492 926 l 362 926 l 35 0 z m 428 783 l 564 374 l 288 374 l 423 783 z "},"Ḁ":{"ha":854,"x_min":0,"x_max":0,"o":"m 164 0 l 255 274 l 596 274 l 687 0 l 819 0 l 492 926 l 362 926 l 35 0 z m 428 783 l 564 374 l 288 374 l 423 783 z m 427 -318 b 557 -191 499 -318 557 -263 b 427 -64 557 -118 499 -64 b 296 -191 354 -64 296 -118 b 427 -318 296 -263 354 -318 z m 358 -191 b 427 -122 358 -152 388 -122 b 494 -191 465 -122 494 -152 b 427 -260 494 -230 465 -260 b 358 -191 388 -260 358 -230 z "},"Â":{"ha":854,"x_min":0,"x_max":0,"o":"m 468 1183 l 389 1183 l 199 1017 l 315 1017 l 425 1113 l 429 1113 l 532 1017 l 651 1017 z m 164 0 l 255 274 l 596 274 l 687 0 l 819 0 l 492 926 l 362 926 l 35 0 z m 428 783 l 564 374 l 288 374 l 423 783 z "},"Ậ":{"ha":854,"x_min":0,"x_max":0,"o":"m 468 1183 l 389 1183 l 199 1017 l 315 1017 l 425 1113 l 429 1113 l 532 1017 l 651 1017 z m 164 0 l 255 274 l 596 274 l 687 0 l 819 0 l 492 926 l 362 926 l 35 0 z m 428 783 l 564 374 l 288 374 l 423 783 z m 353 -169 b 427 -239 353 -211 384 -239 b 500 -169 469 -239 500 -211 b 427 -97 500 -127 469 -97 b 353 -169 384 -97 353 -127 z "},"Ấ":{"ha":854,"x_min":0,"x_max":0,"o":"m 561 1162 l 646 1162 l 800 1317 l 686 1317 z m 199 1019 l 315 1019 l 425 1114 l 429 1114 l 532 1019 l 651 1019 l 475 1178 l 382 1178 z m 164 0 l 255 274 l 596 274 l 687 0 l 819 0 l 492 926 l 362 926 l 35 0 z m 428 783 l 564 374 l 288 374 l 423 783 z "},"Ẫ":{"ha":854,"x_min":0,"x_max":0,"o":"m 302 1195 b 349 1253 304 1211 313 1253 b 506 1184 401 1253 420 1184 b 628 1310 586 1184 628 1251 l 554 1310 b 505 1251 553 1286 538 1251 b 345 1321 452 1251 427 1321 b 229 1195 268 1321 229 1257 z m 203 1019 l 318 1019 l 425 1097 l 429 1097 l 530 1019 l 648 1019 l 474 1153 l 383 1153 z m 164 0 l 255 274 l 596 274 l 687 0 l 819 0 l 492 926 l 362 926 l 35 0 z m 428 783 l 564 374 l 288 374 l 423 783 z "},"Ầ":{"ha":854,"x_min":0,"x_max":0,"o":"m 722 1162 l 597 1317 l 482 1317 l 636 1162 z m 199 1019 l 315 1019 l 425 1114 l 429 1114 l 532 1019 l 651 1019 l 475 1178 l 382 1178 z m 164 0 l 255 274 l 596 274 l 687 0 l 819 0 l 492 926 l 362 926 l 35 0 z m 428 783 l 564 374 l 288 374 l 423 783 z "},"Ẩ":{"ha":854,"x_min":0,"x_max":0,"o":"m 524 1250 b 566 1256 536 1254 548 1256 b 618 1218 589 1256 618 1243 b 572 1179 618 1200 602 1187 l 612 1126 b 691 1221 655 1139 691 1172 b 578 1316 691 1280 643 1316 b 524 1308 559 1316 541 1313 z m 199 1019 l 315 1019 l 425 1114 l 429 1114 l 532 1019 l 651 1019 l 475 1178 l 382 1178 z m 164 0 l 255 274 l 596 274 l 687 0 l 819 0 l 492 926 l 362 926 l 35 0 z m 428 783 l 564 374 l 288 374 l 423 783 z "},"Ă":{"ha":854,"x_min":0,"x_max":0,"o":"m 208 1187 b 427 1006 208 1088 298 1006 b 646 1187 556 1006 646 1088 l 555 1187 b 427 1084 555 1128 511 1084 b 298 1187 343 1084 298 1128 z m 164 0 l 255 274 l 596 274 l 687 0 l 819 0 l 492 926 l 362 926 l 35 0 z m 428 783 l 564 374 l 288 374 l 423 783 z "},"Ắ":{"ha":854,"x_min":0,"x_max":0,"o":"m 369 1181 l 454 1181 l 589 1319 l 471 1319 z m 644 1174 l 555 1174 b 427 1082 555 1122 498 1082 b 300 1174 357 1082 300 1122 l 210 1174 b 427 1006 210 1082 300 1006 b 644 1174 554 1006 644 1082 z m 164 0 l 255 274 l 596 274 l 687 0 l 819 0 l 492 926 l 362 926 l 35 0 z m 428 783 l 564 374 l 288 374 l 423 783 z "},"Ẵ":{"ha":854,"x_min":0,"x_max":0,"o":"m 302 1201 b 349 1253 304 1211 313 1253 b 507 1183 401 1253 420 1183 b 629 1310 587 1183 629 1251 l 555 1310 b 505 1251 553 1286 538 1251 b 345 1322 452 1251 427 1322 b 228 1201 267 1322 228 1257 z m 632 1154 l 547 1154 b 427 1076 547 1114 494 1076 b 307 1154 361 1076 307 1114 l 222 1154 b 427 1005 222 1076 308 1005 b 632 1154 546 1005 632 1076 z m 164 0 l 255 274 l 596 274 l 687 0 l 819 0 l 492 926 l 362 926 l 35 0 z m 428 783 l 564 374 l 288 374 l 423 783 z "},"Ẳ":{"ha":854,"x_min":0,"x_max":0,"o":"m 338 1249 b 380 1255 351 1253 363 1255 b 431 1218 408 1255 431 1238 b 386 1182 431 1201 415 1188 l 427 1129 b 505 1221 475 1142 505 1177 b 392 1315 505 1277 459 1315 b 338 1307 374 1315 357 1312 z m 643 1169 l 555 1169 b 427 1079 555 1119 497 1079 b 300 1169 357 1079 300 1119 l 211 1169 b 427 1005 211 1080 300 1005 b 643 1169 553 1005 643 1080 z m 164 0 l 255 274 l 596 274 l 687 0 l 819 0 l 492 926 l 362 926 l 35 0 z m 428 783 l 564 374 l 288 374 l 423 783 z "},"Ặ":{"ha":854,"x_min":0,"x_max":0,"o":"m 208 1187 b 427 1006 208 1088 298 1006 b 646 1187 556 1006 646 1088 l 555 1187 b 427 1084 555 1128 511 1084 b 298 1187 343 1084 298 1128 z m 164 0 l 255 274 l 596 274 l 687 0 l 819 0 l 492 926 l 362 926 l 35 0 z m 428 783 l 564 374 l 288 374 l 423 783 z m 353 -169 b 427 -239 353 -211 384 -239 b 500 -169 469 -239 500 -211 b 427 -97 500 -127 469 -97 b 353 -169 384 -97 353 -127 z "},"Ȃ":{"ha":854,"x_min":0,"x_max":0,"o":"m 208 1006 l 298 1006 b 427 1109 298 1065 344 1109 b 555 1006 511 1109 555 1065 l 646 1006 b 427 1187 646 1105 555 1187 b 208 1006 299 1187 208 1105 z m 164 0 l 255 274 l 596 274 l 687 0 l 819 0 l 492 926 l 362 926 l 35 0 z m 428 783 l 564 374 l 288 374 l 423 783 z "},"Ǎ":{"ha":854,"x_min":0,"x_max":0,"o":"m 199 1184 l 382 1018 l 463 1018 l 651 1184 l 535 1184 l 426 1088 l 422 1088 l 317 1184 z m 164 0 l 255 274 l 596 274 l 687 0 l 819 0 l 492 926 l 362 926 l 35 0 z m 428 783 l 564 374 l 288 374 l 423 783 z "},"Ȧ":{"ha":854,"x_min":0,"x_max":0,"o":"m 354 1082 b 427 1009 354 1042 386 1009 b 500 1082 468 1009 500 1042 b 427 1156 500 1123 468 1156 b 354 1082 386 1156 354 1123 z m 164 0 l 255 274 l 596 274 l 687 0 l 819 0 l 492 926 l 362 926 l 35 0 z m 428 783 l 564 374 l 288 374 l 423 783 z "},"Ạ":{"ha":854,"x_min":0,"x_max":0,"o":"m 164 0 l 255 274 l 596 274 l 687 0 l 819 0 l 492 926 l 362 926 l 35 0 z m 428 783 l 564 374 l 288 374 l 423 783 z m 353 -169 b 427 -239 353 -211 384 -239 b 500 -169 469 -239 500 -211 b 427 -97 500 -127 469 -97 b 353 -169 384 -97 353 -127 z "},"Ả":{"ha":854,"x_min":0,"x_max":0,"o":"m 330 1166 b 395 1175 345 1171 369 1175 b 465 1122 434 1175 465 1155 b 399 1048 465 1095 447 1074 l 444 990 b 548 1124 507 1017 548 1061 b 403 1247 548 1202 490 1247 b 330 1235 372 1247 346 1241 z m 164 0 l 255 274 l 596 274 l 687 0 l 819 0 l 492 926 l 362 926 l 35 0 z m 428 783 l 564 374 l 288 374 l 423 783 z "},"Ȁ":{"ha":854,"x_min":0,"x_max":0,"o":"m 374 1025 l 212 1244 l 93 1244 l 282 1025 z m 601 1025 l 439 1244 l 319 1244 l 509 1025 z m 164 0 l 255 274 l 596 274 l 687 0 l 819 0 l 492 926 l 362 926 l 35 0 z m 428 783 l 564 374 l 288 374 l 423 783 z "},"Ā":{"ha":854,"x_min":0,"x_max":0,"o":"m 627 1025 l 627 1100 l 227 1100 l 227 1025 z m 164 0 l 255 274 l 596 274 l 687 0 l 819 0 l 492 926 l 362 926 l 35 0 z m 428 783 l 564 374 l 288 374 l 423 783 z "},"Ą":{"ha":854,"x_min":0,"x_max":0,"o":"m 741 -262 b 823 -248 768 -262 806 -256 l 823 -169 b 768 -175 809 -172 785 -175 b 690 -108 718 -175 690 -149 b 815 12 690 -59 735 -15 l 492 926 l 362 926 l 35 0 l 164 0 l 255 274 l 596 274 l 677 28 l 685 28 l 685 26 b 581 -130 617 -12 581 -64 b 741 -262 581 -211 644 -262 z m 428 783 l 564 374 l 288 374 l 423 783 z "},"B":{"ha":867,"x_min":0,"x_max":0,"o":"m 128 0 l 467 0 b 790 260 665 0 790 97 b 589 488 790 390 711 472 l 589 494 b 738 698 683 522 738 593 b 479 926 738 838 637 926 l 128 926 z m 252 819 l 458 819 b 612 677 555 819 612 766 b 392 528 612 576 545 528 l 252 528 z m 252 424 l 471 424 b 663 260 593 424 663 363 b 411 107 663 153 590 107 l 252 107 z "},"Ḇ":{"ha":867,"x_min":0,"x_max":0,"o":"m 128 0 l 467 0 b 790 260 665 0 790 97 b 589 488 790 390 711 472 l 589 494 b 738 698 683 522 738 593 b 479 926 738 838 637 926 l 128 926 z m 252 819 l 458 819 b 612 677 555 819 612 766 b 392 528 612 576 545 528 l 252 528 z m 252 424 l 471 424 b 663 260 593 424 663 363 b 411 107 663 153 590 107 l 252 107 z m 609 -220 l 609 -141 l 204 -141 l 204 -220 z "},"Ḅ":{"ha":867,"x_min":0,"x_max":0,"o":"m 128 0 l 467 0 b 790 260 665 0 790 97 b 589 488 790 390 711 472 l 589 494 b 738 698 683 522 738 593 b 479 926 738 838 637 926 l 128 926 z m 252 819 l 458 819 b 612 677 555 819 612 766 b 392 528 612 576 545 528 l 252 528 z m 252 424 l 471 424 b 663 260 593 424 663 363 b 411 107 663 153 590 107 l 252 107 z m 333 -169 b 407 -239 333 -211 364 -239 b 480 -169 450 -239 480 -211 b 407 -97 480 -127 450 -97 b 333 -169 364 -97 333 -127 z "},"Ḃ":{"ha":867,"x_min":0,"x_max":0,"o":"m 334 1082 b 407 1009 334 1042 366 1009 b 480 1082 448 1009 480 1042 b 407 1156 480 1123 448 1156 b 334 1082 366 1156 334 1123 z m 128 0 l 467 0 b 790 260 665 0 790 97 b 589 488 790 390 711 472 l 589 494 b 738 698 683 522 738 593 b 479 926 738 838 637 926 l 128 926 z m 252 819 l 458 819 b 612 677 555 819 612 766 b 392 528 612 576 545 528 l 252 528 z m 252 424 l 471 424 b 663 260 593 424 663 363 b 411 107 663 153 590 107 l 252 107 z "},"C":{"ha":885,"x_min":0,"x_max":0,"o":"m 217 526 b 460 834 217 719 307 834 b 675 654 577 834 663 759 l 799 654 l 799 658 b 459 945 786 825 646 945 b 92 527 228 945 92 788 l 92 393 b 459 -19 92 132 224 -19 b 799 254 644 -19 785 96 l 799 258 l 675 258 b 460 92 663 159 579 92 b 217 395 305 92 217 201 z "},"Ć":{"ha":885,"x_min":0,"x_max":0,"o":"m 408 1025 l 500 1025 l 689 1244 l 570 1244 z m 217 526 b 460 834 217 719 307 834 b 675 654 577 834 663 759 l 799 654 l 799 658 b 459 945 786 825 646 945 b 92 527 228 945 92 788 l 92 393 b 459 -19 92 132 224 -19 b 799 254 644 -19 785 96 l 799 258 l 675 258 b 460 92 663 159 579 92 b 217 395 305 92 217 201 z "},"Č":{"ha":885,"x_min":0,"x_max":0,"o":"m 228 1184 l 411 1018 l 491 1018 l 680 1184 l 564 1184 l 454 1088 l 450 1088 l 347 1184 z m 217 526 b 460 834 217 719 307 834 b 675 654 577 834 663 759 l 799 654 l 799 658 b 459 945 786 825 646 945 b 92 527 228 945 92 788 l 92 393 b 459 -19 92 132 224 -19 b 799 254 644 -19 785 96 l 799 258 l 675 258 b 460 92 663 159 579 92 b 217 395 305 92 217 201 z "},"Ĉ":{"ha":885,"x_min":0,"x_max":0,"o":"m 496 1183 l 418 1183 l 228 1017 l 344 1017 l 454 1113 l 457 1113 l 561 1017 l 680 1017 z m 217 526 b 460 834 217 719 307 834 b 675 654 577 834 663 759 l 799 654 l 799 658 b 459 945 786 825 646 945 b 92 527 228 945 92 788 l 92 393 b 459 -19 92 132 224 -19 b 799 254 644 -19 785 96 l 799 258 l 675 258 b 460 92 663 159 579 92 b 217 395 305 92 217 201 z "},"Ċ":{"ha":885,"x_min":0,"x_max":0,"o":"m 382 1082 b 456 1009 382 1042 415 1009 b 529 1082 496 1009 529 1042 b 456 1156 529 1123 496 1156 b 382 1082 415 1156 382 1123 z m 217 526 b 460 834 217 719 307 834 b 675 654 577 834 663 759 l 799 654 l 799 658 b 459 945 786 825 646 945 b 92 527 228 945 92 788 l 92 393 b 459 -19 92 132 224 -19 b 799 254 644 -19 785 96 l 799 258 l 675 258 b 460 92 663 159 579 92 b 217 395 305 92 217 201 z "},"Ç":{"ha":885,"x_min":0,"x_max":0,"o":"m 437 -330 b 603 -201 541 -330 603 -283 b 460 -92 603 -132 551 -92 l 488 -18 b 799 254 658 -7 786 104 l 799 258 l 675 258 b 460 92 663 159 579 92 b 217 395 305 92 217 201 l 217 526 b 460 834 217 719 307 834 b 675 654 577 834 663 759 l 799 654 l 799 658 b 459 945 786 825 646 945 b 92 527 228 945 92 788 l 92 393 b 404 -16 92 153 204 5 l 372 -104 l 372 -159 l 408 -159 b 507 -204 481 -159 507 -172 b 427 -256 507 -237 476 -256 b 349 -247 403 -256 366 -252 l 349 -319 b 437 -330 371 -326 406 -330 z "},"Ḉ":{"ha":885,"x_min":0,"x_max":0,"o":"m 408 1025 l 500 1025 l 689 1244 l 570 1244 z m 437 -330 b 603 -201 541 -330 603 -283 b 460 -92 603 -132 551 -92 l 488 -18 b 799 254 658 -7 786 104 l 799 258 l 675 258 b 460 92 663 159 579 92 b 217 395 305 92 217 201 l 217 526 b 460 834 217 719 307 834 b 675 654 577 834 663 759 l 799 654 l 799 658 b 459 945 786 825 646 945 b 92 527 228 945 92 788 l 92 393 b 404 -16 92 153 204 5 l 372 -104 l 372 -159 l 408 -159 b 507 -204 481 -159 507 -172 b 427 -256 507 -237 476 -256 b 349 -247 403 -256 366 -252 l 349 -319 b 437 -330 371 -326 406 -330 z "},"D":{"ha":914,"x_min":0,"x_max":0,"o":"m 128 926 l 128 0 l 429 0 b 837 463 699 0 837 161 b 429 926 837 766 699 926 z m 253 817 l 420 817 b 707 463 613 817 707 699 b 420 110 707 227 614 110 l 253 110 z "},"Ḋ":{"ha":914,"x_min":0,"x_max":0,"o":"m 349 1082 b 422 1009 349 1042 382 1009 b 496 1082 463 1009 496 1042 b 422 1156 496 1123 463 1156 b 349 1082 382 1156 349 1123 z m 128 926 l 128 0 l 429 0 b 837 463 699 0 837 161 b 429 926 837 766 699 926 z m 253 817 l 420 817 b 707 463 613 817 707 699 b 420 110 707 227 614 110 l 253 110 z "},"Ḓ":{"ha":914,"x_min":0,"x_max":0,"o":"m 128 926 l 128 0 l 429 0 b 837 463 699 0 837 161 b 429 926 837 766 699 926 z m 253 817 l 420 817 b 707 463 613 817 707 699 b 420 110 707 227 614 110 l 253 110 z m 195 -264 l 311 -264 l 420 -170 l 425 -170 l 528 -264 l 647 -264 l 464 -98 l 385 -98 z "},"Ḑ":{"ha":914,"x_min":0,"x_max":0,"o":"m 128 926 l 128 0 l 429 0 b 837 463 699 0 837 161 b 429 926 837 766 699 926 z m 253 817 l 420 817 b 707 463 613 817 707 699 b 420 110 707 227 614 110 l 253 110 z m 414 -317 l 486 -104 l 380 -104 l 324 -317 z "},"Ḏ":{"ha":914,"x_min":0,"x_max":0,"o":"m 128 926 l 128 0 l 429 0 b 837 463 699 0 837 161 b 429 926 837 766 699 926 z m 253 817 l 420 817 b 707 463 613 817 707 699 b 420 110 707 227 614 110 l 253 110 z m 625 -220 l 625 -141 l 220 -141 l 220 -220 z "},"Ď":{"ha":914,"x_min":0,"x_max":0,"o":"m 195 1184 l 378 1018 l 458 1018 l 646 1184 l 530 1184 l 422 1088 l 417 1088 l 313 1184 z m 128 926 l 128 0 l 429 0 b 837 463 699 0 837 161 b 429 926 837 766 699 926 z m 253 817 l 420 817 b 707 463 613 817 707 699 b 420 110 707 227 614 110 l 253 110 z "},"Ḍ":{"ha":914,"x_min":0,"x_max":0,"o":"m 128 926 l 128 0 l 429 0 b 837 463 699 0 837 161 b 429 926 837 766 699 926 z m 253 817 l 420 817 b 707 463 613 817 707 699 b 420 110 707 227 614 110 l 253 110 z m 349 -169 b 422 -239 349 -211 380 -239 b 496 -169 465 -239 496 -211 b 422 -97 496 -127 465 -97 b 349 -169 380 -97 349 -127 z "},"Đ":{"ha":968,"x_min":0,"x_max":0,"o":"m 482 0 b 890 463 752 0 890 161 b 482 926 890 766 753 926 l 181 926 l 181 529 l 72 529 l 72 417 l 181 417 l 181 0 z m 307 111 l 307 417 l 511 417 l 511 529 l 307 529 l 307 817 l 473 817 b 760 463 665 817 760 701 b 473 111 760 225 666 111 z "},"E":{"ha":783,"x_min":0,"x_max":0,"o":"m 688 110 l 252 110 l 252 418 l 663 418 l 663 526 l 252 526 l 252 816 l 688 816 l 688 926 l 128 926 l 128 0 l 688 0 z "},"È":{"ha":783,"x_min":0,"x_max":0,"o":"m 453 1025 l 291 1244 l 172 1244 l 361 1025 z m 688 110 l 252 110 l 252 418 l 663 418 l 663 526 l 252 526 l 252 816 l 688 816 l 688 926 l 128 926 l 128 0 l 688 0 z "},"Ȅ":{"ha":783,"x_min":0,"x_max":0,"o":"m 352 1025 l 191 1244 l 71 1244 l 260 1025 z m 579 1025 l 417 1244 l 298 1244 l 487 1025 z m 688 110 l 252 110 l 252 418 l 663 418 l 663 526 l 252 526 l 252 816 l 688 816 l 688 926 l 128 926 l 128 0 l 688 0 z "},"É":{"ha":783,"x_min":0,"x_max":0,"o":"m 357 1025 l 450 1025 l 639 1244 l 519 1244 z m 688 110 l 252 110 l 252 418 l 663 418 l 663 526 l 252 526 l 252 816 l 688 816 l 688 926 l 128 926 l 128 0 l 688 0 z "},"Ê":{"ha":783,"x_min":0,"x_max":0,"o":"m 446 1183 l 368 1183 l 177 1017 l 293 1017 l 403 1113 l 407 1113 l 511 1017 l 629 1017 z m 688 110 l 252 110 l 252 418 l 663 418 l 663 526 l 252 526 l 252 816 l 688 816 l 688 926 l 128 926 l 128 0 l 688 0 z "},"Ể":{"ha":783,"x_min":0,"x_max":0,"o":"m 501 1250 b 545 1256 515 1254 526 1256 b 596 1218 567 1256 596 1243 b 550 1179 596 1200 581 1187 l 591 1126 b 669 1221 633 1139 669 1172 b 556 1316 669 1280 621 1316 b 501 1308 537 1316 519 1313 z m 178 1019 l 294 1019 l 403 1114 l 407 1114 l 511 1019 l 629 1019 l 454 1178 l 359 1178 z m 688 110 l 252 110 l 252 418 l 663 418 l 663 526 l 252 526 l 252 816 l 688 816 l 688 926 l 128 926 l 128 0 l 688 0 z "},"Ề":{"ha":783,"x_min":0,"x_max":0,"o":"m 700 1162 l 574 1317 l 460 1317 l 614 1162 z m 178 1019 l 294 1019 l 403 1114 l 407 1114 l 511 1019 l 629 1019 l 454 1178 l 359 1178 z m 688 110 l 252 110 l 252 418 l 663 418 l 663 526 l 252 526 l 252 816 l 688 816 l 688 926 l 128 926 l 128 0 l 688 0 z "},"Ễ":{"ha":783,"x_min":0,"x_max":0,"o":"m 281 1195 b 327 1253 282 1211 291 1253 b 484 1184 378 1253 399 1184 b 606 1310 564 1184 606 1251 l 532 1310 b 483 1251 531 1286 516 1251 b 323 1321 431 1251 406 1321 b 208 1195 246 1321 208 1257 z m 180 1019 l 296 1019 l 404 1097 l 406 1097 l 508 1019 l 626 1019 l 452 1153 l 361 1153 z m 688 110 l 252 110 l 252 418 l 663 418 l 663 526 l 252 526 l 252 816 l 688 816 l 688 926 l 128 926 l 128 0 l 688 0 z "},"Ệ":{"ha":783,"x_min":0,"x_max":0,"o":"m 446 1183 l 368 1183 l 177 1017 l 293 1017 l 403 1113 l 407 1113 l 511 1017 l 629 1017 z m 688 110 l 252 110 l 252 418 l 663 418 l 663 526 l 252 526 l 252 816 l 688 816 l 688 926 l 128 926 l 128 0 l 688 0 z m 332 -169 b 405 -239 332 -211 362 -239 b 479 -169 448 -239 479 -211 b 405 -97 479 -127 448 -97 b 332 -169 362 -97 332 -127 z "},"Ế":{"ha":783,"x_min":0,"x_max":0,"o":"m 539 1162 l 625 1162 l 779 1317 l 664 1317 z m 178 1019 l 294 1019 l 403 1114 l 407 1114 l 511 1019 l 629 1019 l 454 1178 l 359 1178 z m 688 110 l 252 110 l 252 418 l 663 418 l 663 526 l 252 526 l 252 816 l 688 816 l 688 926 l 128 926 l 128 0 l 688 0 z "},"Ë":{"ha":783,"x_min":0,"x_max":0,"o":"m 523 1000 b 595 1070 564 1000 595 1031 b 523 1141 595 1109 564 1141 b 451 1070 482 1141 451 1109 b 523 1000 451 1031 482 1000 z m 286 1000 b 358 1070 328 1000 358 1031 b 286 1141 358 1109 328 1141 b 214 1070 245 1141 214 1109 b 286 1000 214 1031 245 1000 z m 688 110 l 252 110 l 252 418 l 663 418 l 663 526 l 252 526 l 252 816 l 688 816 l 688 926 l 128 926 l 128 0 l 688 0 z "},"Ẹ":{"ha":783,"x_min":0,"x_max":0,"o":"m 688 110 l 252 110 l 252 418 l 663 418 l 663 526 l 252 526 l 252 816 l 688 816 l 688 926 l 128 926 l 128 0 l 688 0 z m 332 -169 b 405 -239 332 -211 362 -239 b 479 -169 448 -239 479 -211 b 405 -97 479 -127 448 -97 b 332 -169 362 -97 332 -127 z "},"Ȇ":{"ha":783,"x_min":0,"x_max":0,"o":"m 186 1006 l 277 1006 b 405 1109 277 1065 322 1109 b 534 1006 488 1109 534 1065 l 625 1006 b 405 1187 625 1105 534 1187 b 186 1006 277 1187 186 1105 z m 688 110 l 252 110 l 252 418 l 663 418 l 663 526 l 252 526 l 252 816 l 688 816 l 688 926 l 128 926 l 128 0 l 688 0 z "},"Ẻ":{"ha":783,"x_min":0,"x_max":0,"o":"m 308 1166 b 373 1175 322 1171 347 1175 b 443 1122 412 1175 443 1155 b 378 1048 443 1095 425 1074 l 422 990 b 526 1124 484 1017 526 1061 b 381 1247 526 1202 469 1247 b 308 1235 350 1247 324 1241 z m 688 110 l 252 110 l 252 418 l 663 418 l 663 526 l 252 526 l 252 816 l 688 816 l 688 926 l 128 926 l 128 0 l 688 0 z "},"Ě":{"ha":783,"x_min":0,"x_max":0,"o":"m 178 1184 l 360 1018 l 440 1018 l 629 1184 l 513 1184 l 404 1088 l 399 1088 l 296 1184 z m 688 110 l 252 110 l 252 418 l 663 418 l 663 526 l 252 526 l 252 816 l 688 816 l 688 926 l 128 926 l 128 0 l 688 0 z "},"Ē":{"ha":783,"x_min":0,"x_max":0,"o":"m 605 1025 l 605 1100 l 205 1100 l 205 1025 z m 688 110 l 252 110 l 252 418 l 663 418 l 663 526 l 252 526 l 252 816 l 688 816 l 688 926 l 128 926 l 128 0 l 688 0 z "},"Ḕ":{"ha":783,"x_min":0,"x_max":0,"o":"m 467 1177 l 303 1310 l 170 1310 l 359 1177 z m 605 1025 l 605 1100 l 205 1100 l 205 1025 z m 688 110 l 252 110 l 252 418 l 663 418 l 663 526 l 252 526 l 252 816 l 688 816 l 688 926 l 128 926 l 128 0 l 688 0 z "},"Ḗ":{"ha":783,"x_min":0,"x_max":0,"o":"m 338 1177 l 445 1177 l 634 1310 l 501 1310 z m 605 1025 l 605 1100 l 205 1100 l 205 1025 z m 688 110 l 252 110 l 252 418 l 663 418 l 663 526 l 252 526 l 252 816 l 688 816 l 688 926 l 128 926 l 128 0 l 688 0 z "},"Ẽ":{"ha":783,"x_min":0,"x_max":0,"o":"m 488 991 b 615 1134 571 991 615 1065 l 538 1134 b 487 1063 537 1102 522 1063 b 320 1145 437 1063 407 1145 b 199 1002 239 1145 199 1074 l 275 1002 b 324 1073 277 1027 287 1073 b 488 991 375 1073 399 991 z m 688 110 l 252 110 l 252 418 l 663 418 l 663 526 l 252 526 l 252 816 l 688 816 l 688 926 l 128 926 l 128 0 l 688 0 z "},"Ḙ":{"ha":783,"x_min":0,"x_max":0,"o":"m 688 110 l 252 110 l 252 418 l 663 418 l 663 526 l 252 526 l 252 816 l 688 816 l 688 926 l 128 926 l 128 0 l 688 0 z m 178 -264 l 294 -264 l 403 -170 l 407 -170 l 511 -264 l 629 -264 l 446 -98 l 367 -98 z "},"Ĕ":{"ha":783,"x_min":0,"x_max":0,"o":"m 186 1187 b 405 1006 186 1088 277 1006 b 625 1187 534 1006 625 1088 l 534 1187 b 405 1084 534 1128 489 1084 b 277 1187 321 1084 277 1128 z m 688 110 l 252 110 l 252 418 l 663 418 l 663 526 l 252 526 l 252 816 l 688 816 l 688 926 l 128 926 l 128 0 l 688 0 z "},"Ḛ":{"ha":783,"x_min":0,"x_max":0,"o":"m 688 110 l 252 110 l 252 418 l 663 418 l 663 526 l 252 526 l 252 816 l 688 816 l 688 926 l 128 926 l 128 0 l 688 0 z m 488 -256 b 616 -112 572 -256 616 -182 l 538 -112 b 486 -183 537 -145 521 -183 b 319 -101 435 -183 406 -101 b 197 -245 238 -101 197 -172 l 275 -245 b 323 -174 277 -220 286 -174 b 488 -256 374 -174 399 -256 z "},"Ė":{"ha":783,"x_min":0,"x_max":0,"o":"m 332 1082 b 405 1009 332 1042 364 1009 b 478 1082 446 1009 478 1042 b 405 1156 478 1123 446 1156 b 332 1082 364 1156 332 1123 z m 688 110 l 252 110 l 252 418 l 663 418 l 663 526 l 252 526 l 252 816 l 688 816 l 688 926 l 128 926 l 128 0 l 688 0 z "},"Ȩ":{"ha":783,"x_min":0,"x_max":0,"o":"m 358 0 l 319 -104 l 319 -159 l 355 -159 b 454 -204 429 -159 454 -172 b 375 -256 454 -237 424 -256 b 296 -247 351 -256 313 -252 l 296 -319 b 385 -330 319 -326 354 -330 b 551 -201 489 -330 551 -283 b 408 -92 551 -132 498 -92 l 441 0 l 688 0 l 688 110 l 252 110 l 252 418 l 663 418 l 663 526 l 252 526 l 252 816 l 688 816 l 688 926 l 128 926 l 128 0 z "},"Ḝ":{"ha":783,"x_min":0,"x_max":0,"o":"m 186 1187 b 405 1006 186 1088 277 1006 b 625 1187 534 1006 625 1088 l 534 1187 b 405 1084 534 1128 489 1084 b 277 1187 321 1084 277 1128 z m 358 0 l 319 -104 l 319 -159 l 355 -159 b 454 -204 429 -159 454 -172 b 375 -256 454 -237 424 -256 b 296 -247 351 -256 313 -252 l 296 -319 b 385 -330 319 -326 354 -330 b 551 -201 489 -330 551 -283 b 408 -92 551 -132 498 -92 l 441 0 l 688 0 l 688 110 l 252 110 l 252 418 l 663 418 l 663 526 l 252 526 l 252 816 l 688 816 l 688 926 l 128 926 l 128 0 z "},"Ę":{"ha":783,"x_min":0,"x_max":0,"o":"m 688 -249 l 688 -169 b 636 -175 675 -172 653 -175 b 555 -106 587 -175 555 -151 b 688 14 557 -36 631 1 l 688 110 l 252 110 l 252 418 l 663 418 l 663 526 l 252 526 l 252 816 l 688 816 l 688 926 l 128 926 l 128 0 l 524 0 l 524 -1 b 455 -130 488 -26 455 -73 b 608 -262 455 -222 526 -262 b 688 -249 639 -262 670 -256 z "},"F":{"ha":737,"x_min":0,"x_max":0,"o":"m 253 0 l 253 397 l 644 397 l 644 506 l 253 506 l 253 815 l 680 815 l 680 926 l 128 926 l 128 0 z "},"Ḟ":{"ha":737,"x_min":0,"x_max":0,"o":"m 330 1082 b 404 1009 330 1042 363 1009 b 477 1082 445 1009 477 1042 b 404 1156 477 1123 445 1156 b 330 1082 363 1156 330 1123 z m 253 0 l 253 397 l 644 397 l 644 506 l 253 506 l 253 815 l 680 815 l 680 926 l 128 926 l 128 0 z "},"G":{"ha":902,"x_min":0,"x_max":0,"o":"m 804 673 b 465 945 781 834 651 945 b 92 528 233 945 92 783 l 92 402 b 467 -19 92 137 227 -19 b 810 294 688 -19 810 115 l 810 484 l 455 484 l 455 378 l 689 378 l 689 291 b 466 92 689 176 614 92 b 216 402 307 92 216 206 l 216 528 b 462 834 216 720 309 834 b 680 673 575 834 655 772 z "},"Ǵ":{"ha":902,"x_min":0,"x_max":0,"o":"m 416 1025 l 508 1025 l 697 1244 l 577 1244 z m 804 673 b 465 945 781 834 651 945 b 92 528 233 945 92 783 l 92 402 b 467 -19 92 137 227 -19 b 810 294 688 -19 810 115 l 810 484 l 455 484 l 455 378 l 689 378 l 689 291 b 466 92 689 176 614 92 b 216 402 307 92 216 206 l 216 528 b 462 834 216 720 309 834 b 680 673 575 834 655 772 z "},"Ǧ":{"ha":902,"x_min":0,"x_max":0,"o":"m 235 1184 l 418 1018 l 498 1018 l 687 1184 l 571 1184 l 463 1088 l 458 1088 l 354 1184 z m 804 673 b 465 945 781 834 651 945 b 92 528 233 945 92 783 l 92 402 b 467 -19 92 137 227 -19 b 810 294 688 -19 810 115 l 810 484 l 455 484 l 455 378 l 689 378 l 689 291 b 466 92 689 176 614 92 b 216 402 307 92 216 206 l 216 528 b 462 834 216 720 309 834 b 680 673 575 834 655 772 z "},"Ĝ":{"ha":902,"x_min":0,"x_max":0,"o":"m 505 1183 l 425 1183 l 235 1017 l 351 1017 l 461 1113 l 465 1113 l 568 1017 l 687 1017 z m 804 673 b 465 945 781 834 651 945 b 92 528 233 945 92 783 l 92 402 b 467 -19 92 137 227 -19 b 810 294 688 -19 810 115 l 810 484 l 455 484 l 455 378 l 689 378 l 689 291 b 466 92 689 176 614 92 b 216 402 307 92 216 206 l 216 528 b 462 834 216 720 309 834 b 680 673 575 834 655 772 z "},"Ğ":{"ha":902,"x_min":0,"x_max":0,"o":"m 243 1187 b 463 1006 243 1088 334 1006 b 682 1187 592 1006 682 1088 l 592 1187 b 463 1084 592 1128 547 1084 b 334 1187 379 1084 334 1128 z m 804 673 b 465 945 781 834 651 945 b 92 528 233 945 92 783 l 92 402 b 467 -19 92 137 227 -19 b 810 294 688 -19 810 115 l 810 484 l 455 484 l 455 378 l 689 378 l 689 291 b 466 92 689 176 614 92 b 216 402 307 92 216 206 l 216 528 b 462 834 216 720 309 834 b 680 673 575 834 655 772 z "},"Ḡ":{"ha":902,"x_min":0,"x_max":0,"o":"m 663 1025 l 663 1100 l 263 1100 l 263 1025 z m 804 673 b 465 945 781 834 651 945 b 92 528 233 945 92 783 l 92 402 b 467 -19 92 137 227 -19 b 810 294 688 -19 810 115 l 810 484 l 455 484 l 455 378 l 689 378 l 689 291 b 466 92 689 176 614 92 b 216 402 307 92 216 206 l 216 528 b 462 834 216 720 309 834 b 680 673 575 834 655 772 z "},"Ġ":{"ha":902,"x_min":0,"x_max":0,"o":"m 390 1082 b 463 1009 390 1042 422 1009 b 536 1082 504 1009 536 1042 b 463 1156 536 1123 504 1156 b 390 1082 422 1156 390 1123 z m 804 673 b 465 945 781 834 651 945 b 92 528 233 945 92 783 l 92 402 b 467 -19 92 137 227 -19 b 810 294 688 -19 810 115 l 810 484 l 455 484 l 455 378 l 689 378 l 689 291 b 466 92 689 176 614 92 b 216 402 307 92 216 206 l 216 528 b 462 834 216 720 309 834 b 680 673 575 834 655 772 z "},"Ģ":{"ha":902,"x_min":0,"x_max":0,"o":"m 804 673 b 465 945 781 834 651 945 b 92 528 233 945 92 783 l 92 402 b 467 -19 92 137 227 -19 b 810 294 688 -19 810 115 l 810 484 l 455 484 l 455 378 l 689 378 l 689 291 b 466 92 689 176 614 92 b 216 402 307 92 216 206 l 216 528 b 462 834 216 720 309 834 b 680 673 575 834 655 772 z m 454 -317 l 527 -104 l 420 -104 l 365 -317 z "},"H":{"ha":964,"x_min":0,"x_max":0,"o":"m 836 0 l 836 926 l 711 926 l 711 534 l 253 534 l 253 926 l 128 926 l 128 0 l 253 0 l 253 424 l 711 424 l 711 0 z "},"Ḧ":{"ha":964,"x_min":0,"x_max":0,"o":"m 600 1000 b 672 1070 641 1000 672 1031 b 600 1141 672 1109 641 1141 b 528 1070 559 1141 528 1109 b 600 1000 528 1031 559 1000 z m 363 1000 b 435 1070 404 1000 435 1031 b 363 1141 435 1109 404 1141 b 291 1070 322 1141 291 1109 b 363 1000 291 1031 322 1000 z m 836 0 l 836 926 l 711 926 l 711 534 l 253 534 l 253 926 l 128 926 l 128 0 l 253 0 l 253 424 l 711 424 l 711 0 z "},"Ȟ":{"ha":964,"x_min":0,"x_max":0,"o":"m 254 1184 l 437 1018 l 517 1018 l 706 1184 l 590 1184 l 481 1088 l 477 1088 l 373 1184 z m 836 0 l 836 926 l 711 926 l 711 534 l 253 534 l 253 926 l 128 926 l 128 0 l 253 0 l 253 424 l 711 424 l 711 0 z "},"Ĥ":{"ha":964,"x_min":0,"x_max":0,"o":"m 524 1183 l 444 1183 l 254 1017 l 370 1017 l 480 1113 l 484 1113 l 587 1017 l 706 1017 z m 836 0 l 836 926 l 711 926 l 711 534 l 253 534 l 253 926 l 128 926 l 128 0 l 253 0 l 253 424 l 711 424 l 711 0 z "},"Ḥ":{"ha":964,"x_min":0,"x_max":0,"o":"m 836 0 l 836 926 l 711 926 l 711 534 l 253 534 l 253 926 l 128 926 l 128 0 l 253 0 l 253 424 l 711 424 l 711 0 z m 409 -169 b 482 -239 409 -211 439 -239 b 555 -169 525 -239 555 -211 b 482 -97 555 -127 525 -97 b 409 -169 439 -97 409 -127 z "},"Ḣ":{"ha":964,"x_min":0,"x_max":0,"o":"m 409 1082 b 482 1009 409 1042 441 1009 b 555 1082 523 1009 555 1042 b 482 1156 555 1123 523 1156 b 409 1082 441 1156 409 1123 z m 836 0 l 836 926 l 711 926 l 711 534 l 253 534 l 253 926 l 128 926 l 128 0 l 253 0 l 253 424 l 711 424 l 711 0 z "},"Ḫ":{"ha":964,"x_min":0,"x_max":0,"o":"m 836 0 l 836 926 l 711 926 l 711 534 l 253 534 l 253 926 l 128 926 l 128 0 l 253 0 l 253 424 l 711 424 l 711 0 z m 686 -95 l 602 -95 b 482 -206 602 -152 564 -206 b 363 -95 400 -206 363 -152 l 273 -95 b 482 -282 273 -184 334 -282 b 686 -95 630 -282 686 -181 z "},"Ḩ":{"ha":964,"x_min":0,"x_max":0,"o":"m 170 0 l 131 -104 l 131 -159 l 174 -159 b 266 -208 239 -159 266 -174 b 186 -256 266 -239 234 -256 b 108 -247 165 -256 128 -252 l 108 -319 b 198 -330 125 -326 162 -330 b 362 -201 301 -329 362 -283 b 219 -92 362 -132 311 -92 l 253 0 l 253 424 l 711 424 l 711 0 l 836 0 l 836 926 l 711 926 l 711 534 l 253 534 l 253 926 l 128 926 l 128 0 z "},"Ħ":{"ha":964,"x_min":0,"x_max":0,"o":"m 253 405 l 711 405 l 711 0 l 836 0 l 836 679 l 911 679 l 911 770 l 836 770 l 836 926 l 711 926 l 711 770 l 253 770 l 253 926 l 128 926 l 128 770 l 54 770 l 54 679 l 128 679 l 128 0 l 253 0 z m 253 515 l 253 679 l 711 679 l 711 515 z "},"I":{"ha":381,"x_min":0,"x_max":0,"o":"m 253 0 l 253 926 l 128 926 l 128 0 z "},"İ":{"ha":381,"x_min":0,"x_max":0,"o":"m 117 1082 b 191 1009 117 1042 150 1009 b 264 1082 232 1009 264 1042 b 191 1156 264 1123 232 1156 b 117 1082 150 1156 117 1123 z m 253 0 l 253 926 l 128 926 l 128 0 z "},"Ì":{"ha":381,"x_min":0,"x_max":0,"o":"m 239 1025 l 77 1244 l -43 1244 l 146 1025 z m 253 0 l 253 926 l 128 926 l 128 0 z "},"Ȉ":{"ha":381,"x_min":0,"x_max":0,"o":"m 138 1025 l -24 1244 l -143 1244 l 46 1025 z m 364 1025 l 203 1244 l 83 1244 l 273 1025 z m 253 0 l 253 926 l 128 926 l 128 0 z "},"Í":{"ha":381,"x_min":0,"x_max":0,"o":"m 143 1025 l 235 1025 l 425 1244 l 304 1244 z m 253 0 l 253 926 l 128 926 l 128 0 z "},"Î":{"ha":381,"x_min":0,"x_max":0,"o":"m 232 1183 l 153 1183 l -37 1017 l 79 1017 l 189 1113 l 193 1113 l 296 1017 l 414 1017 z m 253 0 l 253 926 l 128 926 l 128 0 z "},"Ǐ":{"ha":381,"x_min":0,"x_max":0,"o":"m -37 1184 l 146 1018 l 226 1018 l 415 1184 l 299 1184 l 190 1088 l 185 1088 l 81 1184 z m 253 0 l 253 926 l 128 926 l 128 0 z "},"Ï":{"ha":381,"x_min":0,"x_max":0,"o":"m 309 1000 b 380 1070 349 1000 380 1031 b 309 1141 380 1109 349 1141 b 237 1070 267 1141 237 1109 b 309 1000 237 1031 267 1000 z m 72 1000 b 144 1070 113 1000 144 1031 b 72 1141 144 1109 113 1141 b 0 1070 31 1141 0 1109 b 72 1000 0 1031 31 1000 z m 253 0 l 253 926 l 128 926 l 128 0 z "},"Ḯ":{"ha":381,"x_min":0,"x_max":0,"o":"m 123 1177 l 230 1177 l 420 1310 l 287 1310 z m 309 1000 b 381 1070 350 1000 381 1031 b 309 1141 381 1109 350 1141 b 237 1070 268 1141 237 1109 b 309 1000 237 1031 268 1000 z m 73 1000 b 144 1070 113 1000 144 1031 b 73 1141 144 1109 113 1141 b 1 1070 32 1141 1 1109 b 73 1000 1 1031 32 1000 z m 253 0 l 253 926 l 128 926 l 128 0 z "},"Ĭ":{"ha":381,"x_min":0,"x_max":0,"o":"m -29 1187 b 191 1006 -29 1088 62 1006 b 410 1187 319 1006 410 1088 l 319 1187 b 191 1084 319 1128 275 1084 b 62 1187 107 1084 62 1128 z m 253 0 l 253 926 l 128 926 l 128 0 z "},"Ị":{"ha":381,"x_min":0,"x_max":0,"o":"m 253 0 l 253 926 l 128 926 l 128 0 z m 117 -169 b 191 -239 117 -211 148 -239 b 264 -169 233 -239 264 -211 b 191 -97 264 -127 233 -97 b 117 -169 148 -97 117 -127 z "},"Ȋ":{"ha":381,"x_min":0,"x_max":0,"o":"m -29 1006 l 62 1006 b 191 1109 62 1065 108 1109 b 319 1006 274 1109 319 1065 l 410 1006 b 191 1187 410 1105 319 1187 b -29 1006 62 1187 -29 1105 z m 253 0 l 253 926 l 128 926 l 128 0 z "},"Ī":{"ha":381,"x_min":0,"x_max":0,"o":"m 391 1025 l 391 1100 l -9 1100 l -9 1025 z m 253 0 l 253 926 l 128 926 l 128 0 z "},"Ḭ":{"ha":381,"x_min":0,"x_max":0,"o":"m 253 0 l 253 926 l 128 926 l 128 0 z m 273 -256 b 401 -112 357 -256 401 -182 l 323 -112 b 271 -183 322 -145 306 -183 b 104 -101 220 -183 191 -101 b -18 -245 23 -101 -18 -172 l 61 -245 b 109 -174 62 -220 71 -174 b 273 -256 159 -174 184 -256 z "},"Ỉ":{"ha":381,"x_min":0,"x_max":0,"o":"m 94 1166 b 159 1175 108 1171 132 1175 b 228 1122 197 1175 228 1155 b 163 1048 228 1095 211 1074 l 208 990 b 311 1124 270 1017 311 1061 b 167 1247 311 1202 254 1247 b 94 1235 136 1247 110 1241 z m 253 0 l 253 926 l 128 926 l 128 0 z "},"Ĩ":{"ha":381,"x_min":0,"x_max":0,"o":"m 273 991 b 400 1134 357 991 400 1065 l 324 1134 b 273 1063 323 1102 307 1063 b 106 1145 222 1063 192 1145 b -15 1002 24 1145 -15 1074 l 61 1002 b 110 1073 62 1027 72 1073 b 273 991 161 1073 184 991 z m 253 0 l 253 926 l 128 926 l 128 0 z "},"Į":{"ha":381,"x_min":0,"x_max":0,"o":"m 269 -248 l 269 -169 b 216 -175 257 -172 233 -175 b 138 -107 167 -175 138 -150 b 253 5 138 -60 176 -18 l 253 926 l 128 926 l 128 22 l 134 22 l 134 20 b 35 -130 72 -10 35 -64 b 188 -262 35 -211 90 -262 b 269 -248 220 -262 255 -256 z "},"J":{"ha":697,"x_min":0,"x_max":0,"o":"m 35 218 b 296 -19 35 80 135 -19 b 573 271 471 -19 573 86 l 573 926 l 448 926 l 448 261 b 296 94 448 153 395 94 b 157 218 217 94 159 145 z "},"Ĵ":{"ha":697,"x_min":0,"x_max":0,"o":"m 551 1183 l 472 1183 l 281 1017 l 397 1017 l 507 1113 l 511 1113 l 615 1017 l 733 1017 z m 35 218 b 296 -19 35 80 135 -19 b 573 271 471 -19 573 86 l 573 926 l 448 926 l 448 261 b 296 94 448 153 395 94 b 157 218 217 94 159 145 z "},"K":{"ha":845,"x_min":0,"x_max":0,"o":"m 802 926 l 656 926 l 258 481 l 253 481 l 253 926 l 128 926 l 128 0 l 253 0 l 253 323 l 365 446 l 662 0 l 819 0 l 458 531 z "},"Ḱ":{"ha":845,"x_min":0,"x_max":0,"o":"m 359 1025 l 452 1025 l 641 1244 l 522 1244 z m 802 926 l 656 926 l 258 481 l 253 481 l 253 926 l 128 926 l 128 0 l 253 0 l 253 323 l 365 446 l 662 0 l 819 0 l 458 531 z "},"Ǩ":{"ha":845,"x_min":0,"x_max":0,"o":"m 180 1184 l 363 1018 l 443 1018 l 631 1184 l 515 1184 l 406 1088 l 402 1088 l 298 1184 z m 802 926 l 656 926 l 258 481 l 253 481 l 253 926 l 128 926 l 128 0 l 253 0 l 253 323 l 365 446 l 662 0 l 819 0 l 458 531 z "},"Ḳ":{"ha":845,"x_min":0,"x_max":0,"o":"m 802 926 l 656 926 l 258 481 l 253 481 l 253 926 l 128 926 l 128 0 l 253 0 l 253 323 l 365 446 l 662 0 l 819 0 l 458 531 z m 349 -169 b 422 -239 349 -211 380 -239 b 496 -169 465 -239 496 -211 b 422 -97 496 -127 465 -97 b 349 -169 380 -97 349 -127 z "},"Ḵ":{"ha":845,"x_min":0,"x_max":0,"o":"m 802 926 l 656 926 l 258 481 l 253 481 l 253 926 l 128 926 l 128 0 l 253 0 l 253 323 l 365 446 l 662 0 l 819 0 l 458 531 z m 625 -220 l 625 -141 l 220 -141 l 220 -220 z "},"Ķ":{"ha":845,"x_min":0,"x_max":0,"o":"m 802 926 l 656 926 l 258 481 l 253 481 l 253 926 l 128 926 l 128 0 l 253 0 l 253 323 l 365 446 l 662 0 l 819 0 l 458 531 z m 414 -317 l 486 -104 l 379 -104 l 324 -317 z "},"L":{"ha":709,"x_min":0,"x_max":0,"o":"m 676 111 l 253 111 l 253 926 l 128 926 l 128 0 l 676 0 z "},"Ĺ":{"ha":709,"x_min":0,"x_max":0,"o":"m 142 1025 l 235 1025 l 424 1244 l 304 1244 z m 676 111 l 253 111 l 253 926 l 128 926 l 128 0 l 676 0 z "},"Ḽ":{"ha":709,"x_min":0,"x_max":0,"o":"m 676 111 l 253 111 l 253 926 l 128 926 l 128 0 l 676 0 z m 133 -264 l 249 -264 l 358 -170 l 362 -170 l 466 -264 l 585 -264 l 401 -98 l 322 -98 z "},"Ḷ":{"ha":709,"x_min":0,"x_max":0,"o":"m 676 111 l 253 111 l 253 926 l 128 926 l 128 0 l 676 0 z m 287 -169 b 360 -239 287 -211 317 -239 b 434 -169 404 -239 434 -211 b 360 -97 434 -127 404 -97 b 287 -169 317 -97 287 -127 z "},"Ḹ":{"ha":709,"x_min":0,"x_max":0,"o":"m 390 1025 l 390 1100 l -9 1100 l -9 1025 z m 676 111 l 253 111 l 253 926 l 128 926 l 128 0 l 676 0 z m 287 -169 b 360 -239 287 -211 317 -239 b 434 -169 404 -239 434 -211 b 360 -97 434 -127 404 -97 b 287 -169 317 -97 287 -127 z "},"Ḻ":{"ha":709,"x_min":0,"x_max":0,"o":"m 676 111 l 253 111 l 253 926 l 128 926 l 128 0 l 676 0 z m 563 -220 l 563 -141 l 158 -141 l 158 -220 z "},"Ļ":{"ha":709,"x_min":0,"x_max":0,"o":"m 676 111 l 253 111 l 253 926 l 128 926 l 128 0 l 676 0 z m 352 -317 l 425 -104 l 317 -104 l 262 -317 z "},"Ľ":{"ha":709,"x_min":0,"x_max":0,"o":"m 409 975 l 409 644 l 491 644 l 525 975 z m 676 111 l 253 111 l 253 926 l 128 926 l 128 0 l 676 0 z "},"Ł":{"ha":718,"x_min":0,"x_max":0,"o":"m 684 0 l 684 111 l 261 111 l 261 435 l 513 581 l 513 703 l 261 554 l 261 926 l 136 926 l 136 483 l 50 431 l 50 313 l 136 364 l 136 0 z "},"M":{"ha":1114,"x_min":0,"x_max":0,"o":"m 244 0 l 244 673 l 250 673 l 506 81 l 608 81 l 863 673 l 869 673 l 869 0 l 983 0 l 983 926 l 861 926 l 559 216 l 555 216 l 254 926 l 131 926 l 131 0 z "},"Ḿ":{"ha":1114,"x_min":0,"x_max":0,"o":"m 510 1025 l 602 1025 l 791 1244 l 671 1244 z m 244 0 l 244 673 l 250 673 l 506 81 l 608 81 l 863 673 l 869 673 l 869 0 l 983 0 l 983 926 l 861 926 l 559 216 l 555 216 l 254 926 l 131 926 l 131 0 z "},"Ṁ":{"ha":1114,"x_min":0,"x_max":0,"o":"m 484 1082 b 557 1009 484 1042 517 1009 b 631 1082 598 1009 631 1042 b 557 1156 631 1123 598 1156 b 484 1082 517 1156 484 1123 z m 244 0 l 244 673 l 250 673 l 506 81 l 608 81 l 863 673 l 869 673 l 869 0 l 983 0 l 983 926 l 861 926 l 559 216 l 555 216 l 254 926 l 131 926 l 131 0 z "},"Ṃ":{"ha":1114,"x_min":0,"x_max":0,"o":"m 244 0 l 244 673 l 250 673 l 506 81 l 608 81 l 863 673 l 869 673 l 869 0 l 983 0 l 983 926 l 861 926 l 559 216 l 555 216 l 254 926 l 131 926 l 131 0 z m 484 -169 b 557 -239 484 -211 514 -239 b 631 -169 600 -239 631 -211 b 557 -97 631 -127 600 -97 b 484 -169 514 -97 484 -127 z "},"N":{"ha":961,"x_min":0,"x_max":0,"o":"m 251 0 l 251 713 l 256 713 l 715 0 l 833 0 l 833 926 l 710 926 l 710 214 l 704 214 l 246 926 l 128 926 l 128 0 z "},"Ǹ":{"ha":961,"x_min":0,"x_max":0,"o":"m 528 1025 l 366 1244 l 247 1244 l 436 1025 z m 251 0 l 251 713 l 256 713 l 715 0 l 833 0 l 833 926 l 710 926 l 710 214 l 704 214 l 246 926 l 128 926 l 128 0 z "},"Ń":{"ha":961,"x_min":0,"x_max":0,"o":"m 433 1025 l 525 1025 l 714 1244 l 594 1244 z m 251 0 l 251 713 l 256 713 l 715 0 l 833 0 l 833 926 l 710 926 l 710 214 l 704 214 l 246 926 l 128 926 l 128 0 z "},"Ñ":{"ha":961,"x_min":0,"x_max":0,"o":"m 563 991 b 690 1134 646 991 690 1065 l 614 1134 b 562 1063 612 1102 597 1063 b 395 1145 512 1063 481 1145 b 275 1002 314 1145 275 1074 l 351 1002 b 399 1073 352 1027 361 1073 b 563 991 450 1073 474 991 z m 251 0 l 251 713 l 256 713 l 715 0 l 833 0 l 833 926 l 710 926 l 710 214 l 704 214 l 246 926 l 128 926 l 128 0 z "},"Ṇ":{"ha":961,"x_min":0,"x_max":0,"o":"m 251 0 l 251 713 l 256 713 l 715 0 l 833 0 l 833 926 l 710 926 l 710 214 l 704 214 l 246 926 l 128 926 l 128 0 z m 407 -169 b 480 -239 407 -211 437 -239 b 554 -169 523 -239 554 -211 b 480 -97 554 -127 523 -97 b 407 -169 437 -97 407 -127 z "},"Ṅ":{"ha":961,"x_min":0,"x_max":0,"o":"m 407 1082 b 480 1009 407 1042 439 1009 b 553 1082 522 1009 553 1042 b 480 1156 553 1123 522 1156 b 407 1082 439 1156 407 1123 z m 251 0 l 251 713 l 256 713 l 715 0 l 833 0 l 833 926 l 710 926 l 710 214 l 704 214 l 246 926 l 128 926 l 128 0 z "},"Ň":{"ha":961,"x_min":0,"x_max":0,"o":"m 253 1184 l 435 1018 l 515 1018 l 705 1184 l 589 1184 l 479 1088 l 475 1088 l 371 1184 z m 251 0 l 251 713 l 256 713 l 715 0 l 833 0 l 833 926 l 710 926 l 710 214 l 704 214 l 246 926 l 128 926 l 128 0 z "},"Ṋ":{"ha":961,"x_min":0,"x_max":0,"o":"m 251 0 l 251 713 l 256 713 l 715 0 l 833 0 l 833 926 l 710 926 l 710 214 l 704 214 l 246 926 l 128 926 l 128 0 z m 253 -264 l 369 -264 l 478 -170 l 482 -170 l 586 -264 l 705 -264 l 522 -98 l 442 -98 z "},"Ṉ":{"ha":961,"x_min":0,"x_max":0,"o":"m 251 0 l 251 713 l 256 713 l 715 0 l 833 0 l 833 926 l 710 926 l 710 214 l 704 214 l 246 926 l 128 926 l 128 0 z m 683 -220 l 683 -141 l 278 -141 l 278 -220 z "},"Ņ":{"ha":961,"x_min":0,"x_max":0,"o":"m 251 0 l 251 713 l 256 713 l 715 0 l 833 0 l 833 926 l 710 926 l 710 214 l 704 214 l 246 926 l 128 926 l 128 0 z m 472 -317 l 545 -104 l 437 -104 l 382 -317 z "},"O":{"ha":928,"x_min":0,"x_max":0,"o":"m 838 395 l 838 530 b 465 945 838 793 692 945 b 92 530 237 945 92 793 l 92 395 b 465 -19 92 134 237 -19 b 838 395 692 -19 838 134 z m 712 530 l 712 395 b 465 92 712 191 605 92 b 217 395 323 92 217 191 l 217 530 b 465 834 217 735 323 834 b 712 530 605 834 712 735 z "},"Ö":{"ha":928,"x_min":0,"x_max":0,"o":"m 582 1000 b 654 1070 623 1000 654 1031 b 582 1141 654 1109 623 1141 b 510 1070 541 1141 510 1109 b 582 1000 510 1031 541 1000 z m 345 1000 b 418 1070 387 1000 418 1031 b 345 1141 418 1109 387 1141 b 273 1070 304 1141 273 1109 b 345 1000 273 1031 304 1000 z m 838 395 l 838 530 b 465 945 838 793 692 945 b 92 530 237 945 92 793 l 92 395 b 465 -19 92 134 237 -19 b 838 395 692 -19 838 134 z m 712 530 l 712 395 b 465 92 712 191 605 92 b 217 395 323 92 217 191 l 217 530 b 465 834 217 735 323 834 b 712 530 605 834 712 735 z "},"Ø":{"ha":928,"x_min":0,"x_max":0,"o":"m 463 -19 b 838 391 690 -19 838 129 l 838 526 b 774 783 838 629 815 715 l 854 883 l 783 933 l 718 852 b 465 945 654 912 568 945 b 92 526 239 945 92 789 l 92 391 b 149 146 92 293 112 211 l 68 47 l 136 -9 l 205 76 b 463 -19 268 14 357 -19 z m 215 391 l 215 526 b 464 835 215 731 323 835 b 642 758 534 835 597 809 l 236 254 b 215 391 222 292 215 338 z m 464 91 b 281 170 390 91 326 117 l 688 675 b 713 526 703 634 713 585 l 713 391 b 464 91 713 186 605 91 z "},"Õ":{"ha":928,"x_min":0,"x_max":0,"o":"m 547 991 b 674 1134 630 991 674 1065 l 597 1134 b 546 1063 597 1102 581 1063 b 379 1145 496 1063 466 1145 b 258 1002 298 1145 258 1074 l 335 1002 b 383 1073 336 1027 346 1073 b 547 991 434 1073 458 991 z m 838 395 l 838 530 b 465 945 838 793 692 945 b 92 530 237 945 92 793 l 92 395 b 465 -19 92 134 237 -19 b 838 395 692 -19 838 134 z m 712 530 l 712 395 b 465 92 712 191 605 92 b 217 395 323 92 217 191 l 217 530 b 465 834 217 735 323 834 b 712 530 605 834 712 735 z "},"Ó":{"ha":928,"x_min":0,"x_max":0,"o":"m 416 1025 l 509 1025 l 698 1244 l 578 1244 z m 838 395 l 838 530 b 465 945 838 793 692 945 b 92 530 237 945 92 793 l 92 395 b 465 -19 92 134 237 -19 b 838 395 692 -19 838 134 z m 712 530 l 712 395 b 465 92 712 191 605 92 b 217 395 323 92 217 191 l 217 530 b 465 834 217 735 323 834 b 712 530 605 834 712 735 z "},"Ô":{"ha":928,"x_min":0,"x_max":0,"o":"m 505 1183 l 427 1183 l 237 1017 l 353 1017 l 462 1113 l 466 1113 l 570 1017 l 688 1017 z m 838 395 l 838 530 b 465 945 838 793 692 945 b 92 530 237 945 92 793 l 92 395 b 465 -19 92 134 237 -19 b 838 395 692 -19 838 134 z m 712 530 l 712 395 b 465 92 712 191 605 92 b 217 395 323 92 217 191 l 217 530 b 465 834 217 735 323 834 b 712 530 605 834 712 735 z "},"Ò":{"ha":928,"x_min":0,"x_max":0,"o":"m 512 1025 l 351 1244 l 231 1244 l 420 1025 z m 838 395 l 838 530 b 465 945 838 793 692 945 b 92 530 237 945 92 793 l 92 395 b 465 -19 92 134 237 -19 b 838 395 692 -19 838 134 z m 712 530 l 712 395 b 465 92 712 191 605 92 b 217 395 323 92 217 191 l 217 530 b 465 834 217 735 323 834 b 712 530 605 834 712 735 z "},"Ổ":{"ha":928,"x_min":0,"x_max":0,"o":"m 561 1250 b 604 1256 574 1254 585 1256 b 655 1218 626 1256 655 1243 b 609 1179 655 1200 640 1187 l 650 1126 b 728 1221 692 1139 728 1172 b 615 1316 728 1280 680 1316 b 561 1308 596 1316 578 1313 z m 237 1019 l 353 1019 l 462 1114 l 466 1114 l 570 1019 l 688 1019 l 513 1178 l 419 1178 z m 838 395 l 838 530 b 465 945 838 793 692 945 b 92 530 237 945 92 793 l 92 395 b 465 -19 92 134 237 -19 b 838 395 692 -19 838 134 z m 712 530 l 712 395 b 465 92 712 191 605 92 b 217 395 323 92 217 191 l 217 530 b 465 834 217 735 323 834 b 712 530 605 834 712 735 z "},"Ồ":{"ha":928,"x_min":0,"x_max":0,"o":"m 759 1162 l 634 1317 l 519 1317 l 673 1162 z m 237 1019 l 353 1019 l 462 1114 l 466 1114 l 570 1019 l 688 1019 l 513 1178 l 419 1178 z m 838 395 l 838 530 b 465 945 838 793 692 945 b 92 530 237 945 92 793 l 92 395 b 465 -19 92 134 237 -19 b 838 395 692 -19 838 134 z m 712 530 l 712 395 b 465 92 712 191 605 92 b 217 395 323 92 217 191 l 217 530 b 465 834 217 735 323 834 b 712 530 605 834 712 735 z "},"Ọ":{"ha":928,"x_min":0,"x_max":0,"o":"m 838 395 l 838 530 b 465 945 838 793 692 945 b 92 530 237 945 92 793 l 92 395 b 465 -19 92 134 237 -19 b 838 395 692 -19 838 134 z m 712 530 l 712 395 b 465 92 712 191 605 92 b 217 395 323 92 217 191 l 217 530 b 465 834 217 735 323 834 b 712 530 605 834 712 735 z m 391 -169 b 465 -239 391 -211 422 -239 b 538 -169 507 -239 538 -211 b 465 -97 538 -127 507 -97 b 391 -169 422 -97 391 -127 z "},"Ȍ":{"ha":928,"x_min":0,"x_max":0,"o":"m 412 1025 l 250 1244 l 130 1244 l 319 1025 z m 638 1025 l 476 1244 l 357 1244 l 546 1025 z m 838 395 l 838 530 b 465 945 838 793 692 945 b 92 530 237 945 92 793 l 92 395 b 465 -19 92 134 237 -19 b 838 395 692 -19 838 134 z m 712 530 l 712 395 b 465 92 712 191 605 92 b 217 395 323 92 217 191 l 217 530 b 465 834 217 735 323 834 b 712 530 605 834 712 735 z "},"Ṍ":{"ha":928,"x_min":0,"x_max":0,"o":"m 425 1177 l 520 1177 l 687 1310 l 562 1310 z m 547 991 b 674 1134 630 991 674 1065 l 597 1134 b 546 1063 597 1102 581 1063 b 379 1145 496 1063 466 1145 b 258 1002 298 1145 258 1074 l 335 1002 b 383 1073 336 1027 346 1073 b 547 991 434 1073 458 991 z m 838 395 l 838 530 b 465 945 838 793 692 945 b 92 530 237 945 92 793 l 92 395 b 465 -19 92 134 237 -19 b 838 395 692 -19 838 134 z m 712 530 l 712 395 b 465 92 712 191 605 92 b 217 395 323 92 217 191 l 217 530 b 465 834 217 735 323 834 b 712 530 605 834 712 735 z "},"Ṓ":{"ha":928,"x_min":0,"x_max":0,"o":"m 397 1177 l 504 1177 l 693 1310 l 560 1310 z m 665 1025 l 665 1100 l 264 1100 l 264 1025 z m 838 395 l 838 530 b 465 945 838 793 692 945 b 92 530 237 945 92 793 l 92 395 b 465 -19 92 134 237 -19 b 838 395 692 -19 838 134 z m 712 530 l 712 395 b 465 92 712 191 605 92 b 217 395 323 92 217 191 l 217 530 b 465 834 217 735 323 834 b 712 530 605 834 712 735 z "},"Ỗ":{"ha":928,"x_min":0,"x_max":0,"o":"m 340 1195 b 386 1253 341 1211 351 1253 b 543 1184 437 1253 458 1184 b 665 1310 623 1184 665 1251 l 591 1310 b 542 1251 591 1286 576 1251 b 382 1321 490 1251 465 1321 b 267 1195 305 1321 267 1257 z m 240 1019 l 355 1019 l 463 1097 l 466 1097 l 568 1019 l 685 1019 l 511 1153 l 420 1153 z m 838 395 l 838 530 b 465 945 838 793 692 945 b 92 530 237 945 92 793 l 92 395 b 465 -19 92 134 237 -19 b 838 395 692 -19 838 134 z m 712 530 l 712 395 b 465 92 712 191 605 92 b 217 395 323 92 217 191 l 217 530 b 465 834 217 735 323 834 b 712 530 605 834 712 735 z "},"Ȱ":{"ha":928,"x_min":0,"x_max":0,"o":"m 665 1203 l 665 1278 l 264 1278 l 264 1203 z m 392 1069 b 465 998 392 1029 424 998 b 536 1069 505 998 536 1029 b 465 1140 536 1108 505 1140 b 392 1069 424 1140 392 1108 z m 838 395 l 838 530 b 465 945 838 793 692 945 b 92 530 237 945 92 793 l 92 395 b 465 -19 92 134 237 -19 b 838 395 692 -19 838 134 z m 712 530 l 712 395 b 465 92 712 191 605 92 b 217 395 323 92 217 191 l 217 530 b 465 834 217 735 323 834 b 712 530 605 834 712 735 z "},"Ṑ":{"ha":928,"x_min":0,"x_max":0,"o":"m 526 1177 l 362 1310 l 229 1310 l 419 1177 z m 665 1025 l 665 1100 l 264 1100 l 264 1025 z m 838 395 l 838 530 b 465 945 838 793 692 945 b 92 530 237 945 92 793 l 92 395 b 465 -19 92 134 237 -19 b 838 395 692 -19 838 134 z m 712 530 l 712 395 b 465 92 712 191 605 92 b 217 395 323 92 217 191 l 217 530 b 465 834 217 735 323 834 b 712 530 605 834 712 735 z "},"Ǒ":{"ha":928,"x_min":0,"x_max":0,"o":"m 237 1184 l 419 1018 l 500 1018 l 688 1184 l 572 1184 l 463 1088 l 459 1088 l 355 1184 z m 838 395 l 838 530 b 465 945 838 793 692 945 b 92 530 237 945 92 793 l 92 395 b 465 -19 92 134 237 -19 b 838 395 692 -19 838 134 z m 712 530 l 712 395 b 465 92 712 191 605 92 b 217 395 323 92 217 191 l 217 530 b 465 834 217 735 323 834 b 712 530 605 834 712 735 z "},"Ǿ":{"ha":928,"x_min":0,"x_max":0,"o":"m 416 1025 l 509 1025 l 698 1244 l 578 1244 z m 463 -19 b 838 391 690 -19 838 129 l 838 526 b 774 783 838 629 815 715 l 854 883 l 783 933 l 718 852 b 465 945 654 912 568 945 b 92 526 239 945 92 789 l 92 391 b 149 146 92 293 112 211 l 68 47 l 136 -9 l 205 76 b 463 -19 268 14 357 -19 z m 215 391 l 215 526 b 464 835 215 731 323 835 b 642 758 534 835 597 809 l 236 254 b 215 391 222 292 215 338 z m 464 91 b 281 170 390 91 326 117 l 688 675 b 713 526 703 634 713 585 l 713 391 b 464 91 713 186 605 91 z "},"Ő":{"ha":928,"x_min":0,"x_max":0,"o":"m 291 1025 l 383 1025 l 572 1244 l 452 1244 z m 517 1025 l 610 1025 l 799 1244 l 679 1244 z m 838 395 l 838 530 b 465 945 838 793 692 945 b 92 530 237 945 92 793 l 92 395 b 465 -19 92 134 237 -19 b 838 395 692 -19 838 134 z m 712 530 l 712 395 b 465 92 712 191 605 92 b 217 395 323 92 217 191 l 217 530 b 465 834 217 735 323 834 b 712 530 605 834 712 735 z "},"Ŏ":{"ha":928,"x_min":0,"x_max":0,"o":"m 245 1187 b 465 1006 245 1088 336 1006 b 684 1187 593 1006 684 1088 l 593 1187 b 465 1084 593 1128 548 1084 b 336 1187 380 1084 336 1128 z m 838 395 l 838 530 b 465 945 838 793 692 945 b 92 530 237 945 92 793 l 92 395 b 465 -19 92 134 237 -19 b 838 395 692 -19 838 134 z m 712 530 l 712 395 b 465 92 712 191 605 92 b 217 395 323 92 217 191 l 217 530 b 465 834 217 735 323 834 b 712 530 605 834 712 735 z "},"Ȏ":{"ha":928,"x_min":0,"x_max":0,"o":"m 245 1006 l 336 1006 b 465 1109 336 1065 381 1109 b 593 1006 547 1109 593 1065 l 684 1006 b 465 1187 684 1105 593 1187 b 245 1006 336 1187 245 1105 z m 838 395 l 838 530 b 465 945 838 793 692 945 b 92 530 237 945 92 793 l 92 395 b 465 -19 92 134 237 -19 b 838 395 692 -19 838 134 z m 712 530 l 712 395 b 465 92 712 191 605 92 b 217 395 323 92 217 191 l 217 530 b 465 834 217 735 323 834 b 712 530 605 834 712 735 z "},"Ỏ":{"ha":928,"x_min":0,"x_max":0,"o":"m 367 1166 b 432 1175 382 1171 406 1175 b 502 1122 471 1175 502 1155 b 437 1048 502 1095 484 1074 l 481 990 b 585 1124 543 1017 585 1061 b 440 1247 585 1202 528 1247 b 367 1235 409 1247 383 1241 z m 838 395 l 838 530 b 465 945 838 793 692 945 b 92 530 237 945 92 793 l 92 395 b 465 -19 92 134 237 -19 b 838 395 692 -19 838 134 z m 712 530 l 712 395 b 465 92 712 191 605 92 b 217 395 323 92 217 191 l 217 530 b 465 834 217 735 323 834 b 712 530 605 834 712 735 z "},"Ȫ":{"ha":928,"x_min":0,"x_max":0,"o":"m 665 1210 l 665 1284 l 264 1284 l 264 1210 z m 583 1000 b 654 1070 623 1000 654 1031 b 583 1141 654 1109 623 1141 b 511 1070 542 1141 511 1109 b 583 1000 511 1031 542 1000 z m 346 1000 b 418 1070 387 1000 418 1031 b 346 1141 418 1109 387 1141 b 274 1070 305 1141 274 1109 b 346 1000 274 1031 305 1000 z m 838 395 l 838 530 b 465 945 838 793 692 945 b 92 530 237 945 92 793 l 92 395 b 465 -19 92 134 237 -19 b 838 395 692 -19 838 134 z m 712 530 l 712 395 b 465 92 712 191 605 92 b 217 395 323 92 217 191 l 217 530 b 465 834 217 735 323 834 b 712 530 605 834 712 735 z "},"Ȭ":{"ha":928,"x_min":0,"x_max":0,"o":"m 665 1210 l 665 1284 l 264 1284 l 264 1210 z m 547 991 b 674 1134 630 991 674 1065 l 597 1134 b 546 1063 597 1102 581 1063 b 379 1145 496 1063 466 1145 b 258 1002 298 1145 258 1074 l 335 1002 b 383 1073 336 1027 346 1073 b 547 991 434 1073 458 991 z m 838 395 l 838 530 b 465 945 838 793 692 945 b 92 530 237 945 92 793 l 92 395 b 465 -19 92 134 237 -19 b 838 395 692 -19 838 134 z m 712 530 l 712 395 b 465 92 712 191 605 92 b 217 395 323 92 217 191 l 217 530 b 465 834 217 735 323 834 b 712 530 605 834 712 735 z "},"Ȯ":{"ha":928,"x_min":0,"x_max":0,"o":"m 391 1082 b 465 1009 391 1042 423 1009 b 538 1082 505 1009 538 1042 b 465 1156 538 1123 505 1156 b 391 1082 423 1156 391 1123 z m 838 395 l 838 530 b 465 945 838 793 692 945 b 92 530 237 945 92 793 l 92 395 b 465 -19 92 134 237 -19 b 838 395 692 -19 838 134 z m 712 530 l 712 395 b 465 92 712 191 605 92 b 217 395 323 92 217 191 l 217 530 b 465 834 217 735 323 834 b 712 530 605 834 712 735 z "},"Ộ":{"ha":928,"x_min":0,"x_max":0,"o":"m 505 1183 l 427 1183 l 237 1017 l 353 1017 l 462 1113 l 466 1113 l 570 1017 l 688 1017 z m 838 395 l 838 530 b 465 945 838 793 692 945 b 92 530 237 945 92 793 l 92 395 b 465 -19 92 134 237 -19 b 838 395 692 -19 838 134 z m 712 530 l 712 395 b 465 92 712 191 605 92 b 217 395 323 92 217 191 l 217 530 b 465 834 217 735 323 834 b 712 530 605 834 712 735 z m 391 -169 b 465 -239 391 -211 422 -239 b 538 -169 507 -239 538 -211 b 465 -97 538 -127 507 -97 b 391 -169 422 -97 391 -127 z "},"Ố":{"ha":928,"x_min":0,"x_max":0,"o":"m 598 1162 l 684 1162 l 838 1317 l 724 1317 z m 237 1019 l 353 1019 l 462 1114 l 466 1114 l 570 1019 l 688 1019 l 513 1178 l 419 1178 z m 838 395 l 838 530 b 465 945 838 793 692 945 b 92 530 237 945 92 793 l 92 395 b 465 -19 92 134 237 -19 b 838 395 692 -19 838 134 z m 712 530 l 712 395 b 465 92 712 191 605 92 b 217 395 323 92 217 191 l 217 530 b 465 834 217 735 323 834 b 712 530 605 834 712 735 z "},"Ṏ":{"ha":928,"x_min":0,"x_max":0,"o":"m 583 1162 b 654 1233 624 1162 654 1194 b 583 1303 654 1272 624 1303 b 511 1233 542 1303 511 1272 b 583 1162 511 1194 542 1162 z m 346 1162 b 418 1233 387 1162 418 1194 b 346 1303 418 1272 387 1303 b 274 1233 305 1303 274 1272 b 346 1162 274 1194 305 1162 z m 547 987 b 674 1130 630 987 674 1061 l 597 1130 b 546 1059 597 1098 581 1059 b 379 1141 496 1059 466 1141 b 258 998 298 1141 258 1069 l 335 998 b 383 1069 336 1023 346 1069 b 547 987 434 1069 458 987 z m 838 395 l 838 530 b 465 945 838 793 692 945 b 92 530 237 945 92 793 l 92 395 b 465 -19 92 134 237 -19 b 838 395 692 -19 838 134 z m 712 530 l 712 395 b 465 92 712 191 605 92 b 217 395 323 92 217 191 l 217 530 b 465 834 217 735 323 834 b 712 530 605 834 712 735 z "},"Ō":{"ha":928,"x_min":0,"x_max":0,"o":"m 665 1025 l 665 1100 l 264 1100 l 264 1025 z m 838 395 l 838 530 b 465 945 838 793 692 945 b 92 530 237 945 92 793 l 92 395 b 465 -19 92 134 237 -19 b 838 395 692 -19 838 134 z m 712 530 l 712 395 b 465 92 712 191 605 92 b 217 395 323 92 217 191 l 217 530 b 465 834 217 735 323 834 b 712 530 605 834 712 735 z "},"Ǫ":{"ha":928,"x_min":0,"x_max":0,"o":"m 663 -262 b 741 -249 692 -262 718 -257 l 741 -164 b 691 -171 724 -168 705 -171 b 610 -102 644 -171 610 -143 b 716 60 610 -57 631 -29 b 838 395 794 142 838 249 l 838 530 b 465 945 838 787 697 945 b 92 530 232 945 92 787 l 92 395 b 455 -19 92 138 229 -19 b 577 14 503 -19 545 -9 l 580 7 b 509 -130 534 -28 509 -77 b 663 -262 509 -208 570 -262 z m 712 530 l 712 395 b 465 92 712 207 618 92 b 217 395 311 92 217 206 l 217 530 b 465 834 217 720 311 834 b 712 530 618 834 712 719 z "},"Ǭ":{"ha":928,"x_min":0,"x_max":0,"o":"m 665 1025 l 665 1100 l 264 1100 l 264 1025 z m 663 -262 b 741 -249 692 -262 718 -257 l 741 -164 b 691 -171 724 -168 705 -171 b 610 -102 644 -171 610 -143 b 716 60 610 -57 631 -29 b 838 395 794 142 838 249 l 838 530 b 465 945 838 787 697 945 b 92 530 232 945 92 787 l 92 395 b 455 -19 92 138 229 -19 b 577 14 503 -19 545 -9 l 580 7 b 509 -130 534 -28 509 -77 b 663 -262 509 -208 570 -262 z m 712 530 l 712 395 b 465 92 712 207 618 92 b 217 395 311 92 217 206 l 217 530 b 465 834 217 720 311 834 b 712 530 618 834 712 719 z "},"Ơ":{"ha":955,"x_min":0,"x_max":0,"o":"m 838 391 l 838 526 b 763 793 838 621 806 733 l 766 798 b 939 987 878 798 939 865 l 939 1053 l 831 1053 l 831 989 b 739 884 831 918 804 884 b 465 945 656 884 599 945 b 92 526 234 945 92 783 l 92 391 b 463 -19 92 136 229 -19 b 838 391 697 -19 838 137 z m 217 526 b 464 834 217 717 311 834 b 712 526 616 834 712 717 l 712 391 b 464 92 712 203 619 92 b 217 391 309 92 217 203 z "},"Ợ":{"ha":955,"x_min":0,"x_max":0,"o":"m 838 391 l 838 526 b 763 793 838 621 806 733 l 766 798 b 939 987 878 798 939 865 l 939 1053 l 831 1053 l 831 989 b 739 884 831 918 804 884 b 465 945 656 884 599 945 b 92 526 234 945 92 783 l 92 391 b 463 -19 92 136 229 -19 b 838 391 697 -19 838 137 z m 217 526 b 464 834 217 717 311 834 b 712 526 616 834 712 717 l 712 391 b 464 92 712 203 619 92 b 217 391 309 92 217 203 z m 391 -169 b 465 -239 391 -211 422 -239 b 538 -169 507 -239 538 -211 b 465 -97 538 -127 507 -97 b 391 -169 422 -97 391 -127 z "},"Ở":{"ha":955,"x_min":0,"x_max":0,"o":"m 367 1166 b 432 1175 382 1171 406 1175 b 502 1122 471 1175 502 1155 b 437 1048 502 1095 484 1074 l 481 990 b 585 1124 543 1017 585 1061 b 440 1247 585 1202 528 1247 b 367 1235 409 1247 383 1241 z m 838 391 l 838 526 b 763 793 838 621 806 733 l 766 798 b 939 987 878 798 939 865 l 939 1053 l 831 1053 l 831 989 b 739 884 831 918 804 884 b 465 945 656 884 599 945 b 92 526 234 945 92 783 l 92 391 b 463 -19 92 136 229 -19 b 838 391 697 -19 838 137 z m 217 526 b 464 834 217 717 311 834 b 712 526 616 834 712 717 l 712 391 b 464 92 712 203 619 92 b 217 391 309 92 217 203 z "},"Ỡ":{"ha":955,"x_min":0,"x_max":0,"o":"m 547 991 b 674 1134 630 991 674 1065 l 597 1134 b 546 1063 597 1102 581 1063 b 379 1145 496 1063 466 1145 b 258 1002 298 1145 258 1074 l 335 1002 b 383 1073 336 1027 346 1073 b 547 991 434 1073 458 991 z m 838 391 l 838 526 b 763 793 838 621 806 733 l 766 798 b 939 987 878 798 939 865 l 939 1053 l 831 1053 l 831 989 b 739 884 831 918 804 884 b 465 945 656 884 599 945 b 92 526 234 945 92 783 l 92 391 b 463 -19 92 136 229 -19 b 838 391 697 -19 838 137 z m 217 526 b 464 834 217 717 311 834 b 712 526 616 834 712 717 l 712 391 b 464 92 712 203 619 92 b 217 391 309 92 217 203 z "},"Ờ":{"ha":955,"x_min":0,"x_max":0,"o":"m 512 1025 l 351 1244 l 231 1244 l 420 1025 z m 838 391 l 838 526 b 763 793 838 621 806 733 l 766 798 b 939 987 878 798 939 865 l 939 1053 l 831 1053 l 831 989 b 739 884 831 918 804 884 b 465 945 656 884 599 945 b 92 526 234 945 92 783 l 92 391 b 463 -19 92 136 229 -19 b 838 391 697 -19 838 137 z m 217 526 b 464 834 217 717 311 834 b 712 526 616 834 712 717 l 712 391 b 464 92 712 203 619 92 b 217 391 309 92 217 203 z "},"Ớ":{"ha":955,"x_min":0,"x_max":0,"o":"m 416 1025 l 509 1025 l 698 1244 l 578 1244 z m 838 391 l 838 526 b 763 793 838 621 806 733 l 766 798 b 939 987 878 798 939 865 l 939 1053 l 831 1053 l 831 989 b 739 884 831 918 804 884 b 465 945 656 884 599 945 b 92 526 234 945 92 783 l 92 391 b 463 -19 92 136 229 -19 b 838 391 697 -19 838 137 z m 217 526 b 464 834 217 717 311 834 b 712 526 616 834 712 717 l 712 391 b 464 92 712 203 619 92 b 217 391 309 92 217 203 z "},"P":{"ha":819,"x_min":0,"x_max":0,"o":"m 469 926 l 128 926 l 128 0 l 253 0 l 253 346 l 468 346 b 765 635 648 346 765 465 b 469 926 765 806 648 926 z m 637 635 b 457 454 637 521 571 454 l 253 454 l 253 817 l 457 817 b 637 635 571 817 637 750 z "},"Ṗ":{"ha":819,"x_min":0,"x_max":0,"o":"m 318 1082 b 391 1009 318 1042 351 1009 b 465 1082 432 1009 465 1042 b 391 1156 465 1123 432 1156 b 318 1082 351 1156 318 1123 z m 469 926 l 128 926 l 128 0 l 253 0 l 253 346 l 468 346 b 765 635 648 346 765 465 b 469 926 765 806 648 926 z m 637 635 b 457 454 637 521 571 454 l 253 454 l 253 817 l 457 817 b 637 635 571 817 637 750 z "},"Ṕ":{"ha":819,"x_min":0,"x_max":0,"o":"m 344 1025 l 436 1025 l 625 1244 l 505 1244 z m 469 926 l 128 926 l 128 0 l 253 0 l 253 346 l 468 346 b 765 635 648 346 765 465 b 469 926 765 806 648 926 z m 637 635 b 457 454 637 521 571 454 l 253 454 l 253 817 l 457 817 b 637 635 571 817 637 750 z "},"Q":{"ha":930,"x_min":0,"x_max":0,"o":"m 844 -103 l 718 73 b 838 396 796 144 838 258 l 838 530 b 465 945 838 786 696 945 b 92 530 233 945 92 787 l 92 396 b 465 -19 92 140 233 -19 b 623 12 523 -19 576 -9 l 707 -103 z m 216 395 l 216 530 b 465 834 216 720 311 834 b 713 530 618 834 713 719 l 713 395 b 646 171 713 300 690 224 l 569 277 l 432 277 l 555 106 b 464 89 528 94 497 89 b 216 395 310 90 216 204 z "},"R":{"ha":862,"x_min":0,"x_max":0,"o":"m 466 926 l 128 926 l 128 0 l 252 0 l 252 366 l 471 366 l 641 0 l 783 0 l 594 390 b 766 648 697 427 766 522 b 466 926 766 817 650 926 z m 252 473 l 252 817 l 450 817 b 637 642 568 817 637 753 b 445 473 637 531 569 473 z "},"Ř":{"ha":862,"x_min":0,"x_max":0,"o":"m 179 1184 l 362 1018 l 442 1018 l 631 1184 l 515 1184 l 406 1088 l 401 1088 l 298 1184 z m 466 926 l 128 926 l 128 0 l 252 0 l 252 366 l 471 366 l 641 0 l 783 0 l 594 390 b 766 648 697 427 766 522 b 466 926 766 817 650 926 z m 252 473 l 252 817 l 450 817 b 637 642 568 817 637 753 b 445 473 637 531 569 473 z "},"Ṟ":{"ha":862,"x_min":0,"x_max":0,"o":"m 466 926 l 128 926 l 128 0 l 252 0 l 252 366 l 471 366 l 641 0 l 783 0 l 594 390 b 766 648 697 427 766 522 b 466 926 766 817 650 926 z m 252 473 l 252 817 l 450 817 b 637 642 568 817 637 753 b 445 473 637 531 569 473 z m 609 -220 l 609 -141 l 204 -141 l 204 -220 z "},"Ṝ":{"ha":862,"x_min":0,"x_max":0,"o":"m 607 1025 l 607 1100 l 207 1100 l 207 1025 z m 466 926 l 128 926 l 128 0 l 252 0 l 252 366 l 471 366 l 641 0 l 783 0 l 594 390 b 766 648 697 427 766 522 b 466 926 766 817 650 926 z m 252 473 l 252 817 l 450 817 b 637 642 568 817 637 753 b 445 473 637 531 569 473 z m 333 -169 b 407 -239 333 -211 364 -239 b 480 -169 450 -239 480 -211 b 407 -97 480 -127 450 -97 b 333 -169 364 -97 333 -127 z "},"Ȑ":{"ha":862,"x_min":0,"x_max":0,"o":"m 354 1025 l 193 1244 l 73 1244 l 262 1025 z m 581 1025 l 419 1244 l 299 1244 l 488 1025 z m 466 926 l 128 926 l 128 0 l 252 0 l 252 366 l 471 366 l 641 0 l 783 0 l 594 390 b 766 648 697 427 766 522 b 466 926 766 817 650 926 z m 252 473 l 252 817 l 450 817 b 637 642 568 817 637 753 b 445 473 637 531 569 473 z "},"Ȓ":{"ha":862,"x_min":0,"x_max":0,"o":"m 187 1006 l 278 1006 b 407 1109 278 1065 323 1109 b 536 1006 490 1109 536 1065 l 626 1006 b 407 1187 626 1105 535 1187 b 187 1006 279 1187 187 1105 z m 466 926 l 128 926 l 128 0 l 252 0 l 252 366 l 471 366 l 641 0 l 783 0 l 594 390 b 766 648 697 427 766 522 b 466 926 766 817 650 926 z m 252 473 l 252 817 l 450 817 b 637 642 568 817 637 753 b 445 473 637 531 569 473 z "},"Ŕ":{"ha":862,"x_min":0,"x_max":0,"o":"m 359 1025 l 452 1025 l 640 1244 l 521 1244 z m 466 926 l 128 926 l 128 0 l 252 0 l 252 366 l 471 366 l 641 0 l 783 0 l 594 390 b 766 648 697 427 766 522 b 466 926 766 817 650 926 z m 252 473 l 252 817 l 450 817 b 637 642 568 817 637 753 b 445 473 637 531 569 473 z "},"Ṛ":{"ha":862,"x_min":0,"x_max":0,"o":"m 466 926 l 128 926 l 128 0 l 252 0 l 252 366 l 471 366 l 641 0 l 783 0 l 594 390 b 766 648 697 427 766 522 b 466 926 766 817 650 926 z m 252 473 l 252 817 l 450 817 b 637 642 568 817 637 753 b 445 473 637 531 569 473 z m 333 -169 b 407 -239 333 -211 364 -239 b 480 -169 450 -239 480 -211 b 407 -97 480 -127 450 -97 b 333 -169 364 -97 333 -127 z "},"Ṙ":{"ha":862,"x_min":0,"x_max":0,"o":"m 334 1082 b 407 1009 334 1042 366 1009 b 480 1082 448 1009 480 1042 b 407 1156 480 1123 448 1156 b 334 1082 366 1156 334 1123 z m 466 926 l 128 926 l 128 0 l 252 0 l 252 366 l 471 366 l 641 0 l 783 0 l 594 390 b 766 648 697 427 766 522 b 466 926 766 817 650 926 z m 252 473 l 252 817 l 450 817 b 637 642 568 817 637 753 b 445 473 637 531 569 473 z "},"Ŗ":{"ha":862,"x_min":0,"x_max":0,"o":"m 466 926 l 128 926 l 128 0 l 252 0 l 252 366 l 471 366 l 641 0 l 783 0 l 594 390 b 766 648 697 427 766 522 b 466 926 766 817 650 926 z m 252 473 l 252 817 l 450 817 b 637 642 568 817 637 753 b 445 473 637 531 569 473 z m 398 -317 l 471 -104 l 363 -104 l 309 -317 z "},"S":{"ha":823,"x_min":0,"x_max":0,"o":"m 60 235 b 395 -19 73 85 199 -19 b 743 259 609 -19 743 91 b 501 512 743 393 663 469 l 343 553 b 213 685 258 574 213 620 b 408 839 213 776 291 839 b 606 705 515 839 589 787 l 731 705 b 410 947 717 846 593 947 b 86 680 221 947 86 836 b 305 435 86 556 166 471 l 466 393 b 616 250 570 367 616 323 b 408 90 616 152 537 90 b 186 235 288 90 204 146 z "},"Š":{"ha":823,"x_min":0,"x_max":0,"o":"m 182 1184 l 365 1018 l 445 1018 l 633 1184 l 517 1184 l 409 1088 l 404 1088 l 300 1184 z m 60 235 b 395 -19 73 85 199 -19 b 743 259 609 -19 743 91 b 501 512 743 393 663 469 l 343 553 b 213 685 258 574 213 620 b 408 839 213 776 291 839 b 606 705 515 839 589 787 l 731 705 b 410 947 717 846 593 947 b 86 680 221 947 86 836 b 305 435 86 556 166 471 l 466 393 b 616 250 570 367 616 323 b 408 90 616 152 537 90 b 186 235 288 90 204 146 z "},"Ş":{"ha":823,"x_min":0,"x_max":0,"o":"m 406 -330 b 572 -201 511 -330 572 -283 b 429 -92 572 -132 520 -92 l 457 -16 b 743 259 636 3 743 109 b 501 512 743 393 663 469 l 343 553 b 213 685 258 574 213 620 b 408 839 213 776 291 839 b 610 682 525 839 601 779 l 732 682 b 410 947 730 836 601 947 b 86 680 221 947 86 836 b 305 435 86 556 166 471 l 466 393 b 616 250 570 367 616 323 b 408 90 616 152 537 90 b 184 251 280 90 194 154 l 59 251 b 373 -18 64 99 183 -11 l 341 -104 l 341 -159 l 376 -159 b 476 -204 450 -159 476 -172 b 397 -256 476 -237 446 -256 b 318 -247 372 -256 334 -252 l 318 -319 b 406 -330 340 -326 376 -330 z "},"Ṡ":{"ha":823,"x_min":0,"x_max":0,"o":"m 336 1082 b 410 1009 336 1042 369 1009 b 483 1082 450 1009 483 1042 b 410 1156 483 1123 450 1156 b 336 1082 369 1156 336 1123 z m 60 235 b 395 -19 73 85 199 -19 b 743 259 609 -19 743 91 b 501 512 743 393 663 469 l 343 553 b 213 685 258 574 213 620 b 408 839 213 776 291 839 b 606 705 515 839 589 787 l 731 705 b 410 947 717 846 593 947 b 86 680 221 947 86 836 b 305 435 86 556 166 471 l 466 393 b 616 250 570 367 616 323 b 408 90 616 152 537 90 b 186 235 288 90 204 146 z "},"Ṣ":{"ha":823,"x_min":0,"x_max":0,"o":"m 60 235 b 395 -19 73 85 199 -19 b 743 259 609 -19 743 91 b 501 512 743 393 663 469 l 343 553 b 213 685 258 574 213 620 b 408 839 213 776 291 839 b 606 705 515 839 589 787 l 731 705 b 410 947 717 846 593 947 b 86 680 221 947 86 836 b 305 435 86 556 166 471 l 466 393 b 616 250 570 367 616 323 b 408 90 616 152 537 90 b 186 235 288 90 204 146 z m 322 -169 b 395 -239 322 -211 353 -239 b 469 -169 438 -239 469 -211 b 395 -97 469 -127 438 -97 b 322 -169 353 -97 322 -127 z "},"Ș":{"ha":823,"x_min":0,"x_max":0,"o":"m 60 235 b 395 -19 73 85 199 -19 b 743 259 609 -19 743 91 b 501 512 743 393 663 469 l 343 553 b 213 685 258 574 213 620 b 408 839 213 776 291 839 b 606 705 515 839 589 787 l 731 705 b 410 947 717 846 593 947 b 86 680 221 947 86 836 b 305 435 86 556 166 471 l 466 393 b 616 250 570 367 616 323 b 408 90 616 152 537 90 b 186 235 288 90 204 146 z m 387 -317 l 459 -104 l 353 -104 l 297 -317 z "},"Ṩ":{"ha":823,"x_min":0,"x_max":0,"o":"m 336 1082 b 410 1009 336 1042 369 1009 b 483 1082 450 1009 483 1042 b 410 1156 483 1123 450 1156 b 336 1082 369 1156 336 1123 z m 60 235 b 395 -19 73 85 199 -19 b 743 259 609 -19 743 91 b 501 512 743 393 663 469 l 343 553 b 213 685 258 574 213 620 b 408 839 213 776 291 839 b 606 705 515 839 589 787 l 731 705 b 410 947 717 846 593 947 b 86 680 221 947 86 836 b 305 435 86 556 166 471 l 466 393 b 616 250 570 367 616 323 b 408 90 616 152 537 90 b 186 235 288 90 204 146 z m 322 -169 b 395 -239 322 -211 353 -239 b 469 -169 438 -239 469 -211 b 395 -97 469 -127 438 -97 b 322 -169 353 -97 322 -127 z "},"Ṧ":{"ha":823,"x_min":0,"x_max":0,"o":"m 340 1251 b 410 1183 340 1213 371 1183 b 479 1251 448 1183 479 1213 b 410 1319 479 1289 448 1319 b 340 1251 371 1319 340 1289 z m 180 1159 l 351 1022 l 472 1022 l 634 1159 l 509 1159 l 412 1077 l 408 1077 l 303 1159 z m 60 235 b 395 -19 73 85 199 -19 b 743 259 609 -19 743 91 b 501 512 743 393 663 469 l 343 553 b 213 685 258 574 213 620 b 408 839 213 776 291 839 b 606 705 515 839 589 787 l 731 705 b 410 947 717 846 593 947 b 86 680 221 947 86 836 b 305 435 86 556 166 471 l 466 393 b 616 250 570 367 616 323 b 408 90 616 152 537 90 b 186 235 288 90 204 146 z "},"Ŝ":{"ha":823,"x_min":0,"x_max":0,"o":"m 451 1183 l 372 1183 l 182 1017 l 298 1017 l 408 1113 l 411 1113 l 515 1017 l 633 1017 z m 60 235 b 395 -19 73 85 199 -19 b 743 259 609 -19 743 91 b 501 512 743 393 663 469 l 343 553 b 213 685 258 574 213 620 b 408 839 213 776 291 839 b 606 705 515 839 589 787 l 731 705 b 410 947 717 846 593 947 b 86 680 221 947 86 836 b 305 435 86 556 166 471 l 466 393 b 616 250 570 367 616 323 b 408 90 616 152 537 90 b 186 235 288 90 204 146 z "},"Ṥ":{"ha":823,"x_min":0,"x_max":0,"o":"m 258 1164 b 330 1090 258 1124 290 1090 b 404 1164 372 1090 404 1124 b 330 1237 404 1204 372 1237 b 258 1164 290 1237 258 1204 z m 410 1013 l 502 1013 l 690 1232 l 571 1232 z m 60 235 b 395 -19 73 85 199 -19 b 743 259 609 -19 743 91 b 501 512 743 393 663 469 l 343 553 b 213 685 258 574 213 620 b 408 839 213 776 291 839 b 606 705 515 839 589 787 l 731 705 b 410 947 717 846 593 947 b 86 680 221 947 86 836 b 305 435 86 556 166 471 l 466 393 b 616 250 570 367 616 323 b 408 90 616 152 537 90 b 186 235 288 90 204 146 z "},"Ś":{"ha":823,"x_min":0,"x_max":0,"o":"m 362 1025 l 454 1025 l 644 1244 l 524 1244 z m 60 235 b 395 -19 73 85 199 -19 b 743 259 609 -19 743 91 b 501 512 743 393 663 469 l 343 553 b 213 685 258 574 213 620 b 408 839 213 776 291 839 b 606 705 515 839 589 787 l 731 705 b 410 947 717 846 593 947 b 86 680 221 947 86 836 b 305 435 86 556 166 471 l 466 393 b 616 250 570 367 616 323 b 408 90 616 152 537 90 b 186 235 288 90 204 146 z "},"ẞ":{"ha":985,"x_min":0,"x_max":0,"o":"m 621 -16 b 905 254 795 -16 905 88 l 905 255 b 637 517 905 395 821 478 l 632 518 l 850 756 l 850 852 b 509 941 733 909 610 941 b 128 593 271 941 128 812 l 128 0 l 253 0 l 253 578 b 508 820 253 734 347 821 b 713 776 576 819 642 805 l 494 535 l 494 435 l 574 420 b 778 255 713 395 778 342 l 778 254 b 612 105 778 163 713 105 b 411 156 545 105 482 121 l 411 25 b 621 -16 476 -1 549 -16 z "},"T":{"ha":747,"x_min":0,"x_max":0,"o":"m 436 0 l 436 815 l 715 815 l 715 926 l 32 926 l 32 815 l 311 815 l 311 0 z "},"Ṱ":{"ha":747,"x_min":0,"x_max":0,"o":"m 436 0 l 436 815 l 715 815 l 715 926 l 32 926 l 32 815 l 311 815 l 311 0 z m 145 -264 l 261 -264 l 371 -170 l 375 -170 l 479 -264 l 597 -264 l 414 -98 l 335 -98 z "},"Ṭ":{"ha":747,"x_min":0,"x_max":0,"o":"m 436 0 l 436 815 l 715 815 l 715 926 l 32 926 l 32 815 l 311 815 l 311 0 z m 300 -169 b 373 -239 300 -211 330 -239 b 447 -169 416 -239 447 -211 b 373 -97 447 -127 416 -97 b 300 -169 330 -97 300 -127 z "},"Ț":{"ha":747,"x_min":0,"x_max":0,"o":"m 436 0 l 436 815 l 715 815 l 715 926 l 32 926 l 32 815 l 311 815 l 311 0 z m 365 -317 l 437 -104 l 330 -104 l 275 -317 z "},"Ṫ":{"ha":747,"x_min":0,"x_max":0,"o":"m 300 1082 b 373 1009 300 1042 332 1009 b 446 1082 414 1009 446 1042 b 373 1156 446 1123 414 1156 b 300 1082 332 1156 300 1123 z m 436 0 l 436 815 l 715 815 l 715 926 l 32 926 l 32 815 l 311 815 l 311 0 z "},"Ţ":{"ha":747,"x_min":0,"x_max":0,"o":"m 345 0 l 294 -104 l 294 -159 l 330 -159 b 429 -204 404 -159 429 -172 b 350 -256 429 -237 398 -256 b 271 -247 325 -256 288 -252 l 271 -319 b 359 -330 293 -326 329 -330 b 525 -201 464 -330 525 -283 b 382 -92 525 -132 473 -92 l 428 0 l 436 0 l 436 815 l 715 815 l 715 926 l 32 926 l 32 815 l 311 815 l 311 0 z "},"Ṯ":{"ha":747,"x_min":0,"x_max":0,"o":"m 436 0 l 436 815 l 715 815 l 715 926 l 32 926 l 32 815 l 311 815 l 311 0 z m 576 -220 l 576 -141 l 171 -141 l 171 -220 z "},"Ť":{"ha":747,"x_min":0,"x_max":0,"o":"m 145 1184 l 328 1018 l 408 1018 l 597 1184 l 481 1184 l 372 1088 l 368 1088 l 264 1184 z m 436 0 l 436 815 l 715 815 l 715 926 l 32 926 l 32 815 l 311 815 l 311 0 z "},"Ŧ":{"ha":747,"x_min":0,"x_max":0,"o":"m 593 435 l 593 527 l 436 527 l 436 815 l 715 815 l 715 926 l 32 926 l 32 815 l 311 815 l 311 527 l 154 527 l 154 435 l 311 435 l 311 0 l 436 0 l 436 435 z "},"U":{"ha":941,"x_min":0,"x_max":0,"o":"m 471 92 b 242 323 331 92 242 180 l 242 926 l 117 926 l 117 319 b 471 -19 117 117 258 -19 b 824 319 683 -19 824 117 l 824 926 l 699 926 l 699 323 b 471 92 699 180 610 92 z "},"Ù":{"ha":941,"x_min":0,"x_max":0,"o":"m 518 1025 l 357 1244 l 237 1244 l 426 1025 z m 471 92 b 242 323 331 92 242 180 l 242 926 l 117 926 l 117 319 b 471 -19 117 117 258 -19 b 824 319 683 -19 824 117 l 824 926 l 699 926 l 699 323 b 471 92 699 180 610 92 z "},"Ȕ":{"ha":941,"x_min":0,"x_max":0,"o":"m 418 1025 l 256 1244 l 136 1244 l 326 1025 z m 644 1025 l 483 1244 l 363 1244 l 552 1025 z m 471 92 b 242 323 331 92 242 180 l 242 926 l 117 926 l 117 319 b 471 -19 117 117 258 -19 b 824 319 683 -19 824 117 l 824 926 l 699 926 l 699 323 b 471 92 699 180 610 92 z "},"Ú":{"ha":941,"x_min":0,"x_max":0,"o":"m 422 1025 l 515 1025 l 704 1244 l 585 1244 z m 471 92 b 242 323 331 92 242 180 l 242 926 l 117 926 l 117 319 b 471 -19 117 117 258 -19 b 824 319 683 -19 824 117 l 824 926 l 699 926 l 699 323 b 471 92 699 180 610 92 z "},"Ű":{"ha":941,"x_min":0,"x_max":0,"o":"m 297 1025 l 389 1025 l 578 1244 l 458 1244 z m 524 1025 l 616 1025 l 805 1244 l 685 1244 z m 471 92 b 242 323 331 92 242 180 l 242 926 l 117 926 l 117 319 b 471 -19 117 117 258 -19 b 824 319 683 -19 824 117 l 824 926 l 699 926 l 699 323 b 471 92 699 180 610 92 z "},"Û":{"ha":941,"x_min":0,"x_max":0,"o":"m 511 1183 l 433 1183 l 243 1017 l 359 1017 l 468 1113 l 472 1113 l 576 1017 l 694 1017 z m 471 92 b 242 323 331 92 242 180 l 242 926 l 117 926 l 117 319 b 471 -19 117 117 258 -19 b 824 319 683 -19 824 117 l 824 926 l 699 926 l 699 323 b 471 92 699 180 610 92 z "},"Ǔ":{"ha":941,"x_min":0,"x_max":0,"o":"m 243 1184 l 426 1018 l 506 1018 l 694 1184 l 578 1184 l 469 1088 l 465 1088 l 361 1184 z m 471 92 b 242 323 331 92 242 180 l 242 926 l 117 926 l 117 319 b 471 -19 117 117 258 -19 b 824 319 683 -19 824 117 l 824 926 l 699 926 l 699 323 b 471 92 699 180 610 92 z "},"Ṷ":{"ha":941,"x_min":0,"x_max":0,"o":"m 471 92 b 242 323 331 92 242 180 l 242 926 l 117 926 l 117 319 b 471 -19 117 117 258 -19 b 824 319 683 -19 824 117 l 824 926 l 699 926 l 699 323 b 471 92 699 180 610 92 z m 243 -264 l 359 -264 l 468 -170 l 472 -170 l 576 -264 l 694 -264 l 511 -98 l 433 -98 z "},"Ü":{"ha":941,"x_min":0,"x_max":0,"o":"m 588 1000 b 661 1070 629 1000 661 1031 b 588 1141 661 1109 629 1141 b 516 1070 547 1141 516 1109 b 588 1000 516 1031 547 1000 z m 351 1000 b 424 1070 393 1000 424 1031 b 351 1141 424 1109 393 1141 b 279 1070 311 1141 279 1109 b 351 1000 279 1031 311 1000 z m 471 92 b 242 323 331 92 242 180 l 242 926 l 117 926 l 117 319 b 471 -19 117 117 258 -19 b 824 319 683 -19 824 117 l 824 926 l 699 926 l 699 323 b 471 92 699 180 610 92 z "},"Ǜ":{"ha":941,"x_min":0,"x_max":0,"o":"m 538 1177 l 374 1310 l 241 1310 l 431 1177 z m 589 1000 b 661 1070 630 1000 661 1031 b 589 1141 661 1109 630 1141 b 517 1070 548 1141 517 1109 b 589 1000 517 1031 548 1000 z m 352 1000 b 425 1070 393 1000 425 1031 b 352 1141 425 1109 393 1141 b 280 1070 311 1141 280 1109 b 352 1000 280 1031 311 1000 z m 471 92 b 242 323 331 92 242 180 l 242 926 l 117 926 l 117 319 b 471 -19 117 117 258 -19 b 824 319 683 -19 824 117 l 824 926 l 699 926 l 699 323 b 471 92 699 180 610 92 z "},"Ǘ":{"ha":941,"x_min":0,"x_max":0,"o":"m 403 1177 l 510 1177 l 699 1310 l 566 1310 z m 589 1000 b 661 1070 630 1000 661 1031 b 589 1141 661 1109 630 1141 b 517 1070 548 1141 517 1109 b 589 1000 517 1031 548 1000 z m 352 1000 b 425 1070 393 1000 425 1031 b 352 1141 425 1109 393 1141 b 280 1070 311 1141 280 1109 b 352 1000 280 1031 311 1000 z m 471 92 b 242 323 331 92 242 180 l 242 926 l 117 926 l 117 319 b 471 -19 117 117 258 -19 b 824 319 683 -19 824 117 l 824 926 l 699 926 l 699 323 b 471 92 699 180 610 92 z "},"Ǖ":{"ha":941,"x_min":0,"x_max":0,"o":"m 671 1210 l 671 1284 l 271 1284 l 271 1210 z m 589 1000 b 661 1070 630 1000 661 1031 b 589 1141 661 1109 630 1141 b 517 1070 548 1141 517 1109 b 589 1000 517 1031 548 1000 z m 352 1000 b 425 1070 393 1000 425 1031 b 352 1141 425 1109 393 1141 b 280 1070 311 1141 280 1109 b 352 1000 280 1031 311 1000 z m 471 92 b 242 323 331 92 242 180 l 242 926 l 117 926 l 117 319 b 471 -19 117 117 258 -19 b 824 319 683 -19 824 117 l 824 926 l 699 926 l 699 323 b 471 92 699 180 610 92 z "},"Ǚ":{"ha":941,"x_min":0,"x_max":0,"o":"m 247 1319 l 423 1184 l 515 1184 l 698 1319 l 580 1319 l 473 1241 l 469 1241 l 367 1319 z m 353 1000 b 425 1070 393 1000 425 1031 b 353 1141 425 1109 393 1141 b 282 1070 313 1141 282 1109 b 353 1000 282 1031 313 1000 z m 588 1000 b 659 1070 627 1000 659 1031 b 588 1141 659 1109 627 1141 b 517 1070 548 1141 517 1109 b 588 1000 517 1031 548 1000 z m 471 92 b 242 323 331 92 242 180 l 242 926 l 117 926 l 117 319 b 471 -19 117 117 258 -19 b 824 319 683 -19 824 117 l 824 926 l 699 926 l 699 323 b 471 92 699 180 610 92 z "},"Ṳ":{"ha":941,"x_min":0,"x_max":0,"o":"m 471 92 b 242 323 331 92 242 180 l 242 926 l 117 926 l 117 319 b 471 -19 117 117 258 -19 b 824 319 683 -19 824 117 l 824 926 l 699 926 l 699 323 b 471 92 699 180 610 92 z m 595 -273 b 671 -201 637 -273 671 -243 b 595 -129 671 -160 637 -129 b 520 -201 553 -129 520 -160 b 595 -273 520 -243 553 -273 z m 346 -273 b 421 -201 388 -273 421 -243 b 346 -129 421 -160 388 -129 b 271 -201 304 -129 271 -160 b 346 -273 271 -243 304 -273 z "},"Ṵ":{"ha":941,"x_min":0,"x_max":0,"o":"m 471 92 b 242 323 331 92 242 180 l 242 926 l 117 926 l 117 319 b 471 -19 117 117 258 -19 b 824 319 683 -19 824 117 l 824 926 l 699 926 l 699 323 b 471 92 699 180 610 92 z m 553 -256 b 682 -112 637 -256 682 -182 l 604 -112 b 551 -183 602 -145 586 -183 b 385 -101 500 -183 471 -101 b 262 -245 303 -101 262 -172 l 341 -245 b 389 -174 342 -220 351 -174 b 553 -256 439 -174 465 -256 z "},"Ủ":{"ha":941,"x_min":0,"x_max":0,"o":"m 373 1166 b 438 1175 388 1171 412 1175 b 508 1122 477 1175 508 1155 b 443 1048 508 1095 490 1074 l 487 990 b 591 1124 550 1017 591 1061 b 446 1247 591 1202 534 1247 b 373 1235 415 1247 389 1241 z m 471 92 b 242 323 331 92 242 180 l 242 926 l 117 926 l 117 319 b 471 -19 117 117 258 -19 b 824 319 683 -19 824 117 l 824 926 l 699 926 l 699 323 b 471 92 699 180 610 92 z "},"Ŭ":{"ha":941,"x_min":0,"x_max":0,"o":"m 251 1187 b 471 1006 251 1088 342 1006 b 690 1187 600 1006 690 1088 l 599 1187 b 471 1084 599 1128 555 1084 b 342 1187 387 1084 342 1128 z m 471 92 b 242 323 331 92 242 180 l 242 926 l 117 926 l 117 319 b 471 -19 117 117 258 -19 b 824 319 683 -19 824 117 l 824 926 l 699 926 l 699 323 b 471 92 699 180 610 92 z "},"Ȗ":{"ha":941,"x_min":0,"x_max":0,"o":"m 251 1006 l 342 1006 b 471 1109 342 1065 387 1109 b 599 1006 554 1109 599 1065 l 690 1006 b 471 1187 690 1105 599 1187 b 251 1006 342 1187 251 1105 z m 471 92 b 242 323 331 92 242 180 l 242 926 l 117 926 l 117 319 b 471 -19 117 117 258 -19 b 824 319 683 -19 824 117 l 824 926 l 699 926 l 699 323 b 471 92 699 180 610 92 z "},"Ṹ":{"ha":941,"x_min":0,"x_max":0,"o":"m 431 1177 l 526 1177 l 693 1310 l 568 1310 z m 553 991 b 680 1134 636 991 680 1065 l 604 1134 b 552 1063 603 1102 587 1063 b 385 1145 502 1063 472 1145 b 264 1002 304 1145 264 1074 l 341 1002 b 390 1073 342 1027 352 1073 b 553 991 440 1073 465 991 z m 471 92 b 242 323 331 92 242 180 l 242 926 l 117 926 l 117 319 b 471 -19 117 117 258 -19 b 824 319 683 -19 824 117 l 824 926 l 699 926 l 699 323 b 471 92 699 180 610 92 z "},"Ụ":{"ha":941,"x_min":0,"x_max":0,"o":"m 471 92 b 242 323 331 92 242 180 l 242 926 l 117 926 l 117 319 b 471 -19 117 117 258 -19 b 824 319 683 -19 824 117 l 824 926 l 699 926 l 699 323 b 471 92 699 180 610 92 z m 397 -169 b 471 -239 397 -211 428 -239 b 544 -169 513 -239 544 -211 b 471 -97 544 -127 513 -97 b 397 -169 428 -97 397 -127 z "},"Ũ":{"ha":941,"x_min":0,"x_max":0,"o":"m 553 991 b 680 1134 636 991 680 1065 l 604 1134 b 552 1063 603 1102 587 1063 b 385 1145 502 1063 472 1145 b 264 1002 304 1145 264 1074 l 341 1002 b 390 1073 342 1027 352 1073 b 553 991 440 1073 465 991 z m 471 92 b 242 323 331 92 242 180 l 242 926 l 117 926 l 117 319 b 471 -19 117 117 258 -19 b 824 319 683 -19 824 117 l 824 926 l 699 926 l 699 323 b 471 92 699 180 610 92 z "},"Ū":{"ha":941,"x_min":0,"x_max":0,"o":"m 671 1025 l 671 1100 l 271 1100 l 271 1025 z m 471 92 b 242 323 331 92 242 180 l 242 926 l 117 926 l 117 319 b 471 -19 117 117 258 -19 b 824 319 683 -19 824 117 l 824 926 l 699 926 l 699 323 b 471 92 699 180 610 92 z "},"Ṻ":{"ha":941,"x_min":0,"x_max":0,"o":"m 589 1162 b 661 1233 630 1162 661 1194 b 589 1303 661 1272 630 1303 b 517 1233 548 1303 517 1272 b 589 1162 517 1194 548 1162 z m 352 1162 b 425 1233 393 1162 425 1194 b 352 1303 425 1272 393 1303 b 280 1233 311 1303 280 1272 b 352 1162 280 1194 311 1162 z m 671 1023 l 671 1097 l 271 1097 l 271 1023 z m 471 92 b 242 323 331 92 242 180 l 242 926 l 117 926 l 117 319 b 471 -19 117 117 258 -19 b 824 319 683 -19 824 117 l 824 926 l 699 926 l 699 323 b 471 92 699 180 610 92 z "},"Ů":{"ha":941,"x_min":0,"x_max":0,"o":"m 471 1006 b 601 1134 543 1006 601 1061 b 471 1261 601 1206 543 1261 b 340 1134 398 1261 340 1206 b 471 1006 340 1061 398 1006 z m 402 1133 b 471 1202 402 1172 432 1202 b 538 1133 509 1202 538 1172 b 471 1064 538 1095 509 1064 b 402 1133 432 1064 402 1095 z m 471 92 b 242 323 331 92 242 180 l 242 926 l 117 926 l 117 319 b 471 -19 117 117 258 -19 b 824 319 683 -19 824 117 l 824 926 l 699 926 l 699 323 b 471 92 699 180 610 92 z "},"Ų":{"ha":941,"x_min":0,"x_max":0,"o":"m 671 -262 b 749 -249 707 -262 739 -253 l 749 -164 b 698 -171 731 -170 711 -171 b 618 -98 654 -171 618 -147 b 722 54 618 -30 680 7 b 824 319 775 111 824 186 l 824 926 l 699 926 l 699 323 b 471 92 699 180 610 92 b 242 323 331 92 242 180 l 242 926 l 117 926 l 117 319 b 455 -19 117 117 243 -19 b 584 12 509 -19 557 -3 l 587 6 b 517 -125 533 -35 517 -82 b 671 -262 517 -222 593 -262 z "},"Ư":{"ha":999,"x_min":0,"x_max":0,"o":"m 471 -19 b 824 319 683 -19 824 117 l 824 838 l 852 838 b 1021 1027 959 838 1021 907 l 1021 1099 l 914 1099 l 914 1030 b 825 926 914 958 886 926 l 699 926 l 699 323 b 471 92 699 180 610 92 b 242 323 331 92 242 180 l 242 926 l 117 926 l 117 319 b 471 -19 117 117 258 -19 z "},"Ừ":{"ha":999,"x_min":0,"x_max":0,"o":"m 518 1025 l 357 1244 l 237 1244 l 426 1025 z m 471 -19 b 824 319 683 -19 824 117 l 824 838 l 852 838 b 1021 1027 959 838 1021 907 l 1021 1099 l 914 1099 l 914 1030 b 825 926 914 958 886 926 l 699 926 l 699 323 b 471 92 699 180 610 92 b 242 323 331 92 242 180 l 242 926 l 117 926 l 117 319 b 471 -19 117 117 258 -19 z "},"Ứ":{"ha":999,"x_min":0,"x_max":0,"o":"m 422 1025 l 515 1025 l 704 1244 l 585 1244 z m 471 -19 b 824 319 683 -19 824 117 l 824 838 l 852 838 b 1021 1027 959 838 1021 907 l 1021 1099 l 914 1099 l 914 1030 b 825 926 914 958 886 926 l 699 926 l 699 323 b 471 92 699 180 610 92 b 242 323 331 92 242 180 l 242 926 l 117 926 l 117 319 b 471 -19 117 117 258 -19 z "},"Ự":{"ha":999,"x_min":0,"x_max":0,"o":"m 471 -19 b 824 319 683 -19 824 117 l 824 838 l 852 838 b 1021 1027 959 838 1021 907 l 1021 1099 l 914 1099 l 914 1030 b 825 926 914 958 886 926 l 699 926 l 699 323 b 471 92 699 180 610 92 b 242 323 331 92 242 180 l 242 926 l 117 926 l 117 319 b 471 -19 117 117 258 -19 z m 397 -169 b 471 -239 397 -211 428 -239 b 544 -169 513 -239 544 -211 b 471 -97 544 -127 513 -97 b 397 -169 428 -97 397 -127 z "},"Ử":{"ha":999,"x_min":0,"x_max":0,"o":"m 373 1166 b 438 1175 388 1171 412 1175 b 508 1122 477 1175 508 1155 b 443 1048 508 1095 490 1074 l 487 990 b 591 1124 550 1017 591 1061 b 446 1247 591 1202 534 1247 b 373 1235 415 1247 389 1241 z m 471 -19 b 824 319 683 -19 824 117 l 824 838 l 852 838 b 1021 1027 959 838 1021 907 l 1021 1099 l 914 1099 l 914 1030 b 825 926 914 958 886 926 l 699 926 l 699 323 b 471 92 699 180 610 92 b 242 323 331 92 242 180 l 242 926 l 117 926 l 117 319 b 471 -19 117 117 258 -19 z "},"Ữ":{"ha":999,"x_min":0,"x_max":0,"o":"m 553 991 b 680 1134 636 991 680 1065 l 604 1134 b 552 1063 603 1102 587 1063 b 385 1145 502 1063 472 1145 b 264 1002 304 1145 264 1074 l 341 1002 b 390 1073 342 1027 352 1073 b 553 991 440 1073 465 991 z m 471 -19 b 824 319 683 -19 824 117 l 824 838 l 852 838 b 1021 1027 959 838 1021 907 l 1021 1099 l 914 1099 l 914 1030 b 825 926 914 958 886 926 l 699 926 l 699 323 b 471 92 699 180 610 92 b 242 323 331 92 242 180 l 242 926 l 117 926 l 117 319 b 471 -19 117 117 258 -19 z "},"V":{"ha":852,"x_min":0,"x_max":0,"o":"m 361 0 l 492 0 l 823 926 l 682 926 l 431 146 l 424 146 l 172 926 l 29 926 z "},"Ṽ":{"ha":852,"x_min":0,"x_max":0,"o":"m 508 991 b 635 1134 592 991 635 1065 l 559 1134 b 507 1063 558 1102 542 1063 b 340 1145 457 1063 427 1145 b 220 1002 259 1145 220 1074 l 296 1002 b 345 1073 298 1027 307 1073 b 508 991 395 1073 420 991 z m 361 0 l 492 0 l 823 926 l 682 926 l 431 146 l 424 146 l 172 926 l 29 926 z "},"Ṿ":{"ha":852,"x_min":0,"x_max":0,"o":"m 361 0 l 492 0 l 823 926 l 682 926 l 431 146 l 424 146 l 172 926 l 29 926 z m 352 -169 b 426 -239 352 -211 383 -239 b 499 -169 469 -239 499 -211 b 426 -97 499 -127 469 -97 b 352 -169 383 -97 352 -127 z "},"W":{"ha":1176,"x_min":0,"x_max":0,"o":"m 393 0 l 585 724 l 591 724 l 783 0 l 895 0 l 1149 926 l 1006 926 l 838 190 l 831 190 l 649 926 l 527 926 l 346 190 l 339 190 l 171 926 l 27 926 l 281 0 z "},"Ẁ":{"ha":1176,"x_min":0,"x_max":0,"o":"m 636 1025 l 474 1244 l 355 1244 l 544 1025 z m 393 0 l 585 724 l 591 724 l 783 0 l 895 0 l 1149 926 l 1006 926 l 838 190 l 831 190 l 649 926 l 527 926 l 346 190 l 339 190 l 171 926 l 27 926 l 281 0 z "},"Ẃ":{"ha":1176,"x_min":0,"x_max":0,"o":"m 541 1025 l 633 1025 l 822 1244 l 703 1244 z m 393 0 l 585 724 l 591 724 l 783 0 l 895 0 l 1149 926 l 1006 926 l 838 190 l 831 190 l 649 926 l 527 926 l 346 190 l 339 190 l 171 926 l 27 926 l 281 0 z "},"Ẇ":{"ha":1176,"x_min":0,"x_max":0,"o":"m 515 1082 b 589 1009 515 1042 547 1009 b 662 1082 629 1009 662 1042 b 589 1156 662 1123 629 1156 b 515 1082 547 1156 515 1123 z m 393 0 l 585 724 l 591 724 l 783 0 l 895 0 l 1149 926 l 1006 926 l 838 190 l 831 190 l 649 926 l 527 926 l 346 190 l 339 190 l 171 926 l 27 926 l 281 0 z "},"Ẉ":{"ha":1176,"x_min":0,"x_max":0,"o":"m 393 0 l 585 724 l 591 724 l 783 0 l 895 0 l 1149 926 l 1006 926 l 838 190 l 831 190 l 649 926 l 527 926 l 346 190 l 339 190 l 171 926 l 27 926 l 281 0 z m 515 -169 b 588 -239 515 -211 545 -239 b 662 -169 631 -239 662 -211 b 588 -97 662 -127 631 -97 b 515 -169 545 -97 515 -127 z "},"Ẅ":{"ha":1176,"x_min":0,"x_max":0,"o":"m 706 1000 b 778 1070 747 1000 778 1031 b 706 1141 778 1109 747 1141 b 634 1070 665 1141 634 1109 b 706 1000 634 1031 665 1000 z m 469 1000 b 542 1070 511 1000 542 1031 b 469 1141 542 1109 511 1141 b 397 1070 429 1141 397 1109 b 469 1000 397 1031 429 1000 z m 393 0 l 585 724 l 591 724 l 783 0 l 895 0 l 1149 926 l 1006 926 l 838 190 l 831 190 l 649 926 l 527 926 l 346 190 l 339 190 l 171 926 l 27 926 l 281 0 z "},"Ŵ":{"ha":1176,"x_min":0,"x_max":0,"o":"m 629 1183 l 551 1183 l 361 1017 l 477 1017 l 586 1113 l 590 1113 l 694 1017 l 812 1017 z m 393 0 l 585 724 l 591 724 l 783 0 l 895 0 l 1149 926 l 1006 926 l 838 190 l 831 190 l 649 926 l 527 926 l 346 190 l 339 190 l 171 926 l 27 926 l 281 0 z "},"X":{"ha":803,"x_min":0,"x_max":0,"o":"m 782 926 l 639 926 l 412 562 l 405 562 l 176 926 l 26 926 l 323 467 l 22 0 l 163 0 l 392 362 l 399 362 l 626 0 l 776 0 l 476 458 z "},"Ẋ":{"ha":803,"x_min":0,"x_max":0,"o":"m 328 1082 b 401 1009 328 1042 361 1009 b 475 1082 442 1009 475 1042 b 401 1156 475 1123 442 1156 b 328 1082 361 1156 328 1123 z m 782 926 l 639 926 l 412 562 l 405 562 l 176 926 l 26 926 l 323 467 l 22 0 l 163 0 l 392 362 l 399 362 l 626 0 l 776 0 l 476 458 z "},"Ẍ":{"ha":803,"x_min":0,"x_max":0,"o":"m 519 1000 b 591 1070 560 1000 591 1031 b 519 1141 591 1109 560 1141 b 447 1070 478 1141 447 1109 b 519 1000 447 1031 478 1000 z m 283 1000 b 355 1070 323 1000 355 1031 b 283 1141 355 1109 323 1141 b 210 1070 241 1141 210 1109 b 283 1000 210 1031 241 1000 z m 782 926 l 639 926 l 412 562 l 405 562 l 176 926 l 26 926 l 323 467 l 22 0 l 163 0 l 392 362 l 399 362 l 626 0 l 776 0 l 476 458 z "},"Y":{"ha":779,"x_min":0,"x_max":0,"o":"m 452 0 l 452 395 l 761 926 l 621 926 l 393 517 l 387 517 l 159 926 l 18 926 l 327 394 l 327 0 z "},"Ỳ":{"ha":779,"x_min":0,"x_max":0,"o":"m 437 1025 l 275 1244 l 156 1244 l 345 1025 z m 452 0 l 452 395 l 761 926 l 621 926 l 393 517 l 387 517 l 159 926 l 18 926 l 327 394 l 327 0 z "},"Ý":{"ha":779,"x_min":0,"x_max":0,"o":"m 342 1025 l 434 1025 l 623 1244 l 503 1244 z m 452 0 l 452 395 l 761 926 l 621 926 l 393 517 l 387 517 l 159 926 l 18 926 l 327 394 l 327 0 z "},"Ẏ":{"ha":779,"x_min":0,"x_max":0,"o":"m 316 1082 b 389 1009 316 1042 349 1009 b 463 1082 430 1009 463 1042 b 389 1156 463 1123 430 1156 b 316 1082 349 1156 316 1123 z m 452 0 l 452 395 l 761 926 l 621 926 l 393 517 l 387 517 l 159 926 l 18 926 l 327 394 l 327 0 z "},"Ỵ":{"ha":779,"x_min":0,"x_max":0,"o":"m 452 0 l 452 395 l 761 926 l 621 926 l 393 517 l 387 517 l 159 926 l 18 926 l 327 394 l 327 0 z m 315 -169 b 389 -239 315 -211 347 -239 b 463 -169 432 -239 463 -211 b 389 -97 463 -127 432 -97 b 315 -169 347 -97 315 -127 z "},"Ÿ":{"ha":779,"x_min":0,"x_max":0,"o":"m 507 1000 b 579 1070 548 1000 579 1031 b 507 1141 579 1109 548 1141 b 435 1070 466 1141 435 1109 b 507 1000 435 1031 466 1000 z m 271 1000 b 342 1070 311 1000 342 1031 b 271 1141 342 1109 311 1141 b 199 1070 229 1141 199 1109 b 271 1000 199 1031 229 1000 z m 452 0 l 452 395 l 761 926 l 621 926 l 393 517 l 387 517 l 159 926 l 18 926 l 327 394 l 327 0 z "},"Ỹ":{"ha":779,"x_min":0,"x_max":0,"o":"m 471 991 b 599 1134 555 991 599 1065 l 523 1134 b 471 1063 522 1102 506 1063 b 304 1145 420 1063 391 1145 b 184 1002 222 1145 184 1074 l 260 1002 b 309 1073 261 1027 271 1073 b 471 991 359 1073 383 991 z m 452 0 l 452 395 l 761 926 l 621 926 l 393 517 l 387 517 l 159 926 l 18 926 l 327 394 l 327 0 z "},"Ŷ":{"ha":779,"x_min":0,"x_max":0,"o":"m 431 1183 l 351 1183 l 161 1017 l 277 1017 l 387 1113 l 391 1113 l 495 1017 l 613 1017 z m 452 0 l 452 395 l 761 926 l 621 926 l 393 517 l 387 517 l 159 926 l 18 926 l 327 394 l 327 0 z "},"Ȳ":{"ha":779,"x_min":0,"x_max":0,"o":"m 589 1025 l 589 1100 l 189 1100 l 189 1025 z m 452 0 l 452 395 l 761 926 l 621 926 l 393 517 l 387 517 l 159 926 l 18 926 l 327 394 l 327 0 z "},"Ỷ":{"ha":779,"x_min":0,"x_max":0,"o":"m 292 1166 b 357 1175 307 1171 331 1175 b 427 1122 396 1175 427 1155 b 361 1048 427 1095 410 1074 l 406 990 b 510 1124 469 1017 510 1061 b 366 1247 510 1202 453 1247 b 292 1235 334 1247 309 1241 z m 452 0 l 452 395 l 761 926 l 621 926 l 393 517 l 387 517 l 159 926 l 18 926 l 327 394 l 327 0 z "},"Z":{"ha":816,"x_min":0,"x_max":0,"o":"m 75 0 l 731 0 l 731 110 l 232 110 l 232 117 l 720 840 l 720 926 l 92 926 l 92 816 l 565 816 l 565 809 l 75 86 z "},"Ź":{"ha":816,"x_min":0,"x_max":0,"o":"m 360 1025 l 453 1025 l 642 1244 l 522 1244 z m 75 0 l 731 0 l 731 110 l 232 110 l 232 117 l 720 840 l 720 926 l 92 926 l 92 816 l 565 816 l 565 809 l 75 86 z "},"Ž":{"ha":816,"x_min":0,"x_max":0,"o":"m 180 1184 l 363 1018 l 444 1018 l 632 1184 l 516 1184 l 407 1088 l 403 1088 l 298 1184 z m 75 0 l 731 0 l 731 110 l 232 110 l 232 117 l 720 840 l 720 926 l 92 926 l 92 816 l 565 816 l 565 809 l 75 86 z "},"Ẑ":{"ha":816,"x_min":0,"x_max":0,"o":"m 449 1183 l 370 1183 l 180 1017 l 296 1017 l 406 1113 l 410 1113 l 513 1017 l 632 1017 z m 75 0 l 731 0 l 731 110 l 232 110 l 232 117 l 720 840 l 720 926 l 92 926 l 92 816 l 565 816 l 565 809 l 75 86 z "},"Ẕ":{"ha":816,"x_min":0,"x_max":0,"o":"m 75 0 l 731 0 l 731 110 l 232 110 l 232 117 l 720 840 l 720 926 l 92 926 l 92 816 l 565 816 l 565 809 l 75 86 z m 610 -220 l 610 -141 l 205 -141 l 205 -220 z "},"Ẓ":{"ha":816,"x_min":0,"x_max":0,"o":"m 75 0 l 731 0 l 731 110 l 232 110 l 232 117 l 720 840 l 720 926 l 92 926 l 92 816 l 565 816 l 565 809 l 75 86 z m 334 -169 b 408 -239 334 -211 365 -239 b 481 -169 450 -239 481 -211 b 408 -97 481 -127 450 -97 b 334 -169 365 -97 334 -127 z "},"Ż":{"ha":816,"x_min":0,"x_max":0,"o":"m 335 1082 b 408 1009 335 1042 367 1009 b 481 1082 449 1009 481 1042 b 408 1156 481 1123 449 1156 b 335 1082 367 1156 335 1123 z m 75 0 l 731 0 l 731 110 l 232 110 l 232 117 l 720 840 l 720 926 l 92 926 l 92 816 l 565 816 l 565 809 l 75 86 z "},"Æ":{"ha":1294,"x_min":0,"x_max":0,"o":"m 645 273 l 645 0 l 1198 0 l 1198 110 l 769 110 l 769 418 l 1174 418 l 1174 526 l 769 526 l 769 816 l 1198 816 l 1198 926 l 526 926 l 27 0 l 168 0 l 316 273 z m 596 816 l 645 816 l 645 373 l 367 373 z "},"Ǣ":{"ha":1294,"x_min":0,"x_max":0,"o":"m 1126 1025 l 1126 1100 l 726 1100 l 726 1025 z m 645 273 l 645 0 l 1198 0 l 1198 110 l 769 110 l 769 418 l 1174 418 l 1174 526 l 769 526 l 769 816 l 1198 816 l 1198 926 l 526 926 l 27 0 l 168 0 l 316 273 z m 596 816 l 645 816 l 645 373 l 367 373 z "},"Ǽ":{"ha":1294,"x_min":0,"x_max":0,"o":"m 879 1025 l 971 1025 l 1160 1244 l 1040 1244 z m 645 273 l 645 0 l 1198 0 l 1198 110 l 769 110 l 769 418 l 1174 418 l 1174 526 l 769 526 l 769 816 l 1198 816 l 1198 926 l 526 926 l 27 0 l 168 0 l 316 273 z m 596 816 l 645 816 l 645 373 l 367 373 z "},"Œ":{"ha":1362,"x_min":0,"x_max":0,"o":"m 457 -19 b 710 98 567 -19 662 25 l 719 98 l 719 0 l 1267 0 l 1267 110 l 838 110 l 838 418 l 1242 418 l 1242 526 l 838 526 l 838 816 l 1267 816 l 1267 926 l 719 926 l 719 831 l 709 831 b 459 945 664 903 572 945 b 92 526 234 945 92 785 l 92 391 b 457 -19 92 136 228 -19 z m 218 526 b 465 834 218 717 313 834 b 715 539 622 834 715 725 l 715 382 b 465 91 715 197 623 91 b 218 391 311 91 218 203 z "},"Ð":{"ha":968,"x_min":0,"x_max":0,"o":"m 482 0 b 890 463 752 0 890 161 b 482 926 890 766 753 926 l 181 926 l 181 529 l 72 529 l 72 417 l 181 417 l 181 0 z m 307 111 l 307 417 l 511 417 l 511 529 l 307 529 l 307 817 l 473 817 b 760 463 665 817 760 701 b 473 111 760 225 666 111 z "},"Þ":{"ha":817,"x_min":0,"x_max":0,"o":"m 753 485 b 456 749 753 648 645 749 l 253 749 l 253 926 l 128 926 l 128 0 l 253 0 l 253 220 l 456 220 b 753 485 644 220 753 321 z m 625 485 b 445 328 625 380 565 328 l 253 328 l 253 641 l 445 641 b 625 485 565 641 625 589 z "},"Α":{"ha":854,"x_min":0,"x_max":0,"o":"m 164 0 l 255 274 l 596 274 l 687 0 l 819 0 l 492 926 l 362 926 l 35 0 z m 428 783 l 564 374 l 288 374 l 423 783 z "},"Β":{"ha":867,"x_min":0,"x_max":0,"o":"m 128 0 l 467 0 b 790 260 665 0 790 97 b 589 488 790 390 711 472 l 589 494 b 738 698 683 522 738 593 b 479 926 738 838 637 926 l 128 926 z m 252 819 l 458 819 b 612 677 555 819 612 766 b 392 528 612 576 545 528 l 252 528 z m 252 424 l 471 424 b 663 260 593 424 663 363 b 411 107 663 153 590 107 l 252 107 z "},"Γ":{"ha":724,"x_min":0,"x_max":0,"o":"m 253 0 l 253 815 l 666 815 l 666 926 l 128 926 l 128 0 z "},"Δ":{"ha":866,"x_min":0,"x_max":0,"o":"m 812 77 l 498 926 l 368 926 l 54 77 l 54 0 l 812 0 z m 433 776 l 673 100 l 186 100 l 427 776 z "},"∆":{"ha":866,"x_min":0,"x_max":0,"o":"m 812 77 l 498 926 l 368 926 l 54 77 l 54 0 l 812 0 z m 433 776 l 673 100 l 186 100 l 427 776 z "},"Ε":{"ha":827,"x_min":0,"x_max":0,"o":"m 688 110 l 252 110 l 252 418 l 663 418 l 663 526 l 252 526 l 252 816 l 688 816 l 688 926 l 128 926 l 128 0 l 688 0 z "},"Ζ":{"ha":816,"x_min":0,"x_max":0,"o":"m 75 0 l 731 0 l 731 110 l 232 110 l 232 117 l 720 840 l 720 926 l 92 926 l 92 816 l 565 816 l 565 809 l 75 86 z "},"Η":{"ha":964,"x_min":0,"x_max":0,"o":"m 836 0 l 836 926 l 711 926 l 711 534 l 253 534 l 253 926 l 128 926 l 128 0 l 253 0 l 253 424 l 711 424 l 711 0 z "},"Θ":{"ha":947,"x_min":0,"x_max":0,"o":"m 92 391 b 472 -19 92 127 233 -19 b 856 391 711 -19 856 127 l 856 526 b 474 945 856 790 713 945 b 92 526 236 945 92 790 z m 216 527 b 473 833 216 730 319 833 b 731 527 628 833 731 730 l 731 391 b 473 92 731 186 628 92 b 216 391 319 92 216 186 z m 646 410 l 646 519 l 302 519 l 302 410 z "},"Ι":{"ha":382,"x_min":0,"x_max":0,"o":"m 253 0 l 253 926 l 128 926 l 128 0 z "},"Κ":{"ha":845,"x_min":0,"x_max":0,"o":"m 802 926 l 656 926 l 258 481 l 253 481 l 253 926 l 128 926 l 128 0 l 253 0 l 253 323 l 365 446 l 662 0 l 819 0 l 458 531 z "},"Λ":{"ha":827,"x_min":0,"x_max":0,"o":"m 659 0 l 793 0 l 479 926 l 349 926 l 35 0 l 161 0 l 408 766 l 414 766 z "},"Μ":{"ha":1114,"x_min":0,"x_max":0,"o":"m 244 0 l 244 673 l 250 673 l 506 81 l 608 81 l 863 673 l 869 673 l 869 0 l 983 0 l 983 926 l 861 926 l 559 216 l 555 216 l 254 926 l 131 926 l 131 0 z "},"Ν":{"ha":961,"x_min":0,"x_max":0,"o":"m 251 0 l 251 713 l 256 713 l 715 0 l 833 0 l 833 926 l 710 926 l 710 214 l 704 214 l 246 926 l 128 926 l 128 0 z "},"Ξ":{"ha":816,"x_min":0,"x_max":0,"o":"m 96 812 l 720 812 l 720 926 l 96 926 z m 154 415 l 662 415 l 662 526 l 154 526 z m 96 0 l 720 0 l 720 113 l 96 113 z "},"Ο":{"ha":928,"x_min":0,"x_max":0,"o":"m 838 395 l 838 530 b 465 945 838 793 692 945 b 92 530 237 945 92 793 l 92 395 b 465 -19 92 134 237 -19 b 838 395 692 -19 838 134 z m 712 530 l 712 395 b 465 92 712 191 605 92 b 217 395 323 92 217 191 l 217 530 b 465 834 217 735 323 834 b 712 530 605 834 712 735 z "},"Π":{"ha":951,"x_min":0,"x_max":0,"o":"m 253 816 l 698 816 l 698 0 l 823 0 l 823 926 l 128 926 l 128 0 l 253 0 z "},"Ρ":{"ha":819,"x_min":0,"x_max":0,"o":"m 469 926 l 128 926 l 128 0 l 253 0 l 253 346 l 468 346 b 765 635 648 346 765 465 b 469 926 765 806 648 926 z m 637 635 b 457 454 637 521 571 454 l 253 454 l 253 817 l 457 817 b 637 635 571 817 637 750 z "},"Σ":{"ha":798,"x_min":0,"x_max":0,"o":"m 713 0 l 713 110 l 234 110 l 234 117 l 478 461 l 478 479 l 242 809 l 242 816 l 709 816 l 709 926 l 80 926 l 80 840 l 345 465 l 75 84 l 75 0 z "},"Τ":{"ha":747,"x_min":0,"x_max":0,"o":"m 436 0 l 436 815 l 715 815 l 715 926 l 32 926 l 32 815 l 311 815 l 311 0 z "},"Υ":{"ha":779,"x_min":0,"x_max":0,"o":"m 452 0 l 452 395 l 761 926 l 621 926 l 393 517 l 387 517 l 159 926 l 18 926 l 327 394 l 327 0 z "},"Φ":{"ha":1084,"x_min":0,"x_max":0,"o":"m 602 -42 l 602 37 b 1000 431 848 43 1000 201 l 1000 488 b 602 882 1000 715 851 876 l 602 964 l 483 964 l 483 882 b 85 488 233 876 85 715 l 85 431 b 483 37 85 201 236 43 l 483 -42 z m 484 143 b 206 437 320 149 206 250 l 206 480 b 484 776 206 665 315 770 z m 601 143 l 601 776 b 878 480 769 770 878 665 l 878 437 b 601 143 878 250 764 149 z "},"Χ":{"ha":804,"x_min":0,"x_max":0,"o":"m 782 926 l 639 926 l 412 562 l 405 562 l 176 926 l 26 926 l 323 467 l 22 0 l 163 0 l 392 362 l 399 362 l 626 0 l 776 0 l 476 458 z "},"Ψ":{"ha":1034,"x_min":0,"x_max":0,"o":"m 456 0 l 578 0 l 578 212 b 917 537 788 220 917 314 l 917 926 l 794 926 l 794 540 b 578 321 794 380 723 326 l 578 926 l 456 926 l 456 321 b 240 540 311 326 240 381 l 240 926 l 117 926 l 117 537 b 456 212 117 315 245 220 z "},"Ω":{"ha":968,"x_min":0,"x_max":0,"o":"m 552 0 l 870 0 l 870 111 l 708 111 l 708 119 b 860 461 792 170 860 301 l 860 529 b 484 945 860 803 705 945 b 108 529 264 945 108 803 l 108 461 b 260 119 108 302 174 172 l 260 111 l 98 111 l 98 0 l 416 0 l 416 123 b 233 460 314 155 233 301 l 233 528 b 484 834 233 736 341 834 b 734 528 624 834 734 740 l 734 460 b 552 123 734 297 650 154 z "},"Ω":{"ha":968,"x_min":0,"x_max":0,"o":"m 552 0 l 870 0 l 870 111 l 708 111 l 708 119 b 860 461 792 170 860 301 l 860 529 b 484 945 860 803 705 945 b 108 529 264 945 108 803 l 108 461 b 260 119 108 302 174 172 l 260 111 l 98 111 l 98 0 l 416 0 l 416 123 b 233 460 314 155 233 301 l 233 528 b 484 834 233 736 341 834 b 734 528 624 834 734 740 l 734 460 b 552 123 734 297 650 154 z "},"Ά":{"ha":872,"x_min":0,"x_max":0,"o":"m 182 0 l 274 274 l 615 274 l 706 0 l 838 0 l 511 926 l 380 926 l 54 0 z m 58 682 l 149 682 l 252 926 l 131 926 z m 447 783 l 583 374 l 306 374 l 441 783 z "},"Έ":{"ha":981,"x_min":0,"x_max":0,"o":"m 886 110 l 450 110 l 450 418 l 861 418 l 861 526 l 450 526 l 450 816 l 886 816 l 886 926 l 326 926 l 326 0 l 886 0 z m 41 682 l 133 682 l 235 926 l 114 926 z "},"Ή":{"ha":1162,"x_min":0,"x_max":0,"o":"m 1034 0 l 1034 926 l 909 926 l 909 534 l 451 534 l 451 926 l 326 926 l 326 0 l 451 0 l 451 424 l 909 424 l 909 0 z m 41 682 l 133 682 l 235 926 l 114 926 z "},"Ί":{"ha":579,"x_min":0,"x_max":0,"o":"m 451 0 l 451 926 l 326 926 l 326 0 z m 41 682 l 133 682 l 235 926 l 114 926 z "},"Ϊ":{"ha":381,"x_min":0,"x_max":0,"o":"m 309 1000 b 380 1070 349 1000 380 1031 b 309 1141 380 1109 349 1141 b 237 1070 267 1141 237 1109 b 309 1000 237 1031 267 1000 z m 72 1000 b 144 1070 113 1000 144 1031 b 72 1141 144 1109 113 1141 b 0 1070 31 1141 0 1109 b 72 1000 0 1031 31 1000 z m 253 0 l 253 926 l 128 926 l 128 0 z "},"Ό":{"ha":1063,"x_min":0,"x_max":0,"o":"m 971 395 l 971 530 b 598 945 971 793 825 945 b 225 530 371 945 225 793 l 225 395 b 598 -19 225 134 371 -19 b 971 395 825 -19 971 134 z m 41 682 l 133 682 l 235 926 l 114 926 z m 846 530 l 846 395 b 598 92 846 191 739 92 b 351 395 457 92 351 191 l 351 530 b 598 834 351 735 457 834 b 846 530 739 834 846 735 z "},"Ύ":{"ha":1046,"x_min":0,"x_max":0,"o":"m 720 0 l 720 395 l 1029 926 l 888 926 l 661 517 l 654 517 l 427 926 l 286 926 l 595 394 l 595 0 z m 41 682 l 133 682 l 235 926 l 114 926 z "},"Ϋ":{"ha":779,"x_min":0,"x_max":0,"o":"m 507 1000 b 579 1070 548 1000 579 1031 b 507 1141 579 1109 548 1141 b 435 1070 466 1141 435 1109 b 507 1000 435 1031 466 1000 z m 271 1000 b 342 1070 311 1000 342 1031 b 271 1141 342 1109 311 1141 b 199 1070 229 1141 199 1109 b 271 1000 199 1031 229 1000 z m 452 0 l 452 395 l 761 926 l 621 926 l 393 517 l 387 517 l 159 926 l 18 926 l 327 394 l 327 0 z "},"Ώ":{"ha":1100,"x_min":0,"x_max":0,"o":"m 685 0 l 1003 0 l 1003 111 l 841 111 l 841 119 b 993 461 924 170 993 301 l 993 529 b 617 945 993 803 838 945 b 240 529 396 945 240 803 l 240 461 b 392 119 240 302 307 172 l 392 111 l 230 111 l 230 0 l 548 0 l 548 123 b 366 460 447 155 366 301 l 366 528 b 617 834 366 736 473 834 b 867 528 756 834 867 740 l 867 460 b 685 123 867 297 783 154 z m 41 682 l 133 682 l 235 926 l 114 926 z "},"А":{"ha":867,"x_min":0,"x_max":0,"o":"m 171 0 l 262 274 l 603 274 l 694 0 l 825 0 l 498 926 l 369 926 l 41 0 z m 435 783 l 571 374 l 294 374 l 430 783 z "},"Ӑ":{"ha":867,"x_min":0,"x_max":0,"o":"m 212 1186 b 432 1001 212 1074 298 1001 b 651 1186 565 1001 651 1074 l 559 1186 b 432 1072 559 1116 510 1072 b 304 1186 354 1072 304 1116 z m 171 0 l 262 274 l 603 274 l 694 0 l 825 0 l 498 926 l 369 926 l 41 0 z m 435 783 l 571 374 l 294 374 l 430 783 z "},"Ӓ":{"ha":867,"x_min":0,"x_max":0,"o":"m 551 1000 b 624 1070 593 1000 624 1031 b 551 1141 624 1109 593 1141 b 479 1070 511 1141 479 1109 b 551 1000 479 1031 511 1000 z m 315 1000 b 387 1070 356 1000 387 1031 b 315 1141 387 1109 356 1141 b 243 1070 274 1141 243 1109 b 315 1000 243 1031 274 1000 z m 171 0 l 262 274 l 603 274 l 694 0 l 825 0 l 498 926 l 369 926 l 41 0 z m 435 783 l 571 374 l 294 374 l 430 783 z "},"Б":{"ha":842,"x_min":0,"x_max":0,"o":"m 766 282 b 469 559 766 448 648 559 l 260 559 l 260 815 l 693 815 l 693 926 l 135 926 l 135 0 l 469 0 b 766 282 648 0 766 115 z m 260 109 l 260 452 l 459 452 b 637 280 572 452 637 389 b 459 109 637 172 572 109 z "},"В":{"ha":881,"x_min":0,"x_max":0,"o":"m 135 0 l 474 0 b 797 260 672 0 797 97 b 595 488 797 390 718 472 l 595 494 b 745 698 690 522 745 593 b 486 926 745 838 644 926 l 135 926 z m 259 819 l 465 819 b 619 677 562 819 619 766 b 399 528 619 576 551 528 l 259 528 z m 259 424 l 477 424 b 669 260 600 424 669 363 b 418 107 669 153 597 107 l 259 107 z "},"Г":{"ha":739,"x_min":0,"x_max":0,"o":"m 260 0 l 260 815 l 686 815 l 686 926 l 135 926 l 135 0 z "},"Ѓ":{"ha":739,"x_min":0,"x_max":0,"o":"m 355 1025 l 447 1025 l 636 1244 l 516 1244 z m 260 0 l 260 815 l 686 815 l 686 926 l 135 926 l 135 0 z "},"Ґ":{"ha":739,"x_min":0,"x_max":0,"o":"m 260 0 l 260 815 l 686 815 l 686 1120 l 572 1120 l 572 926 l 135 926 l 135 0 z "},"Ӷ":{"ha":739,"x_min":0,"x_max":0,"o":"m 267 -194 l 380 -194 l 380 110 l 260 110 l 260 815 l 686 815 l 686 926 l 135 926 l 135 0 l 267 0 z "},"Ғ":{"ha":799,"x_min":0,"x_max":0,"o":"m 319 1 l 319 420 l 533 420 l 533 527 l 319 527 l 319 816 l 745 816 l 745 926 l 195 926 l 195 527 l 85 527 l 85 420 l 195 420 l 195 1 z "},"Ӻ":{"ha":799,"x_min":0,"x_max":0,"o":"m 547 420 l 547 526 l 319 526 l 319 815 l 745 815 l 745 926 l 195 926 l 195 526 l 99 526 l 99 420 l 195 420 l 195 -13 b 96 -148 195 -105 170 -148 b 52 -144 80 -148 62 -146 l 52 -248 b 120 -254 62 -250 97 -254 b 319 -21 245 -254 319 -185 l 319 420 z "},"Д":{"ha":971,"x_min":0,"x_max":0,"o":"m 145 -194 l 145 0 l 818 0 l 818 -194 l 931 -194 l 931 110 l 810 110 l 810 926 l 218 926 l 210 621 b 109 110 202 295 196 170 l 32 110 l 32 -194 z m 686 110 l 255 110 l 255 115 b 331 609 317 196 322 359 l 338 816 l 686 816 z "},"Е":{"ha":796,"x_min":0,"x_max":0,"o":"m 694 110 l 259 110 l 259 418 l 670 418 l 670 526 l 259 526 l 259 816 l 694 816 l 694 926 l 135 926 l 135 0 l 694 0 z "},"Ё":{"ha":796,"x_min":0,"x_max":0,"o":"m 530 1000 b 602 1070 570 1000 602 1031 b 530 1141 602 1109 570 1141 b 458 1070 489 1141 458 1109 b 530 1000 458 1031 489 1000 z m 293 1000 b 365 1070 334 1000 365 1031 b 293 1141 365 1109 334 1141 b 221 1070 252 1141 221 1109 b 293 1000 221 1031 252 1000 z m 694 110 l 259 110 l 259 418 l 670 418 l 670 526 l 259 526 l 259 816 l 694 816 l 694 926 l 135 926 l 135 0 l 694 0 z "},"Ӗ":{"ha":796,"x_min":0,"x_max":0,"o":"m 202 1186 b 421 1001 202 1074 288 1001 b 640 1186 555 1001 640 1074 l 549 1186 b 421 1072 549 1116 499 1072 b 294 1186 343 1072 294 1116 z m 694 110 l 259 110 l 259 418 l 670 418 l 670 526 l 259 526 l 259 816 l 694 816 l 694 926 l 135 926 l 135 0 l 694 0 z "},"Ѐ":{"ha":796,"x_min":0,"x_max":0,"o":"m 460 1025 l 298 1244 l 178 1244 l 368 1025 z m 694 110 l 259 110 l 259 418 l 670 418 l 670 526 l 259 526 l 259 816 l 694 816 l 694 926 l 135 926 l 135 0 l 694 0 z "},"Ж":{"ha":1251,"x_min":0,"x_max":0,"o":"m 564 532 l 510 532 l 187 926 l 33 926 l 401 481 l 26 0 l 181 0 l 511 425 l 564 425 l 564 0 l 687 0 l 687 425 l 740 425 l 1069 0 l 1226 0 l 849 484 l 1215 926 l 1063 926 l 741 532 l 687 532 l 687 926 l 564 926 z "},"Ӂ":{"ha":1251,"x_min":0,"x_max":0,"o":"m 408 1187 b 628 1006 408 1088 499 1006 b 847 1187 757 1006 847 1088 l 756 1187 b 628 1084 756 1128 712 1084 b 499 1187 544 1084 499 1128 z m 564 532 l 510 532 l 187 926 l 33 926 l 401 481 l 26 0 l 181 0 l 511 425 l 564 425 l 564 0 l 687 0 l 687 425 l 740 425 l 1069 0 l 1226 0 l 849 484 l 1215 926 l 1063 926 l 741 532 l 687 532 l 687 926 l 564 926 z "},"Ӝ":{"ha":1251,"x_min":0,"x_max":0,"o":"m 745 1000 b 817 1070 786 1000 817 1031 b 745 1141 817 1109 786 1141 b 673 1070 705 1141 673 1109 b 745 1000 673 1031 705 1000 z m 509 1000 b 581 1070 550 1000 581 1031 b 509 1141 581 1109 550 1141 b 437 1070 468 1141 437 1109 b 509 1000 437 1031 468 1000 z m 564 532 l 510 532 l 187 926 l 33 926 l 401 481 l 26 0 l 181 0 l 511 425 l 564 425 l 564 0 l 687 0 l 687 425 l 740 425 l 1069 0 l 1226 0 l 849 484 l 1215 926 l 1063 926 l 741 532 l 687 532 l 687 926 l 564 926 z "},"Җ":{"ha":1291,"x_min":0,"x_max":0,"o":"m 564 532 l 510 532 l 187 926 l 33 926 l 401 481 l 26 0 l 181 0 l 511 425 l 564 425 l 564 0 l 687 0 l 687 425 l 740 425 l 1069 0 l 1179 0 l 1179 -194 l 1292 -194 l 1292 110 l 1140 110 l 849 484 l 1215 926 l 1063 926 l 741 532 l 687 532 l 687 926 l 564 926 z "},"З":{"ha":830,"x_min":0,"x_max":0,"o":"m 289 425 l 406 425 b 620 258 539 425 620 368 b 412 86 620 151 541 86 b 196 233 287 86 205 151 l 79 233 b 410 -20 86 90 210 -20 b 746 258 612 -20 746 91 b 535 481 746 380 657 468 l 535 488 b 715 699 640 506 715 583 b 412 945 715 834 606 945 b 99 696 207 945 103 823 l 218 696 b 411 840 224 773 296 840 b 589 688 514 840 589 779 b 406 530 589 589 515 530 l 289 530 z "},"Ӟ":{"ha":830,"x_min":0,"x_max":0,"o":"m 536 1000 b 609 1070 578 1000 609 1031 b 536 1141 609 1109 578 1141 b 465 1070 496 1141 465 1109 b 536 1000 465 1031 496 1000 z m 300 1000 b 372 1070 341 1000 372 1031 b 300 1141 372 1109 341 1141 b 228 1070 259 1141 228 1109 b 300 1000 228 1031 259 1000 z m 289 425 l 406 425 b 620 258 539 425 620 368 b 412 86 620 151 541 86 b 196 233 287 86 205 151 l 79 233 b 410 -20 86 90 210 -20 b 746 258 612 -20 746 91 b 535 481 746 380 657 468 l 535 488 b 715 699 640 506 715 583 b 412 945 715 834 606 945 b 99 696 207 945 103 823 l 218 696 b 411 840 224 773 296 840 b 589 688 514 840 589 779 b 406 530 589 589 515 530 l 289 530 z "},"Ҙ":{"ha":830,"x_min":0,"x_max":0,"o":"m 289 425 l 406 425 b 620 258 539 425 620 368 b 412 86 620 151 541 86 b 196 233 287 86 205 151 l 79 233 b 360 -18 85 102 189 -1 l 360 -194 l 473 -194 l 473 -16 b 746 258 640 5 746 109 b 535 481 746 380 657 468 l 535 488 b 715 699 640 506 715 583 b 412 945 715 834 606 945 b 99 696 207 945 103 823 l 218 696 b 411 840 224 773 296 840 b 589 688 514 840 589 779 b 406 530 589 589 515 530 l 289 530 z "},"И":{"ha":978,"x_min":0,"x_max":0,"o":"m 720 0 l 843 0 l 843 926 l 727 926 l 264 202 l 258 202 l 258 926 l 135 926 l 135 0 l 251 0 l 714 724 l 720 724 z "},"Й":{"ha":978,"x_min":0,"x_max":0,"o":"m 270 1186 b 489 1001 270 1074 355 1001 b 709 1186 623 1001 709 1074 l 616 1186 b 489 1072 616 1116 567 1072 b 361 1186 411 1072 361 1116 z m 720 0 l 843 0 l 843 926 l 727 926 l 264 202 l 258 202 l 258 926 l 135 926 l 135 0 l 251 0 l 714 724 l 720 724 z "},"Ѝ":{"ha":978,"x_min":0,"x_max":0,"o":"m 540 1025 l 378 1244 l 258 1244 l 448 1025 z m 720 0 l 843 0 l 843 926 l 727 926 l 264 202 l 258 202 l 258 926 l 135 926 l 135 0 l 251 0 l 714 724 l 720 724 z "},"Ӣ":{"ha":978,"x_min":0,"x_max":0,"o":"m 682 1025 l 682 1100 l 281 1100 l 281 1025 z m 720 0 l 843 0 l 843 926 l 727 926 l 264 202 l 258 202 l 258 926 l 135 926 l 135 0 l 251 0 l 714 724 l 720 724 z "},"Ӥ":{"ha":978,"x_min":0,"x_max":0,"o":"m 602 1000 b 674 1070 643 1000 674 1031 b 602 1141 674 1109 643 1141 b 530 1070 562 1141 530 1109 b 602 1000 530 1031 562 1000 z m 366 1000 b 437 1070 407 1000 437 1031 b 366 1141 437 1109 407 1141 b 294 1070 325 1141 294 1109 b 366 1000 294 1031 325 1000 z m 720 0 l 843 0 l 843 926 l 727 926 l 264 202 l 258 202 l 258 926 l 135 926 l 135 0 l 251 0 l 714 724 l 720 724 z "},"Ҋ":{"ha":1008,"x_min":0,"x_max":0,"o":"m 270 1186 b 489 1001 270 1074 355 1001 b 709 1186 623 1001 709 1074 l 616 1186 b 489 1072 616 1116 567 1072 b 361 1186 411 1072 361 1116 z m 720 0 l 841 0 l 788 -193 l 902 -193 l 976 73 l 976 110 l 843 110 l 843 926 l 727 926 l 264 202 l 258 202 l 258 926 l 135 926 l 135 0 l 251 0 l 714 724 l 720 724 z "},"К":{"ha":852,"x_min":0,"x_max":0,"o":"m 668 0 l 827 0 l 426 484 l 815 926 l 662 926 l 314 532 l 260 532 l 260 926 l 135 926 l 135 0 l 260 0 l 260 425 l 314 425 z "},"Ќ":{"ha":852,"x_min":0,"x_max":0,"o":"m 389 1025 l 481 1025 l 671 1244 l 551 1244 z m 668 0 l 827 0 l 426 484 l 815 926 l 662 926 l 314 532 l 260 532 l 260 926 l 135 926 l 135 0 l 260 0 l 260 425 l 314 425 z "},"Қ":{"ha":890,"x_min":0,"x_max":0,"o":"m 668 0 l 778 0 l 778 -194 l 891 -194 l 891 110 l 736 110 l 426 484 l 815 926 l 662 926 l 314 532 l 260 532 l 260 926 l 135 926 l 135 0 l 260 0 l 260 425 l 314 425 z "},"Ҝ":{"ha":962,"x_min":0,"x_max":0,"o":"m 781 0 l 938 0 l 597 484 l 926 926 l 775 926 l 489 532 l 443 532 l 443 745 l 339 745 l 339 532 l 262 532 l 262 926 l 137 926 l 137 0 l 262 0 l 262 425 l 339 425 l 339 212 l 443 212 l 443 425 l 488 425 z "},"Ҟ":{"ha":910,"x_min":0,"x_max":0,"o":"m 726 0 l 885 0 l 477 484 l 873 926 l 720 926 l 365 532 l 311 532 l 311 718 l 444 718 l 444 823 l 311 823 l 311 926 l 185 926 l 185 823 l 76 823 l 76 718 l 185 718 l 185 0 l 311 0 l 311 425 l 364 425 z "},"Ҡ":{"ha":1132,"x_min":0,"x_max":0,"o":"m 39 815 l 415 815 l 415 0 l 540 0 l 540 425 l 593 425 l 948 0 l 1107 0 l 706 484 l 1095 926 l 942 926 l 594 532 l 540 532 l 540 926 l 39 926 z "},"Ӄ":{"ha":898,"x_min":0,"x_max":0,"o":"m 135 0 l 260 0 l 260 418 l 289 418 b 658 127 515 418 658 308 b 427 -144 658 -35 566 -144 b 376 -142 406 -144 391 -144 l 376 -248 b 429 -252 389 -251 410 -252 b 783 131 642 -252 783 -94 b 450 505 783 324 649 466 l 815 926 l 662 926 l 314 526 l 260 526 l 260 926 l 135 926 z "},"Л":{"ha":917,"x_min":0,"x_max":0,"o":"m 204 621 b 71 108 197 263 180 108 b 37 113 52 108 37 113 l 37 0 b 82 -7 39 -1 58 -7 b 323 608 288 -7 311 176 l 330 816 l 657 816 l 657 0 l 782 0 l 782 926 l 211 926 z "},"Ӆ":{"ha":941,"x_min":0,"x_max":0,"o":"m 204 621 b 71 108 197 263 180 108 b 37 113 52 108 37 113 l 37 0 b 82 -7 39 -1 58 -7 b 323 608 288 -7 311 176 l 330 816 l 657 816 l 657 0 l 780 0 l 727 -193 l 841 -193 l 915 73 l 915 110 l 782 110 l 782 926 l 211 926 z "},"Ԯ":{"ha":943,"x_min":0,"x_max":0,"o":"m 204 621 b 71 108 197 263 180 108 b 37 113 52 108 37 113 l 37 0 b 82 -7 39 -1 58 -7 b 323 608 288 -7 311 176 l 330 816 l 657 816 l 657 0 l 790 0 l 790 -194 l 903 -194 l 903 110 l 782 110 l 782 926 l 211 926 z "},"Ԓ":{"ha":917,"x_min":0,"x_max":0,"o":"m 204 621 b 71 108 197 263 180 108 b 37 113 52 108 37 113 l 37 0 b 82 -7 39 -1 58 -7 b 323 608 288 -7 311 176 l 330 816 l 657 816 l 657 -13 b 558 -148 657 -105 632 -148 b 514 -144 543 -148 525 -146 l 514 -248 b 583 -254 525 -250 559 -254 b 782 -21 707 -254 782 -185 l 782 926 l 211 926 z "},"М":{"ha":1122,"x_min":0,"x_max":0,"o":"m 248 0 l 248 673 l 254 673 l 510 81 l 612 81 l 867 673 l 873 673 l 873 0 l 987 0 l 987 926 l 865 926 l 564 216 l 559 216 l 257 926 l 135 926 l 135 0 z "},"Ӎ":{"ha":1161,"x_min":0,"x_max":0,"o":"m 249 0 l 249 673 l 255 673 l 510 81 l 612 81 l 867 673 l 873 673 l 873 0 l 994 0 l 941 -193 l 1055 -193 l 1129 73 l 1129 110 l 987 110 l 987 926 l 865 926 l 564 216 l 559 216 l 258 926 l 136 926 l 136 0 z "},"Н":{"ha":978,"x_min":0,"x_max":0,"o":"m 843 0 l 843 926 l 718 926 l 718 534 l 260 534 l 260 926 l 135 926 l 135 0 l 260 0 l 260 424 l 718 424 l 718 0 z "},"Ӈ":{"ha":978,"x_min":0,"x_max":0,"o":"m 718 926 l 718 534 l 260 534 l 260 926 l 135 926 l 135 0 l 260 0 l 260 424 l 718 424 l 718 -13 b 619 -148 718 -105 693 -148 b 575 -144 604 -148 586 -146 l 575 -248 b 644 -254 586 -250 621 -254 b 843 -21 768 -254 843 -185 l 843 926 z "},"Ң":{"ha":1004,"x_min":0,"x_max":0,"o":"m 851 -194 l 964 -194 l 964 110 l 843 110 l 843 926 l 718 926 l 718 534 l 260 534 l 260 926 l 135 926 l 135 0 l 260 0 l 260 424 l 718 424 l 718 0 l 851 0 z "},"Ӊ":{"ha":1008,"x_min":0,"x_max":0,"o":"m 788 -193 l 902 -193 l 976 73 l 976 110 l 843 110 l 843 926 l 718 926 l 718 534 l 260 534 l 260 926 l 135 926 l 135 0 l 260 0 l 260 424 l 718 424 l 718 0 l 841 0 z "},"Ҥ":{"ha":1334,"x_min":0,"x_max":0,"o":"m 843 0 l 843 815 l 1280 815 l 1280 926 l 718 926 l 718 534 l 260 534 l 260 926 l 135 926 l 135 0 l 260 0 l 260 424 l 718 424 l 718 0 z "},"О":{"ha":942,"x_min":0,"x_max":0,"o":"m 844 395 l 844 530 b 471 945 844 793 699 945 b 98 530 244 945 98 793 l 98 395 b 471 -19 98 134 244 -19 b 844 395 699 -19 844 134 z m 719 530 l 719 395 b 471 92 719 191 612 92 b 224 395 330 92 224 191 l 224 530 b 471 834 224 735 330 834 b 719 530 612 834 719 735 z "},"Ӧ":{"ha":942,"x_min":0,"x_max":0,"o":"m 589 1000 b 661 1070 630 1000 661 1031 b 589 1141 661 1109 630 1141 b 517 1070 548 1141 517 1109 b 589 1000 517 1031 548 1000 z m 352 1000 b 425 1070 393 1000 425 1031 b 352 1141 425 1109 393 1141 b 280 1070 311 1141 280 1109 b 352 1000 280 1031 311 1000 z m 844 395 l 844 530 b 471 945 844 793 699 945 b 98 530 244 945 98 793 l 98 395 b 471 -19 98 134 244 -19 b 844 395 699 -19 844 134 z m 719 530 l 719 395 b 471 92 719 191 612 92 b 224 395 330 92 224 191 l 224 530 b 471 834 224 735 330 834 b 719 530 612 834 719 735 z "},"Ө":{"ha":942,"x_min":0,"x_max":0,"o":"m 844 395 l 844 530 b 471 945 844 793 699 945 b 98 530 244 945 98 793 l 98 395 b 471 -19 98 134 244 -19 b 844 395 699 -19 844 134 z m 471 834 b 719 534 610 834 718 736 l 224 534 b 471 834 224 735 330 834 z m 224 395 l 224 424 l 719 424 l 719 395 b 471 92 719 191 612 92 b 224 395 330 92 224 191 z "},"Ӫ":{"ha":942,"x_min":0,"x_max":0,"o":"m 589 1000 b 661 1070 630 1000 661 1031 b 589 1141 661 1109 630 1141 b 517 1070 548 1141 517 1109 b 589 1000 517 1031 548 1000 z m 352 1000 b 425 1070 393 1000 425 1031 b 352 1141 425 1109 393 1141 b 280 1070 311 1141 280 1109 b 352 1000 280 1031 311 1000 z m 844 395 l 844 530 b 471 945 844 793 699 945 b 98 530 244 945 98 793 l 98 395 b 471 -19 98 134 244 -19 b 844 395 699 -19 844 134 z m 471 834 b 719 534 610 834 718 736 l 224 534 b 471 834 224 735 330 834 z m 224 395 l 224 424 l 719 424 l 719 395 b 471 92 719 191 612 92 b 224 395 330 92 224 191 z "},"Ѳ":{"ha":942,"x_min":0,"x_max":0,"o":"m 844 395 l 844 530 b 471 945 844 793 699 945 b 98 530 244 945 98 793 l 98 395 b 471 -19 98 134 244 -19 b 844 395 699 -19 844 134 z m 340 561 b 224 515 289 561 251 543 l 224 530 b 471 834 224 735 330 834 b 718 547 608 834 713 741 b 610 496 702 519 672 496 b 340 561 512 496 459 561 z m 224 395 l 224 408 b 333 460 240 436 269 460 b 604 396 427 460 480 397 b 719 439 654 395 692 412 l 719 395 b 471 92 719 191 612 92 b 224 395 330 92 224 191 z "},"П":{"ha":964,"x_min":0,"x_max":0,"o":"m 829 0 l 829 926 l 135 926 l 135 0 l 260 0 l 260 816 l 705 816 l 705 0 z "},"Ԥ":{"ha":990,"x_min":0,"x_max":0,"o":"m 838 -194 l 950 -194 l 950 110 l 829 110 l 829 926 l 135 926 l 135 0 l 260 0 l 260 816 l 705 816 l 705 0 l 838 0 z "},"Џ":{"ha":971,"x_min":0,"x_max":0,"o":"m 429 0 l 429 -194 l 543 -194 l 543 0 l 836 0 l 836 926 l 711 926 l 711 110 l 260 110 l 260 926 l 135 926 l 135 0 z "},"Р":{"ha":832,"x_min":0,"x_max":0,"o":"m 475 926 l 135 926 l 135 0 l 260 0 l 260 346 l 475 346 b 772 635 655 346 772 465 b 475 926 772 806 655 926 z m 644 635 b 464 454 644 521 578 454 l 260 454 l 260 817 l 464 817 b 644 635 578 817 644 750 z "},"Ҏ":{"ha":832,"x_min":0,"x_max":0,"o":"m 475 926 l 135 926 l 135 0 l 260 0 l 260 346 l 473 346 b 566 357 506 346 537 350 l 657 214 l 749 276 l 663 404 b 772 635 732 455 772 536 b 475 926 772 806 655 926 z m 438 575 l 509 458 b 464 454 495 456 480 454 l 260 454 l 260 817 l 464 817 b 644 635 578 817 644 750 b 595 500 644 577 627 531 l 515 625 z "},"С":{"ha":892,"x_min":0,"x_max":0,"o":"m 224 526 b 467 834 224 719 314 834 b 682 654 584 834 670 759 l 806 654 l 806 658 b 466 945 793 825 652 945 b 98 527 235 945 98 788 l 98 393 b 466 -19 98 132 231 -19 b 806 254 651 -19 792 96 l 806 258 l 682 258 b 467 92 670 159 586 92 b 224 395 312 92 224 201 z "},"Ҫ":{"ha":892,"x_min":0,"x_max":0,"o":"m 444 -330 b 610 -201 548 -330 610 -283 b 467 -92 610 -132 557 -92 l 494 -18 b 806 254 665 -7 793 104 l 806 258 l 682 258 b 467 92 670 159 586 92 b 224 395 312 92 224 201 l 224 526 b 467 834 224 719 314 834 b 682 654 584 834 670 759 l 806 654 l 806 658 b 466 945 793 825 652 945 b 98 527 235 945 98 788 l 98 393 b 411 -16 98 153 211 5 l 378 -104 l 378 -159 l 414 -159 b 513 -204 488 -159 513 -172 b 434 -256 513 -237 483 -256 b 355 -247 410 -256 372 -252 l 355 -319 b 444 -330 378 -326 413 -330 z "},"Т":{"ha":760,"x_min":0,"x_max":0,"o":"m 443 0 l 443 815 l 722 815 l 722 926 l 39 926 l 39 815 l 318 815 l 318 0 z "},"Ҭ":{"ha":760,"x_min":0,"x_max":0,"o":"m 450 -194 l 564 -194 l 564 110 l 443 110 l 443 815 l 722 815 l 722 926 l 39 926 l 39 815 l 318 815 l 318 0 l 450 0 z "},"У":{"ha":790,"x_min":0,"x_max":0,"o":"m 191 -7 b 467 235 317 -7 392 62 l 766 926 l 637 926 l 408 376 l 402 376 l 160 926 l 26 926 l 342 233 b 186 109 296 142 252 109 b 127 115 163 109 139 111 l 127 0 b 191 -7 137 -3 163 -7 z "},"Ў":{"ha":790,"x_min":0,"x_max":0,"o":"m 184 1186 b 404 1001 184 1074 271 1001 b 623 1186 537 1001 623 1074 l 531 1186 b 404 1072 531 1116 481 1072 b 276 1186 326 1072 276 1116 z m 191 -7 b 467 235 317 -7 392 62 l 766 926 l 637 926 l 408 376 l 402 376 l 160 926 l 26 926 l 342 233 b 186 109 296 142 252 109 b 127 115 163 109 139 111 l 127 0 b 191 -7 137 -3 163 -7 z "},"Ӯ":{"ha":790,"x_min":0,"x_max":0,"o":"m 599 1025 l 599 1100 l 199 1100 l 199 1025 z m 191 -7 b 467 235 317 -7 392 62 l 766 926 l 637 926 l 408 376 l 402 376 l 160 926 l 26 926 l 342 233 b 186 109 296 142 252 109 b 127 115 163 109 139 111 l 127 0 b 191 -7 137 -3 163 -7 z "},"Ӱ":{"ha":790,"x_min":0,"x_max":0,"o":"m 517 1000 b 589 1070 558 1000 589 1031 b 517 1141 589 1109 558 1141 b 445 1070 476 1141 445 1109 b 517 1000 445 1031 476 1000 z m 280 1000 b 353 1070 321 1000 353 1031 b 280 1141 353 1109 321 1141 b 208 1070 239 1141 208 1109 b 280 1000 208 1031 239 1000 z m 191 -7 b 467 235 317 -7 392 62 l 766 926 l 637 926 l 408 376 l 402 376 l 160 926 l 26 926 l 342 233 b 186 109 296 142 252 109 b 127 115 163 109 139 111 l 127 0 b 191 -7 137 -3 163 -7 z "},"Ӳ":{"ha":790,"x_min":0,"x_max":0,"o":"m 229 1025 l 321 1025 l 511 1244 l 391 1244 z m 456 1025 l 548 1025 l 737 1244 l 618 1244 z m 191 -7 b 467 235 317 -7 392 62 l 766 926 l 637 926 l 408 376 l 402 376 l 160 926 l 26 926 l 342 233 b 186 109 296 142 252 109 b 127 115 163 109 139 111 l 127 0 b 191 -7 137 -3 163 -7 z "},"Ф":{"ha":1105,"x_min":0,"x_max":0,"o":"m 611 -7 l 611 100 b 1019 465 871 107 1019 239 l 1019 480 b 611 837 1019 705 872 833 l 611 932 l 488 932 l 488 837 b 85 473 232 829 85 697 l 85 458 b 488 100 85 236 230 106 l 488 -7 z m 209 458 l 209 473 b 488 730 209 633 309 723 l 488 208 b 209 458 307 212 209 300 z m 896 480 l 896 465 b 610 208 896 304 793 213 l 610 730 b 896 480 795 726 896 640 z "},"Х":{"ha":817,"x_min":0,"x_max":0,"o":"m 789 926 l 646 926 l 418 562 l 412 562 l 183 926 l 33 926 l 330 467 l 29 0 l 170 0 l 399 362 l 406 362 l 633 0 l 783 0 l 483 458 z "},"Ҳ":{"ha":860,"x_min":0,"x_max":0,"o":"m 789 926 l 646 926 l 418 562 l 412 562 l 183 926 l 33 926 l 330 467 l 29 0 l 170 0 l 399 362 l 406 362 l 633 0 l 747 0 l 747 -194 l 861 -194 l 861 110 l 711 110 l 483 458 z "},"Ӿ":{"ha":817,"x_min":0,"x_max":0,"o":"m 733 416 l 733 522 l 524 522 l 789 926 l 646 926 l 418 562 l 412 562 l 183 926 l 33 926 l 294 522 l 73 522 l 73 416 l 298 416 l 29 0 l 170 0 l 399 362 l 406 362 l 633 0 l 783 0 l 511 416 z "},"Ӽ":{"ha":817,"x_min":0,"x_max":0,"o":"m 640 221 l 483 458 l 789 926 l 646 926 l 418 562 l 412 562 l 183 926 l 33 926 l 330 467 l 29 0 l 170 0 l 399 362 l 406 362 l 543 147 b 616 24 572 101 596 62 b 640 -69 633 -10 640 -39 b 551 -155 640 -122 603 -155 b 513 -152 535 -155 522 -154 l 513 -259 b 566 -264 524 -261 541 -264 b 770 -66 685 -264 770 -182 b 728 81 770 -18 758 27 b 640 221 703 127 675 168 z "},"Ц":{"ha":996,"x_min":0,"x_max":0,"o":"m 836 926 l 711 926 l 711 110 l 260 110 l 260 926 l 135 926 l 135 0 l 844 0 l 844 -194 l 956 -194 l 956 110 l 836 110 z "},"Ҵ":{"ha":1159,"x_min":0,"x_max":0,"o":"m 677 815 l 677 926 l 39 926 l 39 815 l 298 815 l 298 0 l 1006 0 l 1006 -194 l 1119 -194 l 1119 110 l 998 110 l 998 926 l 873 926 l 873 110 l 422 110 l 422 815 z "},"Ч":{"ha":926,"x_min":0,"x_max":0,"o":"m 791 0 l 791 926 l 667 926 l 667 516 b 445 464 665 515 580 464 b 246 660 316 464 246 531 l 246 926 l 121 926 l 121 658 b 437 357 121 464 237 357 b 663 404 578 357 659 401 l 667 404 l 667 0 z "},"Ӵ":{"ha":926,"x_min":0,"x_max":0,"o":"m 583 1000 b 655 1070 624 1000 655 1031 b 583 1141 655 1109 624 1141 b 511 1070 542 1141 511 1109 b 583 1000 511 1031 542 1000 z m 346 1000 b 418 1070 387 1000 418 1031 b 346 1141 418 1109 387 1141 b 274 1070 305 1141 274 1109 b 346 1000 274 1031 305 1000 z m 791 0 l 791 926 l 667 926 l 667 516 b 445 464 665 515 580 464 b 246 660 316 464 246 531 l 246 926 l 121 926 l 121 658 b 437 357 121 464 237 357 b 663 404 578 357 659 401 l 667 404 l 667 0 z "},"Ҷ":{"ha":953,"x_min":0,"x_max":0,"o":"m 800 -194 l 913 -194 l 913 110 l 791 110 l 791 926 l 667 926 l 667 516 b 445 464 665 515 580 464 b 246 660 316 464 246 531 l 246 926 l 121 926 l 121 658 b 437 357 121 464 237 357 b 663 404 578 357 659 401 l 667 404 l 667 0 l 800 0 z "},"Ӌ":{"ha":926,"x_min":0,"x_max":0,"o":"m 791 0 l 791 926 l 667 926 l 667 516 b 445 464 665 515 580 464 b 246 660 316 464 246 531 l 246 926 l 121 926 l 121 658 b 437 357 121 464 237 357 b 663 404 578 357 659 401 l 667 404 l 667 110 l 546 110 l 546 -194 l 659 -194 l 659 0 z "},"Ҹ":{"ha":932,"x_min":0,"x_max":0,"o":"m 409 670 l 409 465 b 246 659 303 477 246 543 l 246 926 l 121 926 l 121 658 b 409 358 121 474 226 368 l 409 166 l 515 166 l 515 362 b 668 404 610 373 665 401 l 672 404 l 672 0 l 797 0 l 797 926 l 672 926 l 672 515 b 515 468 669 514 611 480 l 515 670 z "},"Һ":{"ha":926,"x_min":0,"x_max":0,"o":"m 135 926 l 135 0 l 260 0 l 260 410 b 481 462 262 411 347 462 b 680 266 611 462 680 395 l 680 0 l 805 0 l 805 268 b 490 569 805 462 690 569 b 263 522 349 569 267 524 l 260 522 l 260 926 z "},"Ԧ":{"ha":966,"x_min":0,"x_max":0,"o":"m 135 926 l 135 0 l 260 0 l 260 410 b 481 462 262 411 347 462 b 680 266 611 462 680 395 l 680 0 l 813 0 l 813 -194 l 926 -194 l 926 110 l 805 110 l 805 268 b 490 569 805 462 690 569 b 263 522 349 569 267 524 l 260 522 l 260 926 z "},"Ћ":{"ha":1076,"x_min":0,"x_max":0,"o":"m 448 491 l 443 491 l 443 815 l 722 815 l 722 926 l 39 926 l 39 815 l 318 815 l 318 0 l 443 0 l 443 376 b 651 453 488 421 576 453 b 830 258 768 453 830 386 l 830 0 l 955 0 l 955 260 b 660 559 955 452 848 559 b 448 491 584 559 494 530 z "},"Ш":{"ha":1313,"x_min":0,"x_max":0,"o":"m 135 0 l 1178 0 l 1178 926 l 1053 926 l 1053 110 l 719 110 l 719 926 l 594 926 l 594 110 l 260 110 l 260 926 l 135 926 z "},"Щ":{"ha":1339,"x_min":0,"x_max":0,"o":"m 1299 -194 l 1299 110 l 1178 110 l 1178 926 l 1053 926 l 1053 110 l 719 110 l 719 926 l 594 926 l 594 110 l 260 110 l 260 926 l 135 926 l 135 0 l 1185 0 l 1185 -194 z "},"Ъ":{"ha":954,"x_min":0,"x_max":0,"o":"m 597 0 b 893 297 776 0 893 121 b 597 590 893 471 776 590 l 381 590 l 381 926 l 39 926 l 39 815 l 256 815 l 256 0 z m 586 109 l 381 109 l 381 481 l 586 481 b 765 295 699 481 765 414 b 586 109 765 178 699 109 z "},"Ы":{"ha":1154,"x_min":0,"x_max":0,"o":"m 771 297 b 475 590 771 471 653 590 l 260 590 l 260 926 l 135 926 l 135 0 l 475 0 b 771 297 654 0 771 121 z m 1019 0 l 1019 926 l 894 926 l 894 0 z m 464 481 b 643 295 577 481 643 414 b 464 109 643 178 577 109 l 259 109 l 259 481 z "},"Ӹ":{"ha":1154,"x_min":0,"x_max":0,"o":"m 697 1000 b 769 1070 738 1000 769 1031 b 697 1141 769 1109 738 1141 b 625 1070 656 1141 625 1109 b 697 1000 625 1031 656 1000 z m 460 1000 b 532 1070 501 1000 532 1031 b 460 1141 532 1109 501 1141 b 388 1070 419 1141 388 1109 b 460 1000 388 1031 419 1000 z m 1020 0 l 1020 926 l 895 926 l 895 0 z m 772 297 b 475 590 772 471 654 590 l 260 590 l 260 926 l 136 926 l 136 0 l 476 0 b 772 297 654 0 772 121 z m 465 481 b 644 295 578 481 644 414 b 465 109 644 178 578 109 l 260 109 l 260 481 z "},"Ҍ":{"ha":949,"x_min":0,"x_max":0,"o":"m 593 0 b 889 290 772 0 889 118 b 593 575 889 460 772 575 l 378 575 l 378 707 l 677 707 l 677 812 l 378 812 l 378 942 l 252 942 l 252 812 l 39 812 l 39 707 l 252 707 l 252 0 z m 582 109 l 377 109 l 377 467 l 582 467 b 761 288 695 467 761 401 b 582 109 761 175 695 109 z "},"Ѣ":{"ha":949,"x_min":0,"x_max":0,"o":"m 593 0 b 889 290 772 0 889 118 b 593 575 889 460 772 575 l 378 575 l 378 707 l 677 707 l 677 812 l 378 812 l 378 942 l 252 942 l 252 812 l 39 812 l 39 707 l 252 707 l 252 0 z m 582 109 l 377 109 l 377 467 l 582 467 b 761 288 695 467 761 401 b 582 109 761 175 695 109 z "},"Ь":{"ha":831,"x_min":0,"x_max":0,"o":"m 475 0 b 772 297 654 0 772 121 b 475 590 772 471 654 590 l 260 590 l 260 926 l 135 926 l 135 0 z m 464 109 l 259 109 l 259 481 l 464 481 b 644 295 578 481 644 414 b 464 109 644 178 578 109 z "},"Љ":{"ha":1341,"x_min":0,"x_max":0,"o":"m 82 -7 b 323 608 286 -7 309 176 l 330 816 l 644 816 l 644 0 l 984 0 b 1281 297 1163 0 1281 121 b 984 590 1281 471 1163 590 l 769 590 l 769 926 l 209 926 l 204 621 b 71 108 199 262 178 108 b 37 113 52 108 39 112 l 37 0 b 82 -7 37 -1 56 -7 z m 973 481 b 1152 295 1087 481 1152 414 b 973 109 1152 178 1087 109 l 768 109 l 768 481 z "},"Њ":{"ha":1415,"x_min":0,"x_max":0,"o":"m 718 561 l 260 561 l 260 926 l 135 926 l 135 0 l 260 0 l 260 451 l 718 451 l 718 0 l 1058 0 b 1355 283 1237 0 1355 108 b 1058 561 1355 456 1237 561 l 843 561 l 843 926 l 718 926 z m 1048 452 b 1227 281 1161 452 1227 397 b 1048 109 1227 165 1161 109 l 842 109 l 842 452 z "},"Э":{"ha":898,"x_min":0,"x_max":0,"o":"m 432 -19 b 800 393 657 -19 800 123 l 800 527 b 431 945 800 792 654 945 b 85 631 203 945 85 785 l 85 631 l 208 631 b 431 834 209 729 286 834 b 674 531 574 834 673 732 l 674 525 l 295 525 l 295 420 l 674 420 l 674 389 b 428 92 673 185 575 92 b 208 280 283 92 209 180 l 85 280 l 85 279 b 432 -19 85 144 193 -19 z "},"Ӭ":{"ha":898,"x_min":0,"x_max":0,"o":"m 553 1000 b 625 1071 593 1000 625 1031 b 553 1141 625 1109 593 1141 b 480 1071 511 1141 480 1109 b 553 1000 480 1031 511 1000 z m 316 1000 b 388 1071 357 1000 388 1031 b 316 1141 388 1109 357 1141 b 244 1071 275 1141 244 1109 b 316 1000 244 1031 275 1000 z m 432 -19 b 800 393 657 -19 800 123 l 800 527 b 431 945 800 792 654 945 b 85 631 203 945 85 785 l 85 631 l 208 631 b 431 834 209 729 286 834 b 674 531 574 834 673 732 l 674 525 l 295 525 l 295 420 l 674 420 l 674 389 b 428 92 673 185 575 92 b 208 280 283 92 209 180 l 85 280 l 85 279 b 432 -19 85 144 193 -19 z "},"Ю":{"ha":1242,"x_min":0,"x_max":0,"o":"m 413 391 b 777 -19 413 129 554 -19 b 1145 391 1000 -19 1145 129 l 1145 526 b 779 945 1145 789 1002 945 b 413 534 559 945 416 792 l 260 534 l 260 926 l 135 926 l 135 0 l 260 0 l 260 424 l 413 424 z m 538 526 b 778 834 538 730 642 834 b 1019 526 915 834 1019 730 l 1019 391 b 778 92 1019 186 915 92 b 538 391 642 92 538 186 z "},"Я":{"ha":876,"x_min":0,"x_max":0,"o":"m 616 361 l 616 0 l 741 0 l 741 926 l 411 926 b 102 642 221 926 102 809 b 306 377 102 505 182 408 l 74 0 l 214 0 l 436 361 z m 421 469 b 231 644 296 469 231 530 b 420 817 231 743 290 817 l 616 817 l 616 469 z "},"Ҕ":{"ha":868,"x_min":0,"x_max":0,"o":"m 260 492 l 260 816 l 661 816 l 661 926 l 135 926 l 135 0 l 260 0 l 260 374 b 467 454 300 416 374 454 b 655 274 591 454 655 385 b 484 100 655 169 585 100 b 417 105 456 100 429 102 l 417 0 b 488 -7 429 -3 458 -7 b 780 278 664 -7 780 105 b 475 562 780 447 673 562 b 264 492 391 562 307 528 z "},"Ҧ":{"ha":1424,"x_min":0,"x_max":0,"o":"m 816 492 l 816 926 l 135 926 l 135 0 l 260 0 l 260 816 l 691 816 l 691 0 l 816 0 l 816 374 b 1023 454 857 416 930 454 b 1211 274 1147 454 1211 385 b 1040 100 1211 169 1141 100 b 973 105 1013 100 985 102 l 973 0 b 1045 -7 985 -3 1015 -7 b 1337 278 1220 -7 1337 105 b 1031 562 1337 447 1229 562 b 821 492 947 562 863 528 z "},"Є":{"ha":899,"x_min":0,"x_max":0,"o":"m 813 279 l 813 280 l 690 280 b 470 92 689 180 615 92 b 223 395 321 92 223 187 l 223 422 l 603 422 l 603 527 l 223 527 b 467 834 223 730 323 834 b 690 631 612 834 689 729 l 813 631 l 813 631 b 467 945 813 785 695 945 b 98 527 243 945 98 792 l 98 393 b 465 -19 98 123 241 -19 b 813 279 705 -19 813 144 z "},"Ӏ":{"ha":395,"x_min":0,"x_max":0,"o":"m 260 0 l 260 926 l 135 926 l 135 0 z "},"І":{"ha":395,"x_min":0,"x_max":0,"o":"m 260 0 l 260 926 l 135 926 l 135 0 z "},"Ї":{"ha":395,"x_min":0,"x_max":0,"o":"m 315 1000 b 387 1070 356 1000 387 1031 b 315 1141 387 1109 356 1141 b 243 1070 274 1141 243 1109 b 315 1000 243 1031 274 1000 z m 79 1000 b 151 1070 119 1000 151 1031 b 79 1141 151 1109 119 1141 b 7 1070 38 1141 7 1109 b 79 1000 7 1031 38 1000 z m 260 0 l 260 926 l 135 926 l 135 0 z "},"Ҩ":{"ha":1152,"x_min":0,"x_max":0,"o":"m 1049 443 l 1049 495 b 758 820 1049 685 945 820 b 465 495 569 820 465 685 l 465 443 b 618 94 465 287 519 170 b 532 87 591 90 562 87 b 222 429 323 87 222 226 l 222 502 b 483 827 222 680 283 817 l 483 937 b 98 503 218 928 98 745 l 98 428 b 533 -22 98 179 228 -22 b 733 22 600 -22 668 -5 b 931 -23 794 -9 864 -23 b 1120 31 999 -23 1063 -6 l 1080 125 b 932 82 1038 98 981 82 b 870 86 911 82 890 83 b 1049 443 977 158 1049 288 z m 589 441 l 589 494 b 758 709 589 623 643 709 b 925 494 871 709 925 623 l 925 441 b 742 131 925 302 855 184 b 589 441 641 193 589 312 z "},"Ү":{"ha":792,"x_min":0,"x_max":0,"o":"m 458 0 l 458 395 l 768 926 l 627 926 l 399 517 l 393 517 l 166 926 l 24 926 l 334 394 l 334 0 z "},"Ұ":{"ha":792,"x_min":0,"x_max":0,"o":"m 458 0 l 458 316 l 657 316 l 657 421 l 474 421 l 768 926 l 627 926 l 399 517 l 393 517 l 166 926 l 24 926 l 317 421 l 135 421 l 135 316 l 334 316 l 334 0 z "},"Ҽ":{"ha":1103,"x_min":0,"x_max":0,"o":"m 996 278 l 872 278 b 648 92 872 169 778 92 b 387 393 502 92 387 191 l 387 446 l 1003 446 b 1004 533 1003 446 1004 526 b 633 945 1004 793 860 945 b 262 552 411 945 269 798 l 239 552 b 138 646 166 552 138 588 b 155 734 138 690 157 734 l 46 734 b 25 635 46 734 25 694 b 237 446 25 522 101 446 l 261 446 l 261 395 b 648 -19 261 134 414 -19 b 996 278 847 -19 995 111 z m 633 834 b 880 557 771 834 880 742 l 880 553 l 387 553 l 387 560 b 633 834 387 743 498 834 z "},"Ҿ":{"ha":1103,"x_min":0,"x_max":0,"o":"m 996 278 l 872 278 b 648 92 872 169 778 92 b 387 393 502 92 387 191 l 387 446 l 1003 446 b 1004 533 1003 446 1004 526 b 633 945 1004 793 860 945 b 262 552 411 945 269 798 l 239 552 b 138 646 166 552 138 588 b 155 734 138 690 157 734 l 46 734 b 25 635 46 734 25 694 b 237 446 25 522 101 446 l 261 446 l 261 395 b 589 -16 261 156 389 8 l 589 -194 l 703 -194 l 703 -16 b 996 278 873 5 995 127 z m 633 834 b 880 557 771 834 880 742 l 880 553 l 387 553 l 387 560 b 633 834 387 743 498 834 z "},"Ӕ":{"ha":1308,"x_min":0,"x_max":0,"o":"m 652 273 l 652 0 l 1205 0 l 1205 110 l 776 110 l 776 418 l 1181 418 l 1181 526 l 776 526 l 776 816 l 1205 816 l 1205 926 l 533 926 l 34 0 l 175 0 l 323 273 z m 603 816 l 652 816 l 652 373 l 374 373 z "},"Ə":{"ha":940,"x_min":0,"x_max":0,"o":"m 106 648 l 230 648 b 454 834 231 757 325 834 b 716 532 601 834 716 735 l 716 479 l 100 479 b 99 393 100 479 99 400 b 469 -19 99 133 243 -19 b 842 395 698 -19 842 136 l 842 531 b 454 945 842 792 688 945 b 106 648 255 945 108 814 z m 469 92 b 222 369 332 92 222 184 l 222 373 l 715 373 l 715 366 b 469 92 715 182 604 92 z "},"Ә":{"ha":940,"x_min":0,"x_max":0,"o":"m 106 648 l 230 648 b 454 834 231 757 325 834 b 716 532 601 834 716 735 l 716 479 l 100 479 b 99 393 100 479 99 400 b 469 -19 99 133 243 -19 b 842 395 698 -19 842 136 l 842 531 b 454 945 842 792 688 945 b 106 648 255 945 108 814 z m 469 92 b 222 369 332 92 222 184 l 222 373 l 715 373 l 715 366 b 469 92 715 182 604 92 z "},"Ӛ":{"ha":940,"x_min":0,"x_max":0,"o":"m 568 1000 b 641 1070 610 1000 641 1031 b 568 1141 641 1109 610 1141 b 496 1070 528 1141 496 1109 b 568 1000 496 1031 528 1000 z m 332 1000 b 404 1070 373 1000 404 1031 b 332 1141 404 1109 373 1141 b 260 1070 291 1141 260 1109 b 332 1000 260 1031 291 1000 z m 106 648 l 230 648 b 454 834 231 757 325 834 b 716 532 601 834 716 735 l 716 479 l 100 479 b 99 393 100 479 99 400 b 469 -19 99 133 243 -19 b 842 395 698 -19 842 136 l 842 531 b 454 945 842 792 688 945 b 106 648 255 945 108 814 z m 469 92 b 222 369 332 92 222 184 l 222 373 l 715 373 l 715 366 b 469 92 715 182 604 92 z "},"Ӡ":{"ha":822,"x_min":0,"x_max":0,"o":"m 725 281 b 414 557 725 447 600 548 l 414 565 l 684 834 l 684 926 l 107 926 l 107 817 l 524 817 l 524 809 l 272 556 l 272 456 l 353 456 b 599 280 512 456 599 397 b 399 86 599 156 522 86 b 190 233 279 86 199 151 l 73 233 b 398 -20 80 90 201 -20 b 725 281 595 -20 725 94 z "},"Ԑ":{"ha":830,"x_min":0,"x_max":0,"o":"m 542 425 l 542 530 l 424 530 b 248 688 315 530 248 589 b 425 840 248 779 322 840 b 618 696 541 840 612 773 l 737 696 b 425 945 734 823 629 945 b 121 699 231 945 121 834 b 295 488 121 583 191 506 l 295 481 b 85 258 173 468 85 380 b 420 -20 85 91 218 -20 b 751 233 621 -20 745 90 l 635 233 b 418 86 626 151 543 86 b 211 258 290 86 211 151 b 425 425 211 368 292 425 z "},"Ѵ":{"ha":913,"x_min":0,"x_max":0,"o":"m 492 0 l 748 712 b 793 807 765 762 779 793 b 842 825 806 819 823 825 b 904 811 857 825 876 821 l 939 911 b 825 938 915 926 869 938 b 723 908 783 938 749 928 b 627 749 682 879 654 835 l 431 146 l 425 146 l 172 926 l 30 926 l 361 0 z "},"Ԝ":{"ha":1190,"x_min":0,"x_max":0,"o":"m 399 0 l 592 724 l 597 724 l 790 0 l 902 0 l 1156 926 l 1013 926 l 844 190 l 838 190 l 656 926 l 534 926 l 353 190 l 346 190 l 178 926 l 34 926 l 288 0 z "},"Ђ":{"ha":1051,"x_min":0,"x_max":0,"o":"m 443 374 b 650 454 483 416 557 454 b 838 274 774 454 838 385 b 666 100 838 169 768 100 b 600 105 639 100 612 102 l 600 0 b 671 -7 612 -4 641 -7 b 963 277 846 -7 963 105 b 658 562 963 446 855 562 b 448 491 574 562 490 528 l 443 491 l 443 815 l 722 815 l 722 926 l 39 926 l 39 815 l 318 815 l 318 0 l 443 0 z "},"Ѕ":{"ha":816,"x_min":0,"x_max":0,"o":"m 67 235 b 402 -19 80 85 206 -19 b 749 259 616 -19 749 91 b 508 512 749 393 670 469 l 350 553 b 220 685 265 574 220 620 b 414 839 220 776 298 839 b 612 705 522 839 595 787 l 738 705 b 416 947 724 846 600 947 b 93 680 228 947 93 836 b 312 435 93 556 173 471 l 473 393 b 623 250 576 367 623 323 b 415 90 623 152 544 90 b 193 235 294 90 211 146 z "},"Ј":{"ha":705,"x_min":0,"x_max":0,"o":"m 41 218 b 302 -19 41 80 142 -19 b 580 271 477 -19 580 86 l 580 926 l 454 926 l 454 261 b 302 94 454 153 401 94 b 163 218 224 94 166 145 z "},"a":{"ha":758,"x_min":0,"x_max":0,"o":"m 313 -12 b 517 95 418 -12 483 37 l 523 95 l 523 0 l 641 0 l 641 487 b 372 725 641 662 519 725 b 107 536 213 725 118 657 l 226 536 b 368 621 240 586 278 621 b 517 488 460 621 517 579 l 517 417 l 331 417 b 80 208 167 417 80 332 b 313 -12 80 75 175 -12 z m 347 92 b 205 212 273 92 205 129 b 341 323 205 275 245 323 l 517 323 l 517 244 b 347 92 517 157 444 92 z "},"à":{"ha":758,"x_min":0,"x_max":0,"o":"m 440 829 l 278 1071 l 157 1071 l 347 829 z m 313 -12 b 517 95 418 -12 483 37 l 523 95 l 523 0 l 641 0 l 641 487 b 372 725 641 662 519 725 b 107 536 213 725 118 657 l 226 536 b 368 621 240 586 278 621 b 517 488 460 621 517 579 l 517 417 l 331 417 b 80 208 167 417 80 332 b 313 -12 80 75 175 -12 z m 347 92 b 205 212 273 92 205 129 b 341 323 205 275 245 323 l 517 323 l 517 244 b 347 92 517 157 444 92 z "},"á":{"ha":758,"x_min":0,"x_max":0,"o":"m 319 829 l 413 829 l 602 1071 l 481 1071 z m 313 -12 b 517 95 418 -12 483 37 l 523 95 l 523 0 l 641 0 l 641 487 b 372 725 641 662 519 725 b 107 536 213 725 118 657 l 226 536 b 368 621 240 586 278 621 b 517 488 460 621 517 579 l 517 417 l 331 417 b 80 208 167 417 80 332 b 313 -12 80 75 175 -12 z m 347 92 b 205 212 273 92 205 129 b 341 323 205 275 245 323 l 517 323 l 517 244 b 347 92 517 157 444 92 z "},"ä":{"ha":758,"x_min":0,"x_max":0,"o":"m 504 829 b 578 901 546 829 578 860 b 504 974 578 943 545 974 b 429 901 462 974 429 943 b 504 829 429 860 462 829 z m 254 829 b 330 901 296 829 330 860 b 254 974 330 943 296 974 b 179 901 212 974 179 943 b 254 829 179 860 212 829 z m 313 -12 b 517 95 418 -12 483 37 l 523 95 l 523 0 l 641 0 l 641 487 b 372 725 641 662 519 725 b 107 536 213 725 118 657 l 226 536 b 368 621 240 586 278 621 b 517 488 460 621 517 579 l 517 417 l 331 417 b 80 208 167 417 80 332 b 313 -12 80 75 175 -12 z m 347 92 b 205 212 273 92 205 129 b 341 323 205 275 245 323 l 517 323 l 517 244 b 347 92 517 157 444 92 z "},"ǟ":{"ha":758,"x_min":0,"x_max":0,"o":"m 581 1084 l 581 1164 l 176 1164 l 176 1084 z m 504 828 b 578 901 546 828 578 859 b 504 972 578 942 545 972 b 429 901 462 972 429 942 b 504 828 429 859 462 828 z m 254 828 b 330 901 296 828 330 859 b 254 972 330 942 296 972 b 179 901 212 972 179 942 b 254 828 179 859 212 828 z m 313 -12 b 517 95 418 -12 483 37 l 523 95 l 523 0 l 641 0 l 641 487 b 372 725 641 662 519 725 b 107 536 213 725 118 657 l 226 536 b 368 621 240 586 278 621 b 517 488 460 621 517 579 l 517 417 l 331 417 b 80 208 167 417 80 332 b 313 -12 80 75 175 -12 z m 347 92 b 205 212 273 92 205 129 b 341 323 205 275 245 323 l 517 323 l 517 244 b 347 92 517 157 444 92 z "},"å":{"ha":758,"x_min":0,"x_max":0,"o":"m 379 833 b 509 960 452 833 509 888 b 379 1088 509 1033 452 1088 b 248 960 307 1088 248 1033 b 379 833 248 888 307 833 z m 311 960 b 379 1029 311 999 340 1029 b 447 960 418 1029 447 999 b 379 890 447 922 418 890 b 311 960 340 890 311 922 z m 313 -12 b 517 95 418 -12 483 37 l 523 95 l 523 0 l 641 0 l 641 487 b 372 725 641 662 519 725 b 107 536 213 725 118 657 l 226 536 b 368 621 240 586 278 621 b 517 488 460 621 517 579 l 517 417 l 331 417 b 80 208 167 417 80 332 b 313 -12 80 75 175 -12 z m 347 92 b 205 212 273 92 205 129 b 341 323 205 275 245 323 l 517 323 l 517 244 b 347 92 517 157 444 92 z "},"ǻ":{"ha":758,"x_min":0,"x_max":0,"o":"m 433 1152 l 548 1281 l 427 1281 l 334 1152 z m 378 833 b 509 960 451 833 509 888 b 378 1088 509 1033 451 1088 b 248 960 306 1088 248 1033 b 378 833 248 888 306 833 z m 310 960 b 378 1029 310 999 340 1029 b 446 960 417 1029 446 999 b 378 890 446 922 417 890 b 310 960 340 890 310 922 z m 313 -12 b 517 95 418 -12 483 37 l 523 95 l 523 0 l 641 0 l 641 487 b 372 725 641 662 519 725 b 107 536 213 725 118 657 l 226 536 b 368 621 240 586 278 621 b 517 488 460 621 517 579 l 517 417 l 331 417 b 80 208 167 417 80 332 b 313 -12 80 75 175 -12 z m 347 92 b 205 212 273 92 205 129 b 341 323 205 275 245 323 l 517 323 l 517 244 b 347 92 517 157 444 92 z "},"ã":{"ha":758,"x_min":0,"x_max":0,"o":"m 464 823 b 589 994 539 823 589 893 l 510 994 b 462 905 505 935 489 905 b 300 1006 411 905 399 1006 b 172 836 220 1006 172 940 l 252 836 b 302 925 256 897 271 925 b 464 823 361 925 370 823 z m 313 -12 b 517 95 418 -12 483 37 l 523 95 l 523 0 l 641 0 l 641 487 b 372 725 641 662 519 725 b 107 536 213 725 118 657 l 226 536 b 368 621 240 586 278 621 b 517 488 460 621 517 579 l 517 417 l 331 417 b 80 208 167 417 80 332 b 313 -12 80 75 175 -12 z m 347 92 b 205 212 273 92 205 129 b 341 323 205 275 245 323 l 517 323 l 517 244 b 347 92 517 157 444 92 z "},"ằ":{"ha":758,"x_min":0,"x_max":0,"o":"m 346 1039 l 438 1039 l 276 1276 l 157 1276 z m 182 1008 b 379 825 182 903 264 825 b 576 1008 493 825 575 903 l 492 1008 b 379 900 492 945 448 900 b 265 1008 309 900 265 945 z m 313 -12 b 517 95 418 -12 483 37 l 523 95 l 523 0 l 641 0 l 641 487 b 372 725 641 662 519 725 b 107 536 213 725 118 657 l 226 536 b 368 621 240 586 278 621 b 517 488 460 621 517 579 l 517 417 l 331 417 b 80 208 167 417 80 332 b 313 -12 80 75 175 -12 z m 347 92 b 205 212 273 92 205 129 b 341 323 205 275 245 323 l 517 323 l 517 244 b 347 92 517 157 444 92 z "},"ǡ":{"ha":758,"x_min":0,"x_max":0,"o":"m 581 1084 l 581 1164 l 176 1164 l 176 1084 z m 302 911 b 378 838 302 869 336 838 b 453 911 419 838 453 869 b 378 984 453 953 419 984 b 302 911 336 984 302 953 z m 313 -12 b 517 95 418 -12 483 37 l 523 95 l 523 0 l 641 0 l 641 487 b 372 725 641 662 519 725 b 107 536 213 725 118 657 l 226 536 b 368 621 240 586 278 621 b 517 488 460 621 517 579 l 517 417 l 331 417 b 80 208 167 417 80 332 b 313 -12 80 75 175 -12 z m 347 92 b 205 212 273 92 205 129 b 341 323 205 275 245 323 l 517 323 l 517 244 b 347 92 517 157 444 92 z "},"ḁ":{"ha":758,"x_min":0,"x_max":0,"o":"m 313 -12 b 517 95 418 -12 483 37 l 523 95 l 523 0 l 641 0 l 641 487 b 372 725 641 662 519 725 b 107 536 213 725 118 657 l 226 536 b 368 621 240 586 278 621 b 517 488 460 621 517 579 l 517 417 l 331 417 b 80 208 167 417 80 332 b 313 -12 80 75 175 -12 z m 347 92 b 205 212 273 92 205 129 b 341 323 205 275 245 323 l 517 323 l 517 244 b 347 92 517 157 444 92 z m 379 -318 b 509 -191 452 -318 509 -263 b 379 -64 509 -118 452 -64 b 248 -191 307 -64 248 -118 b 379 -318 248 -263 307 -318 z m 311 -191 b 379 -122 311 -152 340 -122 b 447 -191 418 -122 447 -152 b 379 -260 447 -230 418 -260 b 311 -191 340 -260 311 -230 z "},"â":{"ha":758,"x_min":0,"x_max":0,"o":"m 170 829 l 273 829 l 377 1001 l 380 1001 l 485 829 l 589 829 l 419 1084 l 338 1084 z m 313 -12 b 517 95 418 -12 483 37 l 523 95 l 523 0 l 641 0 l 641 487 b 372 725 641 662 519 725 b 107 536 213 725 118 657 l 226 536 b 368 621 240 586 278 621 b 517 488 460 621 517 579 l 517 417 l 331 417 b 80 208 167 417 80 332 b 313 -12 80 75 175 -12 z m 347 92 b 205 212 273 92 205 129 b 341 323 205 275 245 323 l 517 323 l 517 244 b 347 92 517 157 444 92 z "},"ậ":{"ha":758,"x_min":0,"x_max":0,"o":"m 170 829 l 273 829 l 377 1001 l 380 1001 l 485 829 l 589 829 l 419 1084 l 338 1084 z m 313 -12 b 517 95 418 -12 483 37 l 523 95 l 523 0 l 641 0 l 641 487 b 372 725 641 662 519 725 b 107 536 213 725 118 657 l 226 536 b 368 621 240 586 278 621 b 517 488 460 621 517 579 l 517 417 l 331 417 b 80 208 167 417 80 332 b 313 -12 80 75 175 -12 z m 347 92 b 205 212 273 92 205 129 b 341 323 205 275 245 323 l 517 323 l 517 244 b 347 92 517 157 444 92 z m 305 -169 b 379 -239 305 -211 336 -239 b 452 -169 422 -239 452 -211 b 379 -97 452 -127 422 -97 b 305 -169 336 -97 305 -127 z "},"ấ":{"ha":758,"x_min":0,"x_max":0,"o":"m 549 950 l 641 950 l 829 1187 l 710 1187 z m 170 829 l 273 829 l 377 952 l 380 952 l 485 829 l 589 829 l 419 1023 l 338 1023 z m 313 -12 b 517 95 418 -12 483 37 l 523 95 l 523 0 l 641 0 l 641 487 b 372 725 641 662 519 725 b 107 536 213 725 118 657 l 226 536 b 368 621 240 586 278 621 b 517 488 460 621 517 579 l 517 417 l 331 417 b 80 208 167 417 80 332 b 313 -12 80 75 175 -12 z m 347 92 b 205 212 273 92 205 129 b 341 323 205 275 245 323 l 517 323 l 517 244 b 347 92 517 157 444 92 z "},"ẫ":{"ha":758,"x_min":0,"x_max":0,"o":"m 260 1082 b 304 1155 264 1131 277 1155 b 459 1068 359 1155 364 1068 b 576 1216 527 1068 576 1125 l 500 1216 b 454 1142 495 1166 481 1142 b 300 1230 399 1142 394 1230 b 184 1082 231 1230 184 1172 z m 170 829 l 273 829 l 377 950 l 380 950 l 485 829 l 589 829 l 419 1020 l 338 1020 z m 313 -12 b 517 95 418 -12 483 37 l 523 95 l 523 0 l 641 0 l 641 487 b 372 725 641 662 519 725 b 107 536 213 725 118 657 l 226 536 b 368 621 240 586 278 621 b 517 488 460 621 517 579 l 517 417 l 331 417 b 80 208 167 417 80 332 b 313 -12 80 75 175 -12 z m 347 92 b 205 212 273 92 205 129 b 341 323 205 275 245 323 l 517 323 l 517 244 b 347 92 517 157 444 92 z "},"ầ":{"ha":758,"x_min":0,"x_max":0,"o":"m 711 950 l 550 1187 l 431 1187 l 619 950 z m 170 829 l 273 829 l 377 952 l 380 952 l 485 829 l 589 829 l 419 1023 l 338 1023 z m 313 -12 b 517 95 418 -12 483 37 l 523 95 l 523 0 l 641 0 l 641 487 b 372 725 641 662 519 725 b 107 536 213 725 118 657 l 226 536 b 368 621 240 586 278 621 b 517 488 460 621 517 579 l 517 417 l 331 417 b 80 208 167 417 80 332 b 313 -12 80 75 175 -12 z m 347 92 b 205 212 273 92 205 129 b 341 323 205 275 245 323 l 517 323 l 517 244 b 347 92 517 157 444 92 z "},"ẩ":{"ha":758,"x_min":0,"x_max":0,"o":"m 477 1126 b 534 1140 487 1131 509 1140 b 606 1081 575 1140 606 1114 b 543 1013 606 1051 588 1032 l 583 959 b 682 1084 641 982 682 1023 b 545 1205 682 1156 628 1205 b 477 1193 515 1205 489 1200 z m 170 829 l 273 829 l 377 952 l 380 952 l 485 829 l 589 829 l 419 1023 l 338 1023 z m 313 -12 b 517 95 418 -12 483 37 l 523 95 l 523 0 l 641 0 l 641 487 b 372 725 641 662 519 725 b 107 536 213 725 118 657 l 226 536 b 368 621 240 586 278 621 b 517 488 460 621 517 579 l 517 417 l 331 417 b 80 208 167 417 80 332 b 313 -12 80 75 175 -12 z m 347 92 b 205 212 273 92 205 129 b 341 323 205 275 245 323 l 517 323 l 517 244 b 347 92 517 157 444 92 z "},"ă":{"ha":758,"x_min":0,"x_max":0,"o":"m 181 1013 b 379 826 181 904 264 826 b 576 1013 493 826 576 905 l 493 1013 b 379 902 493 947 449 902 b 265 1013 309 902 265 947 z m 313 -12 b 517 95 418 -12 483 37 l 523 95 l 523 0 l 641 0 l 641 487 b 372 725 641 662 519 725 b 107 536 213 725 118 657 l 226 536 b 368 621 240 586 278 621 b 517 488 460 621 517 579 l 517 417 l 331 417 b 80 208 167 417 80 332 b 313 -12 80 75 175 -12 z m 347 92 b 205 212 273 92 205 129 b 341 323 205 275 245 323 l 517 323 l 517 244 b 347 92 517 157 444 92 z "},"ắ":{"ha":758,"x_min":0,"x_max":0,"o":"m 413 1039 l 602 1276 l 482 1276 l 321 1039 z m 182 1008 b 379 825 182 903 264 825 b 576 1008 493 825 575 903 l 492 1008 b 379 900 492 945 449 900 b 265 1008 309 900 265 945 z m 313 -12 b 517 95 418 -12 483 37 l 523 95 l 523 0 l 641 0 l 641 487 b 372 725 641 662 519 725 b 107 536 213 725 118 657 l 226 536 b 368 621 240 586 278 621 b 517 488 460 621 517 579 l 517 417 l 331 417 b 80 208 167 417 80 332 b 313 -12 80 75 175 -12 z m 347 92 b 205 212 273 92 205 129 b 341 323 205 275 245 323 l 517 323 l 517 244 b 347 92 517 157 444 92 z "},"ẵ":{"ha":758,"x_min":0,"x_max":0,"o":"m 260 1082 b 304 1154 264 1131 277 1154 b 459 1067 359 1154 364 1067 b 576 1215 527 1067 576 1124 l 500 1215 b 454 1141 495 1165 481 1141 b 300 1229 399 1141 394 1229 b 184 1082 231 1229 184 1171 z m 182 1008 b 379 825 182 903 264 825 b 576 1008 493 825 575 903 l 492 1008 b 379 900 492 945 448 900 b 265 1008 309 900 265 945 z m 313 -12 b 517 95 418 -12 483 37 l 523 95 l 523 0 l 641 0 l 641 487 b 372 725 641 662 519 725 b 107 536 213 725 118 657 l 226 536 b 368 621 240 586 278 621 b 517 488 460 621 517 579 l 517 417 l 331 417 b 80 208 167 417 80 332 b 313 -12 80 75 175 -12 z m 347 92 b 205 212 273 92 205 129 b 341 323 205 275 245 323 l 517 323 l 517 244 b 347 92 517 157 444 92 z "},"ẳ":{"ha":758,"x_min":0,"x_max":0,"o":"m 258 1144 b 316 1158 269 1149 291 1158 b 387 1099 357 1158 387 1132 b 324 1031 387 1069 370 1050 l 364 977 b 464 1101 422 1000 464 1041 b 327 1223 464 1173 410 1223 b 258 1211 297 1223 271 1217 z m 182 1008 b 379 825 182 903 264 825 b 576 1008 493 825 575 903 l 492 1008 b 379 900 492 945 448 900 b 265 1008 309 900 265 945 z m 313 -12 b 517 95 418 -12 483 37 l 523 95 l 523 0 l 641 0 l 641 487 b 372 725 641 662 519 725 b 107 536 213 725 118 657 l 226 536 b 368 621 240 586 278 621 b 517 488 460 621 517 579 l 517 417 l 331 417 b 80 208 167 417 80 332 b 313 -12 80 75 175 -12 z m 347 92 b 205 212 273 92 205 129 b 341 323 205 275 245 323 l 517 323 l 517 244 b 347 92 517 157 444 92 z "},"ặ":{"ha":758,"x_min":0,"x_max":0,"o":"m 181 1013 b 379 826 181 904 264 826 b 576 1013 493 826 576 905 l 493 1013 b 379 902 493 947 449 902 b 265 1013 309 902 265 947 z m 313 -12 b 517 95 418 -12 483 37 l 523 95 l 523 0 l 641 0 l 641 487 b 372 725 641 662 519 725 b 107 536 213 725 118 657 l 226 536 b 368 621 240 586 278 621 b 517 488 460 621 517 579 l 517 417 l 331 417 b 80 208 167 417 80 332 b 313 -12 80 75 175 -12 z m 347 92 b 205 212 273 92 205 129 b 341 323 205 275 245 323 l 517 323 l 517 244 b 347 92 517 157 444 92 z m 305 -169 b 379 -239 305 -211 336 -239 b 452 -169 422 -239 452 -211 b 379 -97 452 -127 422 -97 b 305 -169 336 -97 305 -127 z "},"ȃ":{"ha":758,"x_min":0,"x_max":0,"o":"m 181 833 l 265 833 b 379 945 265 899 309 945 b 493 833 449 945 493 899 l 576 833 b 379 1021 576 942 494 1021 b 181 833 264 1021 182 942 z m 313 -12 b 517 95 418 -12 483 37 l 523 95 l 523 0 l 641 0 l 641 487 b 372 725 641 662 519 725 b 107 536 213 725 118 657 l 226 536 b 368 621 240 586 278 621 b 517 488 460 621 517 579 l 517 417 l 331 417 b 80 208 167 417 80 332 b 313 -12 80 75 175 -12 z m 347 92 b 205 212 273 92 205 129 b 341 323 205 275 245 323 l 517 323 l 517 244 b 347 92 517 157 444 92 z "},"ǎ":{"ha":758,"x_min":0,"x_max":0,"o":"m 170 1082 l 339 827 l 421 827 l 583 1082 l 479 1082 l 380 904 l 378 904 l 273 1082 z m 313 -12 b 517 95 418 -12 483 37 l 523 95 l 523 0 l 641 0 l 641 487 b 372 725 641 662 519 725 b 107 536 213 725 118 657 l 226 536 b 368 621 240 586 278 621 b 517 488 460 621 517 579 l 517 417 l 331 417 b 80 208 167 417 80 332 b 313 -12 80 75 175 -12 z m 347 92 b 205 212 273 92 205 129 b 341 323 205 275 245 323 l 517 323 l 517 244 b 347 92 517 157 444 92 z "},"ȧ":{"ha":758,"x_min":0,"x_max":0,"o":"m 302 916 b 378 842 302 874 336 842 b 453 916 419 842 453 874 b 378 989 453 957 419 989 b 302 916 336 989 302 957 z m 313 -12 b 517 95 418 -12 483 37 l 523 95 l 523 0 l 641 0 l 641 487 b 372 725 641 662 519 725 b 107 536 213 725 118 657 l 226 536 b 368 621 240 586 278 621 b 517 488 460 621 517 579 l 517 417 l 331 417 b 80 208 167 417 80 332 b 313 -12 80 75 175 -12 z m 347 92 b 205 212 273 92 205 129 b 341 323 205 275 245 323 l 517 323 l 517 244 b 347 92 517 157 444 92 z "},"ạ":{"ha":758,"x_min":0,"x_max":0,"o":"m 313 -12 b 517 95 418 -12 483 37 l 523 95 l 523 0 l 641 0 l 641 487 b 372 725 641 662 519 725 b 107 536 213 725 118 657 l 226 536 b 368 621 240 586 278 621 b 517 488 460 621 517 579 l 517 417 l 331 417 b 80 208 167 417 80 332 b 313 -12 80 75 175 -12 z m 347 92 b 205 212 273 92 205 129 b 341 323 205 275 245 323 l 517 323 l 517 244 b 347 92 517 157 444 92 z m 305 -169 b 379 -239 305 -211 336 -239 b 452 -169 422 -239 452 -211 b 379 -97 452 -127 422 -97 b 305 -169 336 -97 305 -127 z "},"ả":{"ha":758,"x_min":0,"x_max":0,"o":"m 283 980 b 349 989 298 985 322 989 b 418 935 389 989 418 968 b 352 861 418 909 401 888 l 396 803 b 503 939 452 833 503 869 b 357 1062 503 1017 444 1062 b 283 1050 326 1062 300 1057 z m 313 -12 b 517 95 418 -12 483 37 l 523 95 l 523 0 l 641 0 l 641 487 b 372 725 641 662 519 725 b 107 536 213 725 118 657 l 226 536 b 368 621 240 586 278 621 b 517 488 460 621 517 579 l 517 417 l 331 417 b 80 208 167 417 80 332 b 313 -12 80 75 175 -12 z m 347 92 b 205 212 273 92 205 129 b 341 323 205 275 245 323 l 517 323 l 517 244 b 347 92 517 157 444 92 z "},"ȁ":{"ha":758,"x_min":0,"x_max":0,"o":"m 240 829 l 331 829 l 166 1052 l 45 1052 z m 458 829 l 549 829 l 385 1052 l 262 1052 z m 313 -12 b 517 95 418 -12 483 37 l 523 95 l 523 0 l 641 0 l 641 487 b 372 725 641 662 519 725 b 107 536 213 725 118 657 l 226 536 b 368 621 240 586 278 621 b 517 488 460 621 517 579 l 517 417 l 331 417 b 80 208 167 417 80 332 b 313 -12 80 75 175 -12 z m 347 92 b 205 212 273 92 205 129 b 341 323 205 275 245 323 l 517 323 l 517 244 b 347 92 517 157 444 92 z "},"ā":{"ha":758,"x_min":0,"x_max":0,"o":"m 581 848 l 581 928 l 176 928 l 176 848 z m 313 -12 b 517 95 418 -12 483 37 l 523 95 l 523 0 l 641 0 l 641 487 b 372 725 641 662 519 725 b 107 536 213 725 118 657 l 226 536 b 368 621 240 586 278 621 b 517 488 460 621 517 579 l 517 417 l 331 417 b 80 208 167 417 80 332 b 313 -12 80 75 175 -12 z m 347 92 b 205 212 273 92 205 129 b 341 323 205 275 245 323 l 517 323 l 517 244 b 347 92 517 157 444 92 z "},"ą":{"ha":758,"x_min":0,"x_max":0,"o":"m 650 -248 l 650 -165 b 595 -171 634 -169 612 -171 b 519 -110 553 -171 519 -151 b 641 5 519 -50 597 -11 l 641 488 b 373 725 641 663 519 725 b 107 536 216 725 117 659 l 226 536 b 367 620 240 585 278 620 b 517 488 460 620 517 579 l 517 417 l 330 417 b 80 207 168 417 80 332 b 313 -12 80 76 176 -12 b 519 95 420 -12 484 37 l 525 95 l 525 26 b 417 -132 471 -9 417 -53 b 565 -262 417 -223 490 -262 b 650 -248 610 -262 637 -252 z m 347 90 b 205 212 273 90 205 129 b 342 323 205 275 245 323 l 517 323 l 517 244 b 347 90 517 157 444 90 z "},"b":{"ha":820,"x_min":0,"x_max":0,"o":"m 457 -11 b 734 296 627 -11 734 106 l 734 418 b 460 724 734 607 629 724 b 250 600 357 724 273 675 l 244 600 l 244 975 l 121 975 l 121 0 l 239 0 l 239 106 l 245 106 b 457 -11 277 33 357 -11 z m 433 94 b 244 291 323 94 244 176 l 244 408 b 430 619 244 538 316 619 b 610 393 545 619 610 536 l 610 317 b 433 94 610 176 545 94 z "},"ḇ":{"ha":820,"x_min":0,"x_max":0,"o":"m 457 -11 b 734 296 627 -11 734 106 l 734 418 b 460 724 734 607 629 724 b 250 600 357 724 273 675 l 244 600 l 244 975 l 121 975 l 121 0 l 239 0 l 239 106 l 245 106 b 457 -11 277 33 357 -11 z m 433 94 b 244 291 323 94 244 176 l 244 408 b 430 619 244 538 316 619 b 610 393 545 619 610 536 l 610 317 b 433 94 610 176 545 94 z m 612 -220 l 612 -141 l 208 -141 l 208 -220 z "},"ḅ":{"ha":820,"x_min":0,"x_max":0,"o":"m 457 -11 b 734 296 627 -11 734 106 l 734 418 b 460 724 734 607 629 724 b 250 600 357 724 273 675 l 244 600 l 244 975 l 121 975 l 121 0 l 239 0 l 239 106 l 245 106 b 457 -11 277 33 357 -11 z m 433 94 b 244 291 323 94 244 176 l 244 408 b 430 619 244 538 316 619 b 610 393 545 619 610 536 l 610 317 b 433 94 610 176 545 94 z m 336 -169 b 410 -239 336 -211 368 -239 b 484 -169 453 -239 484 -211 b 410 -97 484 -127 453 -97 b 336 -169 368 -97 336 -127 z "},"ḃ":{"ha":820,"x_min":0,"x_max":0,"o":"m 109 1131 b 182 1058 109 1091 141 1058 b 255 1131 222 1058 255 1091 b 182 1204 255 1172 222 1204 b 109 1131 141 1204 109 1172 z m 457 -11 b 734 296 627 -11 734 106 l 734 418 b 460 724 734 607 629 724 b 250 600 357 724 273 675 l 244 600 l 244 975 l 121 975 l 121 0 l 239 0 l 239 106 l 245 106 b 457 -11 277 33 357 -11 z m 433 94 b 244 291 323 94 244 176 l 244 408 b 430 619 244 538 316 619 b 610 393 545 619 610 536 l 610 317 b 433 94 610 176 545 94 z "},"c":{"ha":736,"x_min":0,"x_max":0,"o":"m 86 300 b 384 -12 86 109 200 -12 b 663 198 572 -12 659 93 l 543 198 b 386 96 530 144 491 96 b 209 298 276 96 209 174 l 209 412 b 386 618 209 537 269 618 b 538 507 497 618 530 549 l 658 507 b 384 725 654 615 562 725 b 86 416 201 725 86 604 z "},"ć":{"ha":736,"x_min":0,"x_max":0,"o":"m 309 829 l 402 829 l 591 1071 l 470 1071 z m 86 300 b 384 -12 86 109 200 -12 b 663 198 572 -12 659 93 l 543 198 b 386 96 530 144 491 96 b 209 298 276 96 209 174 l 209 412 b 386 618 209 537 269 618 b 538 507 497 618 530 549 l 658 507 b 384 725 654 615 562 725 b 86 416 201 725 86 604 z "},"č":{"ha":736,"x_min":0,"x_max":0,"o":"m 159 1082 l 328 827 l 410 827 l 572 1082 l 469 1082 l 370 904 l 367 904 l 262 1082 z m 86 300 b 384 -12 86 109 200 -12 b 663 198 572 -12 659 93 l 543 198 b 386 96 530 144 491 96 b 209 298 276 96 209 174 l 209 412 b 386 618 209 537 269 618 b 538 507 497 618 530 549 l 658 507 b 384 725 654 615 562 725 b 86 416 201 725 86 604 z "},"ĉ":{"ha":736,"x_min":0,"x_max":0,"o":"m 159 829 l 262 829 l 366 1001 l 370 1001 l 474 829 l 578 829 l 408 1084 l 328 1084 z m 86 300 b 384 -12 86 109 200 -12 b 663 198 572 -12 659 93 l 543 198 b 386 96 530 144 491 96 b 209 298 276 96 209 174 l 209 412 b 386 618 209 537 269 618 b 538 507 497 618 530 549 l 658 507 b 384 725 654 615 562 725 b 86 416 201 725 86 604 z "},"ċ":{"ha":736,"x_min":0,"x_max":0,"o":"m 291 916 b 367 842 291 874 326 842 b 442 916 408 842 442 874 b 367 989 442 957 408 989 b 291 916 326 989 291 957 z m 86 300 b 384 -12 86 109 200 -12 b 663 198 572 -12 659 93 l 543 198 b 386 96 530 144 491 96 b 209 298 276 96 209 174 l 209 412 b 386 618 209 537 269 618 b 538 507 497 618 530 549 l 658 507 b 384 725 654 615 562 725 b 86 416 201 725 86 604 z "},"ç":{"ha":736,"x_min":0,"x_max":0,"o":"m 378 -330 b 544 -201 482 -330 544 -283 b 401 -92 544 -132 492 -92 l 432 -9 b 663 198 585 7 659 100 l 543 198 b 386 98 530 145 492 98 b 208 298 276 98 208 174 l 208 412 b 386 621 208 537 269 621 b 538 507 498 621 530 549 l 658 507 b 384 725 654 614 563 725 b 86 416 200 725 86 603 l 86 300 b 348 -10 86 120 186 5 l 313 -104 l 313 -159 l 348 -159 b 448 -204 422 -159 448 -172 b 368 -256 448 -237 417 -256 b 290 -247 344 -256 306 -252 l 290 -319 b 378 -330 312 -326 347 -330 z "},"ḉ":{"ha":736,"x_min":0,"x_max":0,"o":"m 309 829 l 402 829 l 591 1071 l 470 1071 z m 378 -330 b 544 -201 482 -330 544 -283 b 401 -92 544 -132 492 -92 l 432 -9 b 663 198 585 7 659 100 l 543 198 b 386 98 530 145 492 98 b 208 298 276 98 208 174 l 208 412 b 386 621 208 537 269 621 b 538 507 498 621 530 549 l 658 507 b 384 725 654 614 563 725 b 86 416 200 725 86 603 l 86 300 b 348 -10 86 120 186 5 l 313 -104 l 313 -159 l 348 -159 b 448 -204 422 -159 448 -172 b 368 -256 448 -237 417 -256 b 290 -247 344 -256 306 -252 l 290 -319 b 378 -330 312 -326 347 -330 z "},"d":{"ha":821,"x_min":0,"x_max":0,"o":"m 363 724 b 86 426 197 724 86 608 l 86 288 b 360 -10 86 106 194 -10 b 574 114 465 -10 553 41 l 581 114 l 581 0 l 699 0 l 699 975 l 576 975 l 576 608 l 570 608 b 363 724 541 680 463 724 z m 388 619 b 576 426 496 619 576 539 l 576 302 b 391 95 576 174 503 95 b 210 314 278 95 210 176 l 210 401 b 388 619 210 538 277 619 z "},"ḋ":{"ha":821,"x_min":0,"x_max":0,"o":"m 565 1131 b 638 1058 565 1091 597 1058 b 711 1131 680 1058 711 1091 b 638 1204 711 1172 680 1204 b 565 1131 597 1204 565 1172 z m 363 724 b 86 426 197 724 86 608 l 86 288 b 360 -10 86 106 194 -10 b 574 114 465 -10 553 41 l 581 114 l 581 0 l 699 0 l 699 975 l 576 975 l 576 608 l 570 608 b 363 724 541 680 463 724 z m 388 619 b 576 426 496 619 576 539 l 576 302 b 391 95 576 174 503 95 b 210 314 278 95 210 176 l 210 401 b 388 619 210 538 277 619 z "},"ḓ":{"ha":821,"x_min":0,"x_max":0,"o":"m 363 724 b 86 426 197 724 86 608 l 86 288 b 360 -10 86 106 194 -10 b 574 114 465 -10 553 41 l 581 114 l 581 0 l 699 0 l 699 975 l 576 975 l 576 608 l 570 608 b 363 724 541 680 463 724 z m 388 619 b 576 426 496 619 576 539 l 576 302 b 391 95 576 174 503 95 b 210 314 278 95 210 176 l 210 401 b 388 619 210 538 277 619 z m 182 -264 l 298 -264 l 408 -170 l 412 -170 l 515 -264 l 634 -264 l 451 -98 l 372 -98 z "},"ḑ":{"ha":821,"x_min":0,"x_max":0,"o":"m 363 724 b 86 426 197 724 86 608 l 86 288 b 360 -10 86 106 194 -10 b 574 114 465 -10 553 41 l 581 114 l 581 0 l 699 0 l 699 975 l 576 975 l 576 608 l 570 608 b 363 724 541 680 463 724 z m 388 619 b 576 426 496 619 576 539 l 576 302 b 391 95 576 174 503 95 b 210 314 278 95 210 176 l 210 401 b 388 619 210 538 277 619 z m 401 -317 l 474 -104 l 367 -104 l 312 -317 z "},"ḏ":{"ha":821,"x_min":0,"x_max":0,"o":"m 363 724 b 86 426 197 724 86 608 l 86 288 b 360 -10 86 106 194 -10 b 574 114 465 -10 553 41 l 581 114 l 581 0 l 699 0 l 699 975 l 576 975 l 576 608 l 570 608 b 363 724 541 680 463 724 z m 388 619 b 576 426 496 619 576 539 l 576 302 b 391 95 576 174 503 95 b 210 314 278 95 210 176 l 210 401 b 388 619 210 538 277 619 z m 612 -220 l 612 -141 l 208 -141 l 208 -220 z "},"ď":{"ha":940,"x_min":0,"x_max":0,"o":"m 363 724 b 86 426 197 724 86 608 l 86 288 b 360 -10 86 106 194 -10 b 574 114 465 -10 553 41 l 581 114 l 581 0 l 699 0 l 699 975 l 576 975 l 576 608 l 570 608 b 363 724 541 680 463 724 z m 830 975 l 830 644 l 910 644 l 940 975 z m 388 619 b 576 426 496 619 576 539 l 576 302 b 391 95 576 174 503 95 b 210 314 278 95 210 176 l 210 401 b 388 619 210 538 277 619 z "},"ḍ":{"ha":821,"x_min":0,"x_max":0,"o":"m 363 724 b 86 426 197 724 86 608 l 86 288 b 360 -10 86 106 194 -10 b 574 114 465 -10 553 41 l 581 114 l 581 0 l 699 0 l 699 975 l 576 975 l 576 608 l 570 608 b 363 724 541 680 463 724 z m 388 619 b 576 426 496 619 576 539 l 576 302 b 391 95 576 174 503 95 b 210 314 278 95 210 176 l 210 401 b 388 619 210 538 277 619 z m 336 -169 b 410 -239 336 -211 368 -239 b 484 -169 453 -239 484 -211 b 410 -97 484 -127 453 -97 b 336 -169 368 -97 336 -127 z "},"đ":{"ha":821,"x_min":0,"x_max":0,"o":"m 575 114 l 581 114 l 581 0 l 699 0 l 699 796 l 787 796 l 787 886 l 698 886 l 698 975 l 578 975 l 578 886 l 400 886 l 400 796 l 576 796 l 576 608 l 570 608 b 363 724 547 667 480 724 b 87 426 195 724 87 605 l 87 288 b 361 -10 87 104 197 -10 b 575 114 484 -10 558 54 z m 388 618 b 576 425 498 618 576 538 l 576 302 b 392 94 576 174 504 94 b 210 313 281 94 210 173 l 210 401 b 388 618 210 538 279 618 z "},"e":{"ha":760,"x_min":0,"x_max":0,"o":"m 391 -12 b 669 176 572 -12 658 100 l 543 176 b 391 92 530 132 474 92 b 208 289 272 92 208 178 l 208 325 l 678 325 l 678 411 b 382 725 678 603 555 725 b 86 411 211 725 86 605 l 86 302 b 391 -12 86 110 199 -12 z m 208 414 l 208 425 b 382 622 208 544 278 622 b 556 425 487 622 556 544 l 556 414 z "},"è":{"ha":760,"x_min":0,"x_max":0,"o":"m 441 829 l 279 1071 l 159 1071 l 347 829 z m 391 -12 b 669 176 572 -12 658 100 l 543 176 b 391 92 530 132 474 92 b 208 289 272 92 208 178 l 208 325 l 678 325 l 678 411 b 382 725 678 603 555 725 b 86 411 211 725 86 605 l 86 302 b 391 -12 86 110 199 -12 z m 208 414 l 208 425 b 382 622 208 544 278 622 b 556 425 487 622 556 544 l 556 414 z "},"ȅ":{"ha":760,"x_min":0,"x_max":0,"o":"m 241 829 l 332 829 l 167 1052 l 46 1052 z m 459 829 l 550 829 l 385 1052 l 263 1052 z m 391 -12 b 669 176 572 -12 658 100 l 543 176 b 391 92 530 132 474 92 b 208 289 272 92 208 178 l 208 325 l 678 325 l 678 411 b 382 725 678 603 555 725 b 86 411 211 725 86 605 l 86 302 b 391 -12 86 110 199 -12 z m 208 414 l 208 425 b 382 622 208 544 278 622 b 556 425 487 622 556 544 l 556 414 z "},"é":{"ha":760,"x_min":0,"x_max":0,"o":"m 320 829 l 414 829 l 603 1071 l 482 1071 z m 391 -12 b 669 176 572 -12 658 100 l 543 176 b 391 92 530 132 474 92 b 208 289 272 92 208 178 l 208 325 l 678 325 l 678 411 b 382 725 678 603 555 725 b 86 411 211 725 86 605 l 86 302 b 391 -12 86 110 199 -12 z m 208 414 l 208 425 b 382 622 208 544 278 622 b 556 425 487 622 556 544 l 556 414 z "},"ê":{"ha":760,"x_min":0,"x_max":0,"o":"m 170 829 l 275 829 l 378 1001 l 382 1001 l 486 829 l 589 829 l 420 1084 l 340 1084 z m 391 -12 b 669 176 572 -12 658 100 l 543 176 b 391 92 530 132 474 92 b 208 289 272 92 208 178 l 208 325 l 678 325 l 678 411 b 382 725 678 603 555 725 b 86 411 211 725 86 605 l 86 302 b 391 -12 86 110 199 -12 z m 208 414 l 208 425 b 382 622 208 544 278 622 b 556 425 487 622 556 544 l 556 414 z "},"ể":{"ha":760,"x_min":0,"x_max":0,"o":"m 478 1126 b 536 1140 488 1131 511 1140 b 607 1081 576 1140 607 1114 b 544 1013 607 1051 589 1032 l 583 959 b 684 1084 642 982 684 1023 b 547 1205 684 1156 629 1205 b 478 1193 517 1205 490 1200 z m 170 829 l 275 829 l 378 952 l 382 952 l 486 829 l 589 829 l 420 1023 l 340 1023 z m 391 -12 b 669 176 572 -12 658 100 l 543 176 b 391 92 530 132 474 92 b 208 289 272 92 208 178 l 208 325 l 678 325 l 678 411 b 382 725 678 603 555 725 b 86 411 211 725 86 605 l 86 302 b 391 -12 86 110 199 -12 z m 208 414 l 208 425 b 382 622 208 544 278 622 b 556 425 487 622 556 544 l 556 414 z "},"ề":{"ha":760,"x_min":0,"x_max":0,"o":"m 711 950 l 551 1187 l 432 1187 l 620 950 z m 170 829 l 275 829 l 378 952 l 382 952 l 486 829 l 589 829 l 420 1023 l 340 1023 z m 391 -12 b 669 176 572 -12 658 100 l 543 176 b 391 92 530 132 474 92 b 208 289 272 92 208 178 l 208 325 l 678 325 l 678 411 b 382 725 678 603 555 725 b 86 411 211 725 86 605 l 86 302 b 391 -12 86 110 199 -12 z m 208 414 l 208 425 b 382 622 208 544 278 622 b 556 425 487 622 556 544 l 556 414 z "},"ễ":{"ha":760,"x_min":0,"x_max":0,"o":"m 261 1082 b 306 1155 265 1131 279 1155 b 460 1068 361 1155 366 1068 b 577 1216 528 1068 577 1125 l 501 1216 b 456 1142 496 1166 483 1142 b 300 1230 400 1142 395 1230 b 185 1082 233 1230 185 1172 z m 170 829 l 275 829 l 378 950 l 382 950 l 486 829 l 589 829 l 420 1020 l 340 1020 z m 391 -12 b 669 176 572 -12 658 100 l 543 176 b 391 92 530 132 474 92 b 208 289 272 92 208 178 l 208 325 l 678 325 l 678 411 b 382 725 678 603 555 725 b 86 411 211 725 86 605 l 86 302 b 391 -12 86 110 199 -12 z m 208 414 l 208 425 b 382 622 208 544 278 622 b 556 425 487 622 556 544 l 556 414 z "},"ệ":{"ha":760,"x_min":0,"x_max":0,"o":"m 170 829 l 275 829 l 378 1001 l 382 1001 l 486 829 l 589 829 l 420 1084 l 340 1084 z m 391 -12 b 669 176 572 -12 658 100 l 543 176 b 391 92 530 132 474 92 b 208 289 272 92 208 178 l 208 325 l 678 325 l 678 411 b 382 725 678 603 555 725 b 86 411 211 725 86 605 l 86 302 b 391 -12 86 110 199 -12 z m 208 414 l 208 425 b 382 622 208 544 278 622 b 556 425 487 622 556 544 l 556 414 z m 307 -169 b 380 -239 307 -211 337 -239 b 454 -169 423 -239 454 -211 b 380 -97 454 -127 423 -97 b 307 -169 337 -97 307 -127 z "},"ế":{"ha":760,"x_min":0,"x_max":0,"o":"m 551 950 l 642 950 l 830 1187 l 711 1187 z m 170 829 l 275 829 l 378 952 l 382 952 l 486 829 l 589 829 l 420 1023 l 340 1023 z m 391 -12 b 669 176 572 -12 658 100 l 543 176 b 391 92 530 132 474 92 b 208 289 272 92 208 178 l 208 325 l 678 325 l 678 411 b 382 725 678 603 555 725 b 86 411 211 725 86 605 l 86 302 b 391 -12 86 110 199 -12 z m 208 414 l 208 425 b 382 622 208 544 278 622 b 556 425 487 622 556 544 l 556 414 z "},"ë":{"ha":760,"x_min":0,"x_max":0,"o":"m 505 829 b 580 901 547 829 580 860 b 505 974 580 943 547 974 b 430 901 463 974 430 943 b 505 829 430 860 463 829 z m 256 829 b 330 901 298 829 330 860 b 256 974 330 943 297 974 b 180 901 214 974 180 943 b 256 829 180 860 214 829 z m 391 -12 b 669 176 572 -12 658 100 l 543 176 b 391 92 530 132 474 92 b 208 289 272 92 208 178 l 208 325 l 678 325 l 678 411 b 382 725 678 603 555 725 b 86 411 211 725 86 605 l 86 302 b 391 -12 86 110 199 -12 z m 208 414 l 208 425 b 382 622 208 544 278 622 b 556 425 487 622 556 544 l 556 414 z "},"ẹ":{"ha":760,"x_min":0,"x_max":0,"o":"m 391 -12 b 669 176 572 -12 658 100 l 543 176 b 391 92 530 132 474 92 b 208 289 272 92 208 178 l 208 325 l 678 325 l 678 411 b 382 725 678 603 555 725 b 86 411 211 725 86 605 l 86 302 b 391 -12 86 110 199 -12 z m 208 414 l 208 425 b 382 622 208 544 278 622 b 556 425 487 622 556 544 l 556 414 z m 307 -169 b 380 -239 307 -211 337 -239 b 454 -169 423 -239 454 -211 b 380 -97 454 -127 423 -97 b 307 -169 337 -97 307 -127 z "},"ȇ":{"ha":760,"x_min":0,"x_max":0,"o":"m 182 833 l 266 833 b 380 945 266 899 310 945 b 494 833 450 945 494 899 l 577 833 b 380 1021 577 942 495 1021 b 182 833 266 1021 183 942 z m 391 -12 b 669 176 572 -12 658 100 l 543 176 b 391 92 530 132 474 92 b 208 289 272 92 208 178 l 208 325 l 678 325 l 678 411 b 382 725 678 603 555 725 b 86 411 211 725 86 605 l 86 302 b 391 -12 86 110 199 -12 z m 208 414 l 208 425 b 382 622 208 544 278 622 b 556 425 487 622 556 544 l 556 414 z "},"ẻ":{"ha":760,"x_min":0,"x_max":0,"o":"m 285 980 b 350 989 299 985 323 989 b 419 935 390 989 419 968 b 353 861 419 909 402 888 l 397 803 b 504 939 454 833 504 869 b 358 1062 504 1017 445 1062 b 285 1050 327 1062 301 1057 z m 391 -12 b 669 176 572 -12 658 100 l 543 176 b 391 92 530 132 474 92 b 208 289 272 92 208 178 l 208 325 l 678 325 l 678 411 b 382 725 678 603 555 725 b 86 411 211 725 86 605 l 86 302 b 391 -12 86 110 199 -12 z m 208 414 l 208 425 b 382 622 208 544 278 622 b 556 425 487 622 556 544 l 556 414 z "},"ě":{"ha":760,"x_min":0,"x_max":0,"o":"m 171 1082 l 340 827 l 422 827 l 585 1082 l 481 1082 l 382 904 l 379 904 l 275 1082 z m 391 -12 b 669 176 572 -12 658 100 l 543 176 b 391 92 530 132 474 92 b 208 289 272 92 208 178 l 208 325 l 678 325 l 678 411 b 382 725 678 603 555 725 b 86 411 211 725 86 605 l 86 302 b 391 -12 86 110 199 -12 z m 208 414 l 208 425 b 382 622 208 544 278 622 b 556 425 487 622 556 544 l 556 414 z "},"ē":{"ha":760,"x_min":0,"x_max":0,"o":"m 583 848 l 583 928 l 178 928 l 178 848 z m 391 -12 b 669 176 572 -12 658 100 l 543 176 b 391 92 530 132 474 92 b 208 289 272 92 208 178 l 208 325 l 678 325 l 678 411 b 382 725 678 603 555 725 b 86 411 211 725 86 605 l 86 302 b 391 -12 86 110 199 -12 z m 208 414 l 208 425 b 382 622 208 544 278 622 b 556 425 487 622 556 544 l 556 414 z "},"ḕ":{"ha":760,"x_min":0,"x_max":0,"o":"m 441 1036 l 279 1277 l 159 1277 l 347 1036 z m 583 848 l 583 927 l 178 927 l 178 848 z m 391 -12 b 669 176 572 -12 658 100 l 543 176 b 391 92 530 132 474 92 b 208 289 272 92 208 178 l 208 325 l 678 325 l 678 411 b 382 725 678 603 555 725 b 86 411 211 725 86 605 l 86 302 b 391 -12 86 110 199 -12 z m 208 414 l 208 425 b 382 622 208 544 278 622 b 556 425 487 622 556 544 l 556 414 z "},"ḗ":{"ha":760,"x_min":0,"x_max":0,"o":"m 321 1036 l 415 1036 l 604 1277 l 483 1277 z m 583 848 l 583 927 l 178 927 l 178 848 z m 391 -12 b 669 176 572 -12 658 100 l 543 176 b 391 92 530 132 474 92 b 208 289 272 92 208 178 l 208 325 l 678 325 l 678 411 b 382 725 678 603 555 725 b 86 411 211 725 86 605 l 86 302 b 391 -12 86 110 199 -12 z m 208 414 l 208 425 b 382 622 208 544 278 622 b 556 425 487 622 556 544 l 556 414 z "},"ẽ":{"ha":760,"x_min":0,"x_max":0,"o":"m 465 823 b 591 994 541 823 591 893 l 511 994 b 463 905 507 935 490 905 b 301 1006 412 905 401 1006 b 174 836 221 1006 174 940 l 254 836 b 304 925 258 897 272 925 b 465 823 362 925 372 823 z m 391 -12 b 669 176 572 -12 658 100 l 543 176 b 391 92 530 132 474 92 b 208 289 272 92 208 178 l 208 325 l 678 325 l 678 411 b 382 725 678 603 555 725 b 86 411 211 725 86 605 l 86 302 b 391 -12 86 110 199 -12 z m 208 414 l 208 425 b 382 622 208 544 278 622 b 556 425 487 622 556 544 l 556 414 z "},"ḙ":{"ha":760,"x_min":0,"x_max":0,"o":"m 391 -12 b 669 176 572 -12 658 100 l 543 176 b 391 92 530 132 474 92 b 208 289 272 92 208 178 l 208 325 l 678 325 l 678 411 b 382 725 678 603 555 725 b 86 411 211 725 86 605 l 86 302 b 391 -12 86 110 199 -12 z m 208 414 l 208 425 b 382 622 208 544 278 622 b 556 425 487 622 556 544 l 556 414 z m 153 -264 l 269 -264 l 378 -170 l 382 -170 l 486 -264 l 604 -264 l 421 -98 l 342 -98 z "},"ĕ":{"ha":760,"x_min":0,"x_max":0,"o":"m 182 1013 b 380 826 182 904 265 826 b 577 1013 494 826 576 905 l 494 1013 b 380 902 494 947 450 902 b 266 1013 310 902 266 947 z m 391 -12 b 669 176 572 -12 658 100 l 543 176 b 391 92 530 132 474 92 b 208 289 272 92 208 178 l 208 325 l 678 325 l 678 411 b 382 725 678 603 555 725 b 86 411 211 725 86 605 l 86 302 b 391 -12 86 110 199 -12 z m 208 414 l 208 425 b 382 622 208 544 278 622 b 556 425 487 622 556 544 l 556 414 z "},"ḛ":{"ha":760,"x_min":0,"x_max":0,"o":"m 391 -12 b 669 176 572 -12 658 100 l 543 176 b 391 92 530 132 474 92 b 208 289 272 92 208 178 l 208 325 l 678 325 l 678 411 b 382 725 678 603 555 725 b 86 411 211 725 86 605 l 86 302 b 391 -12 86 110 199 -12 z m 208 414 l 208 425 b 382 622 208 544 278 622 b 556 425 487 622 556 544 l 556 414 z m 463 -256 b 591 -112 547 -256 591 -182 l 513 -112 b 461 -183 512 -145 496 -183 b 294 -101 410 -183 380 -101 b 172 -245 213 -101 172 -172 l 250 -245 b 298 -174 252 -220 260 -174 b 463 -256 349 -174 374 -256 z "},"ė":{"ha":760,"x_min":0,"x_max":0,"o":"m 303 916 b 379 842 303 874 337 842 b 454 916 420 842 454 874 b 379 989 454 957 420 989 b 303 916 337 989 303 957 z m 391 -12 b 669 176 572 -12 658 100 l 543 176 b 391 92 530 132 474 92 b 208 289 272 92 208 178 l 208 325 l 678 325 l 678 411 b 382 725 678 603 555 725 b 86 411 211 725 86 605 l 86 302 b 391 -12 86 110 199 -12 z m 208 414 l 208 425 b 382 622 208 544 278 622 b 556 425 487 622 556 544 l 556 414 z "},"ȩ":{"ha":760,"x_min":0,"x_max":0,"o":"m 374 -330 b 540 -201 479 -330 540 -283 b 397 -92 540 -132 488 -92 l 429 -10 b 669 176 584 4 659 106 l 543 176 b 391 93 530 132 474 93 b 208 290 272 93 208 179 l 208 325 l 678 325 l 678 411 b 382 725 678 603 555 725 b 86 411 211 725 86 605 l 86 302 b 345 -9 86 125 181 9 l 309 -104 l 309 -159 l 345 -159 b 444 -204 418 -159 444 -172 b 365 -256 444 -237 413 -256 b 286 -247 340 -256 302 -252 l 286 -319 b 374 -330 309 -326 344 -330 z m 208 414 l 208 425 b 382 623 208 544 278 623 b 556 425 487 623 556 544 l 556 414 z "},"ḝ":{"ha":760,"x_min":0,"x_max":0,"o":"m 182 1013 b 380 826 182 904 265 826 b 577 1013 494 826 576 905 l 494 1013 b 380 902 494 947 450 902 b 266 1013 310 902 266 947 z m 374 -330 b 540 -201 479 -330 540 -283 b 397 -92 540 -132 488 -92 l 429 -10 b 669 176 584 4 659 106 l 543 176 b 391 93 530 132 474 93 b 208 290 272 93 208 179 l 208 325 l 678 325 l 678 411 b 382 725 678 603 555 725 b 86 411 211 725 86 605 l 86 302 b 345 -9 86 125 181 9 l 309 -104 l 309 -159 l 345 -159 b 444 -204 418 -159 444 -172 b 365 -256 444 -237 413 -256 b 286 -247 340 -256 302 -252 l 286 -319 b 374 -330 309 -326 344 -330 z m 208 414 l 208 425 b 382 623 208 544 278 623 b 556 425 487 623 556 544 l 556 414 z "},"ę":{"ha":760,"x_min":0,"x_max":0,"o":"m 627 -165 b 576 -171 614 -168 591 -171 b 497 -99 534 -171 497 -146 b 570 29 497 -49 531 -12 b 669 176 608 70 650 113 l 543 176 b 392 93 530 132 473 93 b 208 290 271 93 208 179 l 208 325 l 678 325 l 678 410 b 382 726 678 603 555 726 b 86 410 210 726 86 605 l 86 302 b 371 -11 86 110 207 -11 b 464 13 400 -11 440 -3 l 467 7 b 396 -131 435 -19 396 -62 b 547 -262 396 -218 469 -262 b 627 -250 591 -262 618 -254 z m 208 414 l 208 426 b 382 623 208 545 278 623 b 556 426 487 623 556 544 l 556 414 z "},"f":{"ha":544,"x_min":0,"x_max":0,"o":"m 182 0 l 304 0 l 304 612 l 469 612 l 469 711 l 303 711 l 303 773 b 423 882 303 858 339 882 b 487 880 441 882 476 881 l 487 979 b 406 983 473 980 437 983 b 182 783 246 983 182 920 l 182 711 l 62 711 l 62 612 l 182 612 z "},"ḟ":{"ha":544,"x_min":0,"x_max":0,"o":"m 199 1140 b 272 1067 199 1100 231 1067 b 345 1140 313 1067 345 1100 b 272 1213 345 1181 313 1213 b 199 1140 231 1213 199 1181 z m 182 0 l 304 0 l 304 612 l 469 612 l 469 711 l 303 711 l 303 773 b 423 882 303 858 339 882 b 487 880 441 882 476 881 l 487 979 b 406 983 473 980 437 983 b 182 783 246 983 182 920 l 182 711 l 62 711 l 62 612 l 182 612 z "},"g":{"ha":797,"x_min":0,"x_max":0,"o":"m 378 -158 b 218 -66 285 -158 227 -116 l 93 -66 b 374 -261 102 -170 192 -261 b 688 22 557 -261 688 -175 l 688 713 l 571 713 l 571 606 l 565 606 b 358 724 541 664 465 724 b 77 423 200 724 77 611 l 77 313 b 359 13 77 125 201 13 b 559 125 458 13 531 63 l 566 125 l 566 21 b 378 -158 566 -91 504 -158 z m 389 619 b 566 420 500 619 566 524 l 566 312 b 390 116 566 210 504 116 b 201 334 279 116 201 203 l 201 401 b 389 619 201 531 273 619 z "},"ǵ":{"ha":797,"x_min":0,"x_max":0,"o":"m 338 829 l 433 829 l 621 1071 l 500 1071 z m 378 -158 b 218 -66 285 -158 227 -116 l 93 -66 b 374 -261 102 -170 192 -261 b 688 22 557 -261 688 -175 l 688 713 l 571 713 l 571 606 l 565 606 b 358 724 541 664 465 724 b 77 423 200 724 77 611 l 77 313 b 359 13 77 125 201 13 b 559 125 458 13 531 63 l 566 125 l 566 21 b 378 -158 566 -91 504 -158 z m 389 619 b 566 420 500 619 566 524 l 566 312 b 390 116 566 210 504 116 b 201 334 279 116 201 203 l 201 401 b 389 619 201 531 273 619 z "},"ǧ":{"ha":797,"x_min":0,"x_max":0,"o":"m 189 1082 l 359 827 l 441 827 l 603 1082 l 499 1082 l 400 904 l 397 904 l 293 1082 z m 378 -158 b 218 -66 285 -158 227 -116 l 93 -66 b 374 -261 102 -170 192 -261 b 688 22 557 -261 688 -175 l 688 713 l 571 713 l 571 606 l 565 606 b 358 724 541 664 465 724 b 77 423 200 724 77 611 l 77 313 b 359 13 77 125 201 13 b 559 125 458 13 531 63 l 566 125 l 566 21 b 378 -158 566 -91 504 -158 z m 389 619 b 566 420 500 619 566 524 l 566 312 b 390 116 566 210 504 116 b 201 334 279 116 201 203 l 201 401 b 389 619 201 531 273 619 z "},"ĝ":{"ha":797,"x_min":0,"x_max":0,"o":"m 189 829 l 293 829 l 397 1001 l 400 1001 l 504 829 l 608 829 l 439 1084 l 358 1084 z m 378 -158 b 218 -66 285 -158 227 -116 l 93 -66 b 374 -261 102 -170 192 -261 b 688 22 557 -261 688 -175 l 688 713 l 571 713 l 571 606 l 565 606 b 358 724 541 664 465 724 b 77 423 200 724 77 611 l 77 313 b 359 13 77 125 201 13 b 559 125 458 13 531 63 l 566 125 l 566 21 b 378 -158 566 -91 504 -158 z m 389 619 b 566 420 500 619 566 524 l 566 312 b 390 116 566 210 504 116 b 201 334 279 116 201 203 l 201 401 b 389 619 201 531 273 619 z "},"ğ":{"ha":797,"x_min":0,"x_max":0,"o":"m 201 1013 b 399 826 201 904 283 826 b 595 1013 513 826 595 905 l 513 1013 b 399 902 513 947 469 902 b 285 1013 329 902 285 947 z m 378 -158 b 218 -66 285 -158 227 -116 l 93 -66 b 374 -261 102 -170 192 -261 b 688 22 557 -261 688 -175 l 688 713 l 571 713 l 571 606 l 565 606 b 358 724 541 664 465 724 b 77 423 200 724 77 611 l 77 313 b 359 13 77 125 201 13 b 559 125 458 13 531 63 l 566 125 l 566 21 b 378 -158 566 -91 504 -158 z m 389 619 b 566 420 500 619 566 524 l 566 312 b 390 116 566 210 504 116 b 201 334 279 116 201 203 l 201 401 b 389 619 201 531 273 619 z "},"ḡ":{"ha":797,"x_min":0,"x_max":0,"o":"m 601 848 l 601 928 l 196 928 l 196 848 z m 378 -158 b 218 -66 285 -158 227 -116 l 93 -66 b 374 -261 102 -170 192 -261 b 688 22 557 -261 688 -175 l 688 713 l 571 713 l 571 606 l 565 606 b 358 724 541 664 465 724 b 77 423 200 724 77 611 l 77 313 b 359 13 77 125 201 13 b 559 125 458 13 531 63 l 566 125 l 566 21 b 378 -158 566 -91 504 -158 z m 389 619 b 566 420 500 619 566 524 l 566 312 b 390 116 566 210 504 116 b 201 334 279 116 201 203 l 201 401 b 389 619 201 531 273 619 z "},"ġ":{"ha":797,"x_min":0,"x_max":0,"o":"m 321 916 b 397 842 321 874 356 842 b 473 916 439 842 473 874 b 397 989 473 957 439 989 b 321 916 356 989 321 957 z m 378 -158 b 218 -66 285 -158 227 -116 l 93 -66 b 374 -261 102 -170 192 -261 b 688 22 557 -261 688 -175 l 688 713 l 571 713 l 571 606 l 565 606 b 358 724 541 664 465 724 b 77 423 200 724 77 611 l 77 313 b 359 13 77 125 201 13 b 559 125 458 13 531 63 l 566 125 l 566 21 b 378 -158 566 -91 504 -158 z m 389 619 b 566 420 500 619 566 524 l 566 312 b 390 116 566 210 504 116 b 201 334 279 116 201 203 l 201 401 b 389 619 201 531 273 619 z "},"ģ":{"ha":797,"x_min":0,"x_max":0,"o":"m 388 1076 l 311 849 l 425 849 l 483 1076 z m 378 -158 b 218 -66 285 -158 227 -116 l 93 -66 b 374 -261 102 -170 192 -261 b 688 22 557 -261 688 -175 l 688 713 l 571 713 l 571 606 l 565 606 b 358 724 541 664 465 724 b 77 423 200 724 77 611 l 77 313 b 359 13 77 125 201 13 b 559 125 458 13 531 63 l 566 125 l 566 21 b 378 -158 566 -91 504 -158 z m 389 619 b 566 420 500 619 566 524 l 566 312 b 390 116 566 210 504 116 b 201 334 279 116 201 203 l 201 401 b 389 619 201 531 273 619 z "},"h":{"ha":829,"x_min":0,"x_max":0,"o":"m 123 0 l 245 0 l 245 397 b 431 618 245 522 309 618 b 589 447 528 618 589 559 l 589 0 l 712 0 l 712 486 b 473 725 712 646 610 725 b 252 584 324 725 266 633 l 245 584 l 245 975 l 123 975 z "},"ḧ":{"ha":829,"x_min":0,"x_max":0,"o":"m 300 1049 b 372 1119 340 1049 372 1080 b 300 1190 372 1158 340 1190 b 228 1119 259 1190 228 1158 b 300 1049 228 1080 259 1049 z m 63 1049 b 135 1119 104 1049 135 1080 b 63 1190 135 1158 104 1190 b -9 1119 22 1190 -9 1158 b 63 1049 -9 1080 22 1049 z m 123 0 l 245 0 l 245 397 b 431 618 245 522 309 618 b 589 447 528 618 589 559 l 589 0 l 712 0 l 712 486 b 473 725 712 646 610 725 b 252 584 324 725 266 633 l 245 584 l 245 975 l 123 975 z "},"ȟ":{"ha":829,"x_min":0,"x_max":0,"o":"m -45 1233 l 137 1067 l 218 1067 l 406 1233 l 290 1233 l 181 1137 l 176 1137 l 73 1233 z m 123 0 l 245 0 l 245 397 b 431 618 245 522 309 618 b 589 447 528 618 589 559 l 589 0 l 712 0 l 712 486 b 473 725 712 646 610 725 b 252 584 324 725 266 633 l 245 584 l 245 975 l 123 975 z "},"ĥ":{"ha":829,"x_min":0,"x_max":0,"o":"m 223 1232 l 144 1232 l -45 1066 l 70 1066 l 180 1162 l 184 1162 l 288 1066 l 406 1066 z m 123 0 l 245 0 l 245 397 b 431 618 245 522 309 618 b 589 447 528 618 589 559 l 589 0 l 712 0 l 712 486 b 473 725 712 646 610 725 b 252 584 324 725 266 633 l 245 584 l 245 975 l 123 975 z "},"ḥ":{"ha":829,"x_min":0,"x_max":0,"o":"m 123 0 l 245 0 l 245 397 b 431 618 245 522 309 618 b 589 447 528 618 589 559 l 589 0 l 712 0 l 712 486 b 473 725 712 646 610 725 b 252 584 324 725 266 633 l 245 584 l 245 975 l 123 975 z m 336 -169 b 410 -239 336 -211 367 -239 b 484 -169 453 -239 484 -211 b 410 -97 484 -127 453 -97 b 336 -169 367 -97 336 -127 z "},"ḣ":{"ha":829,"x_min":0,"x_max":0,"o":"m 109 1131 b 182 1058 109 1091 141 1058 b 256 1131 223 1058 256 1091 b 182 1204 256 1172 223 1204 b 109 1131 141 1204 109 1172 z m 123 0 l 245 0 l 245 397 b 431 618 245 522 309 618 b 589 447 528 618 589 559 l 589 0 l 712 0 l 712 486 b 473 725 712 646 610 725 b 252 584 324 725 266 633 l 245 584 l 245 975 l 123 975 z "},"ḫ":{"ha":829,"x_min":0,"x_max":0,"o":"m 123 0 l 245 0 l 245 397 b 431 618 245 522 309 618 b 589 447 528 618 589 559 l 589 0 l 712 0 l 712 486 b 473 725 712 646 610 725 b 252 584 324 725 266 633 l 245 584 l 245 975 l 123 975 z m 613 -95 l 530 -95 b 410 -206 530 -152 492 -206 b 290 -95 328 -206 290 -152 l 201 -95 b 410 -282 201 -184 262 -282 b 613 -95 557 -282 613 -181 z "},"ḩ":{"ha":829,"x_min":0,"x_max":0,"o":"m 162 0 l 121 -104 l 121 -159 l 157 -159 b 256 -204 231 -159 256 -172 b 177 -256 256 -237 226 -256 b 98 -247 153 -256 115 -252 l 98 -319 b 186 -330 121 -326 156 -330 b 353 -201 291 -330 353 -283 b 210 -92 353 -132 300 -92 l 245 0 l 245 397 b 431 618 245 522 309 618 b 589 447 528 618 589 559 l 589 0 l 712 0 l 712 486 b 473 725 712 646 610 725 b 252 584 324 725 266 633 l 245 584 l 245 975 l 123 975 l 123 0 z "},"ħ":{"ha":829,"x_min":0,"x_max":0,"o":"m 245 397 b 431 618 245 520 309 618 b 589 447 530 618 589 557 l 589 0 l 712 0 l 712 486 b 473 725 712 645 611 725 b 252 584 327 725 267 635 l 245 584 l 245 796 l 427 796 l 427 886 l 244 886 l 244 975 l 124 975 l 124 886 l 41 886 l 41 796 l 123 796 l 123 0 l 245 0 z "},"ẖ":{"ha":829,"x_min":0,"x_max":0,"o":"m 123 0 l 245 0 l 245 397 b 431 618 245 522 309 618 b 589 447 528 618 589 559 l 589 0 l 712 0 l 712 486 b 473 725 712 646 610 725 b 252 584 324 725 266 633 l 245 584 l 245 975 l 123 975 z m 612 -220 l 612 -141 l 208 -141 l 208 -220 z "},"i":{"ha":398,"x_min":0,"x_max":0,"o":"m 112 933 b 198 849 112 884 149 849 b 287 933 250 849 287 884 b 198 1018 287 983 250 1018 b 112 933 149 1018 112 983 z m 138 0 l 260 0 l 260 713 l 138 713 z "},"ì":{"ha":398,"x_min":0,"x_max":0,"o":"m 260 829 l 98 1071 l -22 1071 l 166 829 z m 138 0 l 260 0 l 260 713 l 138 713 z "},"ȉ":{"ha":398,"x_min":0,"x_max":0,"o":"m 60 829 l 151 829 l -14 1052 l -136 1052 z m 278 829 l 369 829 l 204 1052 l 82 1052 z m 138 0 l 260 0 l 260 713 l 138 713 z "},"í":{"ha":398,"x_min":0,"x_max":0,"o":"m 139 829 l 233 829 l 422 1071 l 301 1071 z m 138 0 l 260 0 l 260 713 l 138 713 z "},"î":{"ha":398,"x_min":0,"x_max":0,"o":"m -11 829 l 93 829 l 197 1001 l 201 1001 l 304 829 l 408 829 l 239 1084 l 158 1084 z m 138 0 l 260 0 l 260 713 l 138 713 z "},"ǐ":{"ha":398,"x_min":0,"x_max":0,"o":"m -7 1082 l 161 827 l 243 827 l 406 1082 l 302 1082 l 203 904 l 200 904 l 96 1082 z m 138 0 l 260 0 l 260 713 l 138 713 z "},"ï":{"ha":398,"x_min":0,"x_max":0,"o":"m 323 829 b 399 901 366 829 399 860 b 323 974 399 943 366 974 b 248 901 281 974 248 943 b 323 829 248 860 281 829 z m 74 829 b 149 901 116 829 149 860 b 74 974 149 943 116 974 b -1 901 32 974 -1 943 b 74 829 -1 860 33 829 z m 138 0 l 260 0 l 260 713 l 138 713 z "},"ḯ":{"ha":398,"x_min":0,"x_max":0,"o":"m 140 1038 l 234 1038 l 422 1279 l 302 1279 z m 323 828 b 399 901 366 828 399 859 b 323 972 399 942 366 972 b 248 901 281 972 248 942 b 323 828 248 859 281 828 z m 74 828 b 149 901 116 828 149 859 b 74 972 149 942 116 972 b -1 901 32 972 -1 942 b 74 828 -1 859 33 828 z m 138 0 l 260 0 l 260 713 l 138 713 z "},"ĭ":{"ha":398,"x_min":0,"x_max":0,"o":"m 2 1013 b 199 826 2 904 85 826 b 397 1013 313 826 396 905 l 313 1013 b 199 902 313 947 269 902 b 85 1013 130 902 85 947 z m 138 0 l 260 0 l 260 713 l 138 713 z "},"ị":{"ha":398,"x_min":0,"x_max":0,"o":"m 112 933 b 198 849 112 884 149 849 b 287 933 250 849 287 884 b 198 1018 287 983 250 1018 b 112 933 149 1018 112 983 z m 138 0 l 260 0 l 260 713 l 138 713 z m 125 -169 b 199 -239 125 -211 157 -239 b 273 -169 242 -239 273 -211 b 199 -97 273 -127 242 -97 b 125 -169 157 -97 125 -127 z "},"ȋ":{"ha":398,"x_min":0,"x_max":0,"o":"m 1 833 l 85 833 b 199 945 85 899 129 945 b 313 833 269 945 313 899 l 396 833 b 199 1021 396 942 313 1021 b 1 833 85 1021 2 942 z m 138 0 l 260 0 l 260 713 l 138 713 z "},"ī":{"ha":398,"x_min":0,"x_max":0,"o":"m 401 848 l 401 928 l -3 928 l -3 848 z m 138 0 l 260 0 l 260 713 l 138 713 z "},"ḭ":{"ha":398,"x_min":0,"x_max":0,"o":"m 112 933 b 198 849 112 884 149 849 b 287 933 250 849 287 884 b 198 1018 287 983 250 1018 b 112 933 149 1018 112 983 z m 138 0 l 260 0 l 260 713 l 138 713 z m 281 -256 b 410 -112 366 -256 410 -182 l 332 -112 b 280 -183 331 -145 315 -183 b 113 -101 229 -183 199 -101 b -9 -245 32 -101 -9 -172 l 69 -245 b 118 -174 71 -220 79 -174 b 281 -256 168 -174 193 -256 z "},"ỉ":{"ha":398,"x_min":0,"x_max":0,"o":"m 104 980 b 169 989 118 985 142 989 b 238 935 208 989 238 968 b 172 861 238 909 221 888 l 216 803 b 323 939 273 833 323 869 b 177 1062 323 1017 264 1062 b 104 1050 146 1062 120 1057 z m 138 0 l 260 0 l 260 713 l 138 713 z "},"ĩ":{"ha":398,"x_min":0,"x_max":0,"o":"m 283 823 b 410 994 359 823 410 893 l 330 994 b 281 905 326 935 309 905 b 120 1006 231 905 220 1006 b -7 836 40 1006 -7 940 l 73 836 b 122 925 76 897 91 925 b 283 823 181 925 190 823 z m 138 0 l 260 0 l 260 713 l 138 713 z "},"į":{"ha":398,"x_min":0,"x_max":0,"o":"m 112 933 b 198 849 112 885 149 849 b 287 933 250 849 287 885 b 198 1018 287 982 250 1018 b 112 933 149 1018 112 982 z m 276 -169 b 222 -175 260 -173 236 -175 b 142 -106 175 -175 142 -152 b 260 7 142 -43 208 -9 l 260 713 l 138 713 l 138 22 b 37 -129 93 -1 37 -47 b 195 -262 37 -218 103 -262 b 276 -249 232 -262 264 -254 z "},"j":{"ha":398,"x_min":0,"x_max":0,"o":"m 112 933 b 198 849 112 884 149 849 b 287 933 250 849 287 884 b 198 1018 287 983 250 1018 b 112 933 149 1018 112 983 z m 260 713 l 138 713 l 138 -16 b 39 -151 138 -109 113 -151 b -5 -148 23 -151 5 -150 l -5 -244 b 63 -250 5 -247 40 -250 b 260 -17 186 -250 260 -182 z "},"ĵ":{"ha":398,"x_min":0,"x_max":0,"o":"m -9 829 l 94 829 l 198 1001 l 202 1001 l 306 829 l 410 829 l 241 1084 l 159 1084 z m 260 713 l 138 713 l 138 -20 b 39 -156 138 -114 112 -156 b -5 -153 23 -156 5 -155 l -5 -249 b 63 -255 5 -252 40 -255 b 260 -22 185 -255 260 -188 z "},"k":{"ha":728,"x_min":0,"x_max":0,"o":"m 245 262 l 310 328 l 551 0 l 698 0 l 400 404 l 680 713 l 538 713 l 250 393 l 245 393 l 245 975 l 123 975 l 123 0 l 245 0 z "},"ḱ":{"ha":728,"x_min":0,"x_max":0,"o":"m 134 1074 l 227 1074 l 416 1293 l 296 1293 z m 245 262 l 310 328 l 551 0 l 698 0 l 400 404 l 680 713 l 538 713 l 250 393 l 245 393 l 245 975 l 123 975 l 123 0 l 245 0 z "},"ǩ":{"ha":728,"x_min":0,"x_max":0,"o":"m -46 1233 l 137 1067 l 217 1067 l 406 1233 l 290 1233 l 181 1137 l 176 1137 l 73 1233 z m 245 262 l 310 328 l 551 0 l 698 0 l 400 404 l 680 713 l 538 713 l 250 393 l 245 393 l 245 975 l 123 975 l 123 0 l 245 0 z "},"ḳ":{"ha":728,"x_min":0,"x_max":0,"o":"m 245 262 l 310 328 l 551 0 l 698 0 l 400 404 l 680 713 l 538 713 l 250 393 l 245 393 l 245 975 l 123 975 l 123 0 l 245 0 z m 308 -169 b 381 -239 308 -211 338 -239 b 455 -169 424 -239 455 -211 b 381 -97 455 -127 424 -97 b 308 -169 338 -97 308 -127 z "},"ḵ":{"ha":728,"x_min":0,"x_max":0,"o":"m 245 262 l 310 328 l 551 0 l 698 0 l 400 404 l 680 713 l 538 713 l 250 393 l 245 393 l 245 975 l 123 975 l 123 0 l 245 0 z m 584 -220 l 584 -141 l 179 -141 l 179 -220 z "},"ķ":{"ha":728,"x_min":0,"x_max":0,"o":"m 245 262 l 310 328 l 551 0 l 698 0 l 400 404 l 680 713 l 538 713 l 250 393 l 245 393 l 245 975 l 123 975 l 123 0 l 245 0 z m 373 -317 l 445 -104 l 338 -104 l 283 -317 z "},"l":{"ha":372,"x_min":0,"x_max":0,"o":"m 125 0 l 248 0 l 248 975 l 125 975 z "},"ĺ":{"ha":372,"x_min":0,"x_max":0,"o":"m 139 1074 l 231 1074 l 420 1293 l 300 1293 z m 125 0 l 248 0 l 248 975 l 125 975 z "},"ḽ":{"ha":372,"x_min":0,"x_max":0,"o":"m 125 0 l 248 0 l 248 975 l 125 975 z m -41 -264 l 75 -264 l 184 -170 l 189 -170 l 292 -264 l 411 -264 l 228 -98 l 149 -98 z "},"ḷ":{"ha":372,"x_min":0,"x_max":0,"o":"m 125 0 l 248 0 l 248 975 l 125 975 z m 113 -169 b 186 -239 113 -211 144 -239 b 260 -169 229 -239 260 -211 b 186 -97 260 -127 229 -97 b 113 -169 144 -97 113 -127 z "},"ḹ":{"ha":372,"x_min":0,"x_max":0,"o":"m 387 1074 l 387 1149 l -14 1149 l -14 1074 z m 125 0 l 248 0 l 248 975 l 125 975 z m 113 -169 b 186 -239 113 -211 144 -239 b 260 -169 229 -239 260 -211 b 186 -97 260 -127 229 -97 b 113 -169 144 -97 113 -127 z "},"ḻ":{"ha":372,"x_min":0,"x_max":0,"o":"m 125 0 l 248 0 l 248 975 l 125 975 z m 389 -220 l 389 -141 l -16 -141 l -16 -220 z "},"ļ":{"ha":372,"x_min":0,"x_max":0,"o":"m 125 0 l 248 0 l 248 975 l 125 975 z m 178 -317 l 250 -104 l 144 -104 l 88 -317 z "},"ľ":{"ha":476,"x_min":0,"x_max":0,"o":"m 125 0 l 248 0 l 248 975 l 125 975 z m 368 975 l 368 644 l 447 644 l 477 975 z "},"ł":{"ha":419,"x_min":0,"x_max":0,"o":"m 271 0 l 271 496 l 374 568 l 374 688 l 271 616 l 271 975 l 149 975 l 149 534 l 44 462 l 44 345 l 149 416 l 149 0 z "},"m":{"ha":1215,"x_min":0,"x_max":0,"o":"m 121 0 l 243 0 l 243 454 b 397 618 243 551 308 618 b 549 463 491 618 549 555 l 549 0 l 670 0 l 670 452 b 827 618 670 550 739 618 b 975 467 924 618 975 559 l 975 0 l 1098 0 l 1098 502 b 863 725 1098 645 1009 725 b 646 591 743 725 675 661 l 640 591 b 442 725 618 667 550 725 b 249 600 311 725 265 650 l 242 600 l 242 713 l 121 713 z "},"ḿ":{"ha":1215,"x_min":0,"x_max":0,"o":"m 548 829 l 642 829 l 830 1071 l 710 1071 z m 121 0 l 243 0 l 243 454 b 397 618 243 551 308 618 b 549 463 491 618 549 555 l 549 0 l 670 0 l 670 452 b 827 618 670 550 739 618 b 975 467 924 618 975 559 l 975 0 l 1098 0 l 1098 502 b 863 725 1098 645 1009 725 b 646 591 743 725 675 661 l 640 591 b 442 725 618 667 550 725 b 249 600 311 725 265 650 l 242 600 l 242 713 l 121 713 z "},"ṁ":{"ha":1215,"x_min":0,"x_max":0,"o":"m 531 916 b 606 842 531 874 565 842 b 682 916 648 842 682 874 b 606 989 682 957 648 989 b 531 916 565 989 531 957 z m 121 0 l 243 0 l 243 454 b 397 618 243 551 308 618 b 549 463 491 618 549 555 l 549 0 l 670 0 l 670 452 b 827 618 670 550 739 618 b 975 467 924 618 975 559 l 975 0 l 1098 0 l 1098 502 b 863 725 1098 645 1009 725 b 646 591 743 725 675 661 l 640 591 b 442 725 618 667 550 725 b 249 600 311 725 265 650 l 242 600 l 242 713 l 121 713 z "},"ṃ":{"ha":1215,"x_min":0,"x_max":0,"o":"m 121 0 l 243 0 l 243 454 b 397 618 243 551 308 618 b 549 463 491 618 549 555 l 549 0 l 670 0 l 670 452 b 827 618 670 550 739 618 b 975 467 924 618 975 559 l 975 0 l 1098 0 l 1098 502 b 863 725 1098 645 1009 725 b 646 591 743 725 675 661 l 640 591 b 442 725 618 667 550 725 b 249 600 311 725 265 650 l 242 600 l 242 713 l 121 713 z m 534 -169 b 608 -239 534 -211 565 -239 b 681 -169 650 -239 681 -211 b 608 -97 681 -127 650 -97 b 534 -169 565 -97 534 -127 z "},"n":{"ha":825,"x_min":0,"x_max":0,"o":"m 121 0 l 243 0 l 243 397 b 430 618 243 521 304 618 b 585 448 527 618 585 560 l 585 0 l 707 0 l 707 487 b 465 725 707 647 609 725 b 249 584 316 725 267 640 l 242 584 l 242 713 l 121 713 z "},"ǹ":{"ha":825,"x_min":0,"x_max":0,"o":"m 473 829 l 311 1071 l 191 1071 l 380 829 z m 121 0 l 243 0 l 243 397 b 430 618 243 521 304 618 b 585 448 527 618 585 560 l 585 0 l 707 0 l 707 487 b 465 725 707 647 609 725 b 249 584 316 725 267 640 l 242 584 l 242 713 l 121 713 z "},"ń":{"ha":825,"x_min":0,"x_max":0,"o":"m 353 829 l 446 829 l 635 1071 l 514 1071 z m 121 0 l 243 0 l 243 397 b 430 618 243 521 304 618 b 585 448 527 618 585 560 l 585 0 l 707 0 l 707 487 b 465 725 707 647 609 725 b 249 584 316 725 267 640 l 242 584 l 242 713 l 121 713 z "},"ñ":{"ha":825,"x_min":0,"x_max":0,"o":"m 497 823 b 623 994 572 823 623 893 l 543 994 b 495 905 538 935 523 905 b 334 1006 445 905 433 1006 b 206 836 254 1006 206 940 l 286 836 b 336 925 290 897 304 925 b 497 823 395 925 404 823 z m 121 0 l 243 0 l 243 397 b 430 618 243 521 304 618 b 585 448 527 618 585 560 l 585 0 l 707 0 l 707 487 b 465 725 707 647 609 725 b 249 584 316 725 267 640 l 242 584 l 242 713 l 121 713 z "},"ṇ":{"ha":825,"x_min":0,"x_max":0,"o":"m 121 0 l 243 0 l 243 397 b 430 618 243 521 304 618 b 585 448 527 618 585 560 l 585 0 l 707 0 l 707 487 b 465 725 707 647 609 725 b 249 584 316 725 267 640 l 242 584 l 242 713 l 121 713 z m 338 -169 b 412 -239 338 -211 370 -239 b 486 -169 455 -239 486 -211 b 412 -97 486 -127 455 -97 b 338 -169 370 -97 338 -127 z "},"ṅ":{"ha":825,"x_min":0,"x_max":0,"o":"m 335 916 b 411 842 335 874 370 842 b 487 916 452 842 487 874 b 411 989 487 957 452 989 b 335 916 370 989 335 957 z m 121 0 l 243 0 l 243 397 b 430 618 243 521 304 618 b 585 448 527 618 585 560 l 585 0 l 707 0 l 707 487 b 465 725 707 647 609 725 b 249 584 316 725 267 640 l 242 584 l 242 713 l 121 713 z "},"ň":{"ha":825,"x_min":0,"x_max":0,"o":"m 203 1082 l 372 827 l 454 827 l 616 1082 l 513 1082 l 414 904 l 411 904 l 307 1082 z m 121 0 l 243 0 l 243 397 b 430 618 243 521 304 618 b 585 448 527 618 585 560 l 585 0 l 707 0 l 707 487 b 465 725 707 647 609 725 b 249 584 316 725 267 640 l 242 584 l 242 713 l 121 713 z "},"ṋ":{"ha":825,"x_min":0,"x_max":0,"o":"m 121 0 l 243 0 l 243 397 b 430 618 243 521 304 618 b 585 448 527 618 585 560 l 585 0 l 707 0 l 707 487 b 465 725 707 647 609 725 b 249 584 316 725 267 640 l 242 584 l 242 713 l 121 713 z m 184 -264 l 300 -264 l 410 -170 l 414 -170 l 517 -264 l 636 -264 l 454 -98 l 374 -98 z "},"ṉ":{"ha":825,"x_min":0,"x_max":0,"o":"m 121 0 l 243 0 l 243 397 b 430 618 243 521 304 618 b 585 448 527 618 585 560 l 585 0 l 707 0 l 707 487 b 465 725 707 647 609 725 b 249 584 316 725 267 640 l 242 584 l 242 713 l 121 713 z m 614 -220 l 614 -141 l 210 -141 l 210 -220 z "},"ņ":{"ha":825,"x_min":0,"x_max":0,"o":"m 121 0 l 243 0 l 243 397 b 430 618 243 521 304 618 b 585 448 527 618 585 560 l 585 0 l 707 0 l 707 487 b 465 725 707 647 609 725 b 249 584 316 725 267 640 l 242 584 l 242 713 l 121 713 z m 404 -317 l 476 -104 l 369 -104 l 314 -317 z "},"o":{"ha":788,"x_min":0,"x_max":0,"o":"m 395 725 b 86 410 216 725 86 602 l 86 304 b 395 -12 86 101 214 -12 b 703 304 572 -12 703 103 l 703 410 b 395 725 703 609 572 725 z m 395 621 b 579 399 510 621 579 530 l 579 313 b 395 92 579 181 513 92 b 209 313 276 92 209 181 l 209 399 b 395 621 209 530 281 621 z "},"ö":{"ha":788,"x_min":0,"x_max":0,"o":"m 519 829 b 594 901 561 829 594 860 b 519 974 594 943 561 974 b 444 901 477 974 444 943 b 519 829 444 860 477 829 z m 269 829 b 345 901 311 829 345 860 b 269 974 345 943 311 974 b 194 901 227 974 194 943 b 269 829 194 860 227 829 z m 395 725 b 86 410 216 725 86 602 l 86 304 b 395 -12 86 101 214 -12 b 703 304 572 -12 703 103 l 703 410 b 395 725 703 609 572 725 z m 395 621 b 579 399 510 621 579 530 l 579 313 b 395 92 579 181 513 92 b 209 313 276 92 209 181 l 209 399 b 395 621 209 530 281 621 z "},"ø":{"ha":788,"x_min":0,"x_max":0,"o":"m 395 -12 b 703 304 572 -12 703 103 l 703 410 b 633 616 703 493 677 562 l 706 715 l 641 765 l 573 671 b 395 725 522 706 460 725 b 86 410 216 725 86 602 l 86 304 b 154 97 86 220 111 150 l 80 -4 l 146 -53 l 214 41 b 395 -12 265 7 327 -12 z m 205 296 l 205 400 b 395 625 205 531 279 625 b 511 587 441 625 481 611 l 227 192 b 205 296 213 220 205 256 z m 277 127 l 559 521 b 582 419 574 492 582 458 l 582 314 b 395 90 582 181 513 90 b 277 127 347 90 307 103 z "},"õ":{"ha":788,"x_min":0,"x_max":0,"o":"m 479 823 b 605 994 554 823 605 893 l 525 994 b 477 905 521 935 505 905 b 315 1006 427 905 415 1006 b 188 836 235 1006 188 940 l 268 836 b 317 925 271 897 286 925 b 479 823 376 925 385 823 z m 395 725 b 86 410 216 725 86 602 l 86 304 b 395 -12 86 101 214 -12 b 703 304 572 -12 703 103 l 703 410 b 395 725 703 609 572 725 z m 395 621 b 579 399 510 621 579 530 l 579 313 b 395 92 579 181 513 92 b 209 313 276 92 209 181 l 209 399 b 395 621 209 530 281 621 z "}}}
